Exo-BoldItalic.ufo
<glyph name="numbersign" format="1">
  <advance width="723"/>
  <unicode hex="0023"/>
  <note>
    GF Latin Plus glyph
  </note>
  <outline>
    <contour>
      <point x="334" y="306" type="line"/>
      <point x="374" y="425" type="line"/>
      <point x="492" y="425" type="line"/>
      <point x="453" y="306" type="line"/>
    </contour>
    <contour>
      <point x="48" y="207" type="line"/>
      <point x="199" y="207" type="line"/>
      <point x="129" y="0" type="line"/>
      <point x="229" y="0" type="line"/>
      <point x="299" y="207" type="line"/>
      <point x="414" y="207" type="line"/>
      <point x="344" y="0" type="line"/>
      <point x="444" y="0" type="line"/>
      <point x="514" y="207" type="line"/>
      <point x="693" y="207" type="line"/>
      <point x="723" y="306" type="line"/>
      <point x="552" y="306" type="line"/>
      <point x="592" y="425" type="line"/>
      <point x="763" y="425" type="line"/>
      <point x="793" y="524" type="line"/>
      <point x="623" y="524" type="line"/>
      <point x="693" y="732" type="line"/>
      <point x="593" y="732" type="line"/>
      <point x="523" y="524" type="line"/>
      <point x="409" y="524" type="line"/>
      <point x="480" y="732" type="line"/>
      <point x="380" y="732" type="line"/>
      <point x="309" y="524" type="line"/>
      <point x="149" y="524" type="line"/>
      <point x="117" y="425" type="line"/>
      <point x="274" y="425" type="line"/>
      <point x="234" y="306" type="line"/>
      <point x="79" y="306" type="line"/>
    </contour>
  </outline>
</glyph>
<glyph name="dollar" format="1">
  <advance width="609"/>
  <unicode hex="0024"/>
  <note>
    GF Latin Plus glyph
  </note>
  <outline>
    <contour>
      <point x="372" y="722" type="line"/>
      <point x="456" y="722" type="line"/>
      <point x="472" y="824" type="line"/>
      <point x="388" y="824" type="line"/>
    </contour>
    <contour>
      <point x="244" y="-89" type="line"/>
      <point x="328" y="-89" type="line"/>
      <point x="343" y="9" type="line"/>
      <point x="259" y="10" type="line"/>
    </contour>
    <component base="S"/>
  </outline>
</glyph>
<glyph name="ampersand" format="1">
  <advance width="698"/>
  <unicode hex="0026"/>
  <note>
    GF Latin Plus glyph
  </note>
  <outline>
    <contour>
      <point x="276" y="130" type="curve" smooth="yes"/>
      <point x="235" y="130"/>
      <point x="209" y="158"/>
      <point x="209" y="200" type="curve" smooth="yes"/>
      <point x="209" y="245"/>
      <point x="223" y="279"/>
      <point x="279" y="310" type="curve" smooth="yes"/>
      <point x="314" y="330" type="line"/>
      <point x="397" y="191" type="line"/>
      <point x="368" y="166" type="line" smooth="yes"/>
      <point x="334" y="137"/>
      <point x="306" y="130"/>
    </contour>
    <contour>
      <point x="231" y="-6" type="curve" smooth="yes"/>
      <point x="300" y="-6"/>
      <point x="355" y="12"/>
      <point x="417" y="60" type="curve" smooth="yes"/>
      <point x="459" y="92" type="line"/>
      <point x="518" y="0" type="line"/>
      <point x="670" y="0" type="line"/>
      <point x="572" y="166" type="line"/>
      <point x="638" y="221" type="line"/>
      <point x="716" y="333" type="line"/>
      <point x="672" y="400" type="line"/>
      <point x="509" y="271" type="line"/>
      <point x="400" y="461" type="line" smooth="yes"/>
      <point x="378" y="499"/>
      <point x="367" y="526"/>
      <point x="367" y="548" type="curve" smooth="yes"/>
      <point x="367" y="585"/>
      <point x="392" y="606"/>
      <point x="444" y="606" type="curve" smooth="yes"/>
      <point x="590" y="606" type="line"/>
      <point x="607" y="714" type="line"/>
      <point x="571" y="724"/>
      <point x="505" y="737"/>
      <point x="436" y="737" type="curve" smooth="yes"/>
      <point x="289" y="737"/>
      <point x="220" y="660"/>
      <point x="220" y="564" type="curve" smooth="yes"/>
      <point x="220" y="533"/>
      <point x="225" y="497"/>
      <point x="249" y="451" type="curve" smooth="yes"/>
      <point x="260" y="431" type="line"/>
      <point x="188" y="390" type="line" smooth="yes"/>
      <point x="99" y="338"/>
      <point x="58" y="272"/>
      <point x="58" y="164" type="curve" smooth="yes"/>
      <point x="58" y="61"/>
      <point x="127" y="-6"/>
    </contour>
  </outline>
</glyph>
<glyph name="period" format="1">
  <advance width="234"/>
  <unicode hex="002E"/>
  <note>
    GF Latin Plus glyph
  </note>
  <outline>
    <contour>
      <point x="56" y="19" type="line" smooth="yes"/>
      <point x="56" y="18"/>
      <point x="56" y="16"/>
      <point x="56" y="15" type="curve" smooth="yes"/>
      <point x="56" y="5"/>
      <point x="63" y="-1"/>
      <point x="74" y="-1" type="curve" smooth="yes"/>
      <point x="160" y="-1" type="line" smooth="yes"/>
      <point x="172" y="-1"/>
      <point x="182" y="3"/>
      <point x="184" y="19" type="curve" smooth="yes"/>
      <point x="201" y="121" type="line" smooth="yes"/>
      <point x="201" y="123"/>
      <point x="201" y="125"/>
      <point x="201" y="127" type="curve" smooth="yes"/>
      <point x="201" y="137"/>
      <point x="196" y="142"/>
      <point x="183" y="142" type="curve" smooth="yes"/>
      <point x="97" y="142" type="line" smooth="yes"/>
      <point x="83" y="142"/>
      <point x="75" y="134"/>
      <point x="73" y="121" type="curve" smooth="yes"/>
    </contour>
  </outline>
</glyph>
<glyph name="slash" format="1">
  <advance width="462"/>
  <unicode hex="002F"/>
  <note>
    GF Latin Plus glyph
  </note>
  <outline>
    <contour>
      <point x="4" y="-72" type="line"/>
      <point x="155" y="-72" type="line"/>
      <point x="569" y="770" type="line"/>
      <point x="418" y="770" type="line"/>
    </contour>
  </outline>
</glyph>
<glyph name="two" format="1">
  <advance width="586"/>
  <unicode hex="0032"/>
  <note>
    GF Latin Plus glyph
  </note>
  <outline>
    <contour>
      <point x="159" y="606" type="line"/>
      <point x="372" y="606" type="line" smooth="yes"/>
      <point x="433" y="606"/>
      <point x="455" y="582"/>
      <point x="455" y="540" type="curve" smooth="yes"/>
      <point x="455" y="492"/>
      <point x="422" y="431"/>
      <point x="346" y="364" type="curve" smooth="yes"/>
      <point x="64" y="119" type="line"/>
      <point x="46" y="0" type="line"/>
      <point x="551" y="0" type="line"/>
      <point x="572" y="134" type="line"/>
      <point x="271" y="134" type="line"/>
      <point x="458" y="299" type="line" smooth="yes"/>
      <point x="564" y="392"/>
      <point x="604" y="486"/>
      <point x="604" y="583" type="curve" smooth="yes"/>
      <point x="604" y="677"/>
      <point x="551" y="746"/>
      <point x="404" y="746" type="curve" smooth="yes"/>
      <point x="314" y="746"/>
      <point x="239" y="732"/>
      <point x="178" y="722" type="curve"/>
    </contour>
  </outline>
</glyph>
<glyph name="three" format="1">
  <advance width="579"/>
  <unicode hex="0033"/>
  <note>
    GF Latin Plus glyph
  </note>
  <outline>
    <contour>
      <point x="151" y="613" type="line"/>
      <point x="357" y="613" type="line" smooth="yes"/>
      <point x="418" y="613"/>
      <point x="459" y="595"/>
      <point x="459" y="546" type="curve" smooth="yes"/>
      <point x="459" y="541"/>
      <point x="459" y="536"/>
      <point x="455" y="505" type="curve" smooth="yes"/>
      <point x="447" y="459"/>
      <point x="409" y="438"/>
      <point x="349" y="435" type="curve" smooth="yes"/>
      <point x="171" y="425" type="line"/>
      <point x="154" y="319" type="line"/>
      <point x="317" y="312" type="line" smooth="yes"/>
      <point x="377" y="309"/>
      <point x="422" y="288"/>
      <point x="422" y="243" type="curve" smooth="yes"/>
      <point x="422" y="239"/>
      <point x="420" y="228"/>
      <point x="415" y="201" type="curve" smooth="yes"/>
      <point x="405" y="143"/>
      <point x="366" y="126"/>
      <point x="285" y="126" type="curve" smooth="yes"/>
      <point x="58" y="126" type="line"/>
      <point x="40" y="15" type="line"/>
      <point x="116" y="2"/>
      <point x="214" y="-6"/>
      <point x="320" y="-6" type="curve" smooth="yes"/>
      <point x="452" y="-6"/>
      <point x="542" y="58"/>
      <point x="560" y="176" type="curve" smooth="yes"/>
      <point x="566" y="219"/>
      <point x="569" y="238"/>
      <point x="569" y="252" type="curve" smooth="yes"/>
      <point x="569" y="318"/>
      <point x="532" y="359"/>
      <point x="488" y="372" type="curve"/>
      <point x="543" y="389"/>
      <point x="589" y="431"/>
      <point x="602" y="508" type="curve" smooth="yes"/>
      <point x="613" y="577"/>
      <point x="614" y="591"/>
      <point x="614" y="602" type="curve" smooth="yes"/>
      <point x="614" y="709"/>
      <point x="546" y="746"/>
      <point x="425" y="746" type="curve" smooth="yes"/>
      <point x="330" y="746"/>
      <point x="242" y="735"/>
      <point x="168" y="724" type="curve"/>
    </contour>
  </outline>
</glyph>
<glyph name="five" format="1">
  <advance width="607"/>
  <unicode hex="0035"/>
  <note>
    GF Latin Plus glyph
  </note>
  <outline>
    <contour>
      <point x="69" y="11" type="line"/>
      <point x="145" y="3"/>
      <point x="235" y="-5"/>
      <point x="313" y="-5" type="curve" smooth="yes"/>
      <point x="474" y="-5"/>
      <point x="571" y="51"/>
      <point x="591" y="181" type="curve" smooth="yes"/>
      <point x="609" y="290" type="line" smooth="yes"/>
      <point x="611" y="303"/>
      <point x="612" y="316"/>
      <point x="612" y="329" type="curve" smooth="yes"/>
      <point x="612" y="409"/>
      <point x="565" y="467"/>
      <point x="464" y="467" type="curve" smooth="yes"/>
      <point x="384" y="467" type="line" smooth="yes"/>
      <point x="346" y="467"/>
      <point x="314" y="453"/>
      <point x="293" y="434" type="curve"/>
      <point x="327" y="607" type="line"/>
      <point x="630" y="607" type="line"/>
      <point x="652" y="740" type="line"/>
      <point x="207" y="740" type="line"/>
      <point x="114" y="286" type="line"/>
      <point x="256" y="286" type="line"/>
      <point x="268" y="324"/>
      <point x="290" y="341"/>
      <point x="334" y="341" type="curve" smooth="yes"/>
      <point x="392" y="341" type="line" smooth="yes"/>
      <point x="438" y="341"/>
      <point x="458" y="320"/>
      <point x="458" y="285" type="curve" smooth="yes"/>
      <point x="458" y="278"/>
      <point x="457" y="270"/>
      <point x="456" y="263" type="curve" smooth="yes"/>
      <point x="448" y="212" type="line" smooth="yes"/>
      <point x="441" y="170"/>
      <point x="413" y="128"/>
      <point x="340" y="128" type="curve" smooth="yes"/>
      <point x="88" y="128" type="line"/>
    </contour>
  </outline>
</glyph>
<glyph name="A" format="1">
  <advance width="696"/>
  <unicode hex="0041"/>
  <note>
    GF Latin Plus glyph
  </note>
  <outline>
    <contour>
      <point x="303" y="288" type="line"/>
      <point x="447" y="612" type="line"/>
      <point x="485" y="288" type="line"/>
    </contour>
    <contour>
      <point x="23" y="0" type="line"/>
      <point x="175" y="0" type="line"/>
      <point x="247" y="155" type="line"/>
      <point x="500" y="155" type="line"/>
      <point x="521" y="0" type="line"/>
      <point x="675" y="0" type="line"/>
      <point x="561" y="740" type="line"/>
      <point x="375" y="740" type="line"/>
    </contour>
    <contour>
      <point x="474" y="810" type="move" name="top"/>
    </contour>
    <contour>
      <point x="565" y="0" type="move" name="ogonek"/>
    </contour>
    <contour>
      <point x="322" y="-150" type="move" name="bottom"/>
    </contour>
  </outline>
</glyph>
<glyph name="C" format="1">
  <advance width="591"/>
  <unicode hex="0043"/>
  <note>
    GF Latin Plus glyph
  </note>
  <outline>
    <contour>
      <point x="107" y="393" type="curve" smooth="yes"/>
      <point x="99" y="343"/>
      <point x="94" y="290"/>
      <point x="94" y="245" type="curve" smooth="yes"/>
      <point x="94" y="87"/>
      <point x="169" y="-6"/>
      <point x="336" y="-6" type="curve" smooth="yes"/>
      <point x="404" y="-6"/>
      <point x="482" y="0"/>
      <point x="549" y="23" type="curve"/>
      <point x="568" y="139" type="line"/>
      <point x="512" y="132"/>
      <point x="465" y="127"/>
      <point x="375" y="127" type="curve" smooth="yes"/>
      <point x="275" y="127"/>
      <point x="241" y="162"/>
      <point x="241" y="244" type="curve" smooth="yes"/>
      <point x="241" y="276"/>
      <point x="246" y="320"/>
      <point x="253" y="366" type="curve" smooth="yes"/>
      <point x="287" y="572"/>
      <point x="341" y="613"/>
      <point x="445" y="613" type="curve" smooth="yes"/>
      <point x="511" y="613"/>
      <point x="582" y="602"/>
      <point x="639" y="587" type="curve"/>
      <point x="658" y="704" type="line"/>
      <point x="612" y="722"/>
      <point x="535" y="746"/>
      <point x="419" y="746" type="curve" smooth="yes"/>
      <point x="229" y="746"/>
      <point x="143" y="625"/>
    </contour>
    <contour>
      <point x="452" y="810" type="move" name="top"/>
    </contour>
    <contour>
      <point x="305" y="-150" type="move" name="bottom"/>
    </contour>
  </outline>
</glyph>
<glyph name="E" format="1">
  <advance width="594"/>
  <unicode hex="0045"/>
  <note>
    GF Latin Plus glyph
  </note>
  <outline>
    <contour>
      <point x="87" y="161" type="line" smooth="yes"/>
      <point x="64" y="19"/>
      <point x="170" y="-6"/>
      <point x="242" y="-6" type="curve" smooth="yes"/>
      <point x="323" y="-6"/>
      <point x="471" y="2"/>
      <point x="539" y="9" type="curve"/>
      <point x="558" y="133" type="line"/>
      <point x="301" y="133" type="line" smooth="yes"/>
      <point x="255" y="133"/>
      <point x="234" y="151"/>
      <point x="242" y="200" type="curve" smooth="yes"/>
      <point x="258" y="303" type="line"/>
      <point x="537" y="311" type="line"/>
      <point x="556" y="428" type="line"/>
      <point x="279" y="437" type="line"/>
      <point x="294" y="533" type="line" smooth="yes"/>
      <point x="302" y="581"/>
      <point x="324" y="603"/>
      <point x="371" y="603" type="curve" smooth="yes"/>
      <point x="632" y="603" type="line"/>
      <point x="652" y="727" type="line"/>
      <point x="574" y="734"/>
      <point x="423" y="740"/>
      <point x="350" y="740" type="curve" smooth="yes"/>
      <point x="253" y="740"/>
      <point x="172" y="699"/>
      <point x="152" y="570" type="curve" smooth="yes"/>
    </contour>
    <contour>
      <point x="430" y="810" type="move" name="top"/>
    </contour>
    <contour>
      <point x="529" y="9" type="move" name="ogonek"/>
    </contour>
    <contour>
      <point x="278" y="-150" type="move" name="bottom"/>
    </contour>
  </outline>
</glyph>
<glyph name="G" format="1">
  <advance width="658"/>
  <unicode hex="0047"/>
  <note>
    GF Latin Plus glyph
  </note>
  <outline>
    <contour>
      <point x="108" y="401" type="curve" smooth="yes"/>
      <point x="99" y="344"/>
      <point x="91" y="284"/>
      <point x="91" y="227" type="curve" smooth="yes"/>
      <point x="91" y="67"/>
      <point x="143" y="-6"/>
      <point x="283" y="-6" type="curve" smooth="yes"/>
      <point x="344" y="-6"/>
      <point x="442" y="28"/>
      <point x="480" y="50" type="curve"/>
      <point x="492" y="0" type="line"/>
      <point x="604" y="0" type="line"/>
      <point x="670" y="421" type="line"/>
      <point x="647" y="422"/>
      <point x="592" y="423"/>
      <point x="561" y="423" type="curve" smooth="yes"/>
      <point x="486" y="423"/>
      <point x="429" y="417"/>
      <point x="394" y="414" type="curve"/>
      <point x="375" y="297" type="line"/>
      <point x="508" y="297" type="line"/>
      <point x="485" y="152" type="line"/>
      <point x="457" y="144"/>
      <point x="385" y="131"/>
      <point x="335" y="131" type="curve" smooth="yes"/>
      <point x="268" y="131"/>
      <point x="241" y="168"/>
      <point x="241" y="239" type="curve" smooth="yes"/>
      <point x="241" y="272"/>
      <point x="245" y="314"/>
      <point x="253" y="368" type="curve" smooth="yes"/>
      <point x="281" y="546"/>
      <point x="320" y="614"/>
      <point x="448" y="614" type="curve" smooth="yes"/>
      <point x="552" y="614"/>
      <point x="624" y="605"/>
      <point x="667" y="597" type="curve"/>
      <point x="685" y="712" type="line"/>
      <point x="624" y="731"/>
      <point x="554" y="747"/>
      <point x="431" y="747" type="curve" smooth="yes"/>
      <point x="245" y="747"/>
      <point x="144" y="629"/>
    </contour>
    <contour>
      <point x="450" y="810" type="move" name="top"/>
    </contour>
    <contour>
      <point x="298" y="-150" type="move" name="bottom"/>
    </contour>
  </outline>
</glyph>
<glyph name="K" format="1">
  <advance width="641"/>
  <unicode hex="004B"/>
  <note>
    GF Latin Plus glyph
  </note>
  <outline>
    <contour>
      <point x="62" y="0" type="line"/>
      <point x="210" y="0" type="line"/>
      <point x="258" y="305" type="line"/>
      <point x="364" y="305" type="line"/>
      <point x="484" y="0" type="line"/>
      <point x="632" y="0" type="line"/>
      <point x="486" y="368" type="line"/>
      <point x="732" y="740" type="line"/>
      <point x="580" y="740" type="line"/>
      <point x="377" y="438" type="line"/>
      <point x="280" y="438" type="line"/>
      <point x="327" y="740" type="line"/>
      <point x="179" y="740" type="line"/>
    </contour>
    <contour>
      <point x="444" y="810" type="move" name="top"/>
    </contour>
    <contour>
      <point x="292" y="-150" type="move" name="bottom"/>
    </contour>
  </outline>
</glyph>
<glyph name="M" format="1">
  <advance width="869"/>
  <unicode hex="004D"/>
  <note>
    GF Latin Plus glyph
  </note>
  <outline>
    <contour>
      <point x="41" y="0" type="line"/>
      <point x="188" y="0" type="line"/>
      <point x="316" y="470" type="line"/>
      <point x="372" y="0" type="line"/>
      <point x="511" y="0" type="line"/>
      <point x="717" y="476" type="line"/>
      <point x="697" y="0" type="line"/>
      <point x="840" y="0" type="line"/>
      <point x="870" y="740" type="line"/>
      <point x="732" y="740" type="line"/>
      <point x="470" y="175" type="line"/>
      <point x="387" y="740" type="line"/>
      <point x="248" y="740" type="line"/>
    </contour>
    <contour>
      <point x="556" y="810" type="move" name="top"/>
    </contour>
    <contour>
      <point x="404" y="-150" type="move" name="bottom"/>
    </contour>
  </outline>
</glyph>
<glyph name="N" format="1">
  <advance width="693"/>
  <unicode hex="004E"/>
  <note>
    GF Latin Plus glyph
  </note>
  <outline>
    <contour>
      <point x="62" y="0" type="line"/>
      <point x="210" y="0" type="line"/>
      <point x="288" y="489" type="line"/>
      <point x="520" y="0" type="line"/>
      <point x="638" y="0" type="line"/>
      <point x="756" y="740" type="line"/>
      <point x="608" y="740" type="line"/>
      <point x="530" y="252" type="line"/>
      <point x="298" y="740" type="line"/>
      <point x="179" y="740" type="line"/>
    </contour>
    <contour>
      <point x="459" y="810" type="move" name="top"/>
    </contour>
    <contour>
      <point x="307" y="-150" type="move" name="bottom"/>
    </contour>
  </outline>
</glyph>
<glyph name="O" format="1">
  <advance width="697"/>
  <unicode hex="004F"/>
  <note>
    GF Latin Plus glyph
  </note>
  <outline>
    <contour>
      <point x="239" y="236" type="curve" smooth="yes"/>
      <point x="239" y="267"/>
      <point x="245" y="317"/>
      <point x="254" y="370" type="curve" smooth="yes"/>
      <point x="285" y="566"/>
      <point x="332" y="613"/>
      <point x="445" y="613" type="curve" smooth="yes"/>
      <point x="531" y="613"/>
      <point x="573" y="593"/>
      <point x="573" y="499" type="curve" smooth="yes"/>
      <point x="573" y="467"/>
      <point x="568" y="415"/>
      <point x="559" y="361" type="curve" smooth="yes"/>
      <point x="531" y="188"/>
      <point x="488" y="128"/>
      <point x="370" y="128" type="curve" smooth="yes"/>
      <point x="277" y="128"/>
      <point x="239" y="150"/>
    </contour>
    <contour>
      <point x="91" y="228" type="curve" smooth="yes"/>
      <point x="91" y="34"/>
      <point x="194" y="-6"/>
      <point x="346" y="-6" type="curve" smooth="yes"/>
      <point x="561" y="-6"/>
      <point x="661" y="55"/>
      <point x="706" y="341" type="curve" smooth="yes"/>
      <point x="716" y="399"/>
      <point x="722" y="458"/>
      <point x="722" y="501" type="curve" smooth="yes"/>
      <point x="722" y="704"/>
      <point x="614" y="746"/>
      <point x="467" y="746" type="curve" smooth="yes"/>
      <point x="251" y="746"/>
      <point x="150" y="669"/>
      <point x="106" y="390" type="curve" smooth="yes"/>
      <point x="97" y="332"/>
      <point x="91" y="274"/>
    </contour>
    <contour>
      <point x="478" y="810" type="move" name="top"/>
    </contour>
    <contour>
      <point x="435" y="0" type="move" name="ogonek"/>
    </contour>
    <contour>
      <point x="326" y="-150" type="move" name="bottom"/>
    </contour>
  </outline>
</glyph>
<glyph name="P" format="1">
  <advance width="610"/>
  <unicode hex="0050"/>
  <note>
    GF Latin Plus glyph
  </note>
  <outline>
    <contour>
      <point x="268" y="364" type="line"/>
      <point x="306" y="607" type="line"/>
      <point x="446" y="607" type="line" smooth="yes"/>
      <point x="492" y="607"/>
      <point x="517" y="586"/>
      <point x="517" y="528" type="curve" smooth="yes"/>
      <point x="517" y="519"/>
      <point x="515" y="498"/>
      <point x="512" y="480" type="curve" smooth="yes"/>
      <point x="500" y="404"/>
      <point x="460" y="364"/>
      <point x="405" y="364" type="curve" smooth="yes"/>
    </contour>
    <contour>
      <point x="62" y="0" type="line"/>
      <point x="210" y="0" type="line"/>
      <point x="250" y="248" type="line"/>
      <point x="290" y="239"/>
      <point x="361" y="231"/>
      <point x="425" y="231" type="curve" smooth="yes"/>
      <point x="525" y="231"/>
      <point x="631" y="285"/>
      <point x="659" y="464" type="curve" smooth="yes"/>
      <point x="663" y="488"/>
      <point x="668" y="522"/>
      <point x="668" y="542" type="curve" smooth="yes"/>
      <point x="668" y="696"/>
      <point x="583" y="740"/>
      <point x="474" y="740" type="curve" smooth="yes"/>
      <point x="179" y="740" type="line"/>
    </contour>
    <contour>
      <point x="414" y="810" type="move" name="top"/>
    </contour>
  </outline>
</glyph>
<glyph name="R" format="1">
  <advance width="633"/>
  <unicode hex="0052"/>
  <note>
    GF Latin Plus glyph
  </note>
  <outline>
    <contour>
      <point x="272" y="393" type="line"/>
      <point x="306" y="607" type="line"/>
      <point x="432" y="607" type="line" smooth="yes"/>
      <point x="479" y="607"/>
      <point x="510" y="588"/>
      <point x="510" y="535" type="curve" smooth="yes"/>
      <point x="510" y="525"/>
      <point x="509" y="514"/>
      <point x="507" y="502" type="curve" smooth="yes"/>
      <point x="494" y="419"/>
      <point x="463" y="393"/>
      <point x="397" y="393" type="curve" smooth="yes"/>
    </contour>
    <contour>
      <point x="62" y="0" type="line"/>
      <point x="210" y="0" type="line"/>
      <point x="254" y="276" type="line"/>
      <point x="270" y="275"/>
      <point x="360" y="275"/>
      <point x="374" y="275" type="curve"/>
      <point x="449" y="0" type="line"/>
      <point x="600" y="0" type="line"/>
      <point x="510" y="298" type="line"/>
      <point x="554" y="315"/>
      <point x="635" y="350"/>
      <point x="656" y="492" type="curve" smooth="yes"/>
      <point x="660" y="516"/>
      <point x="662" y="537"/>
      <point x="662" y="556" type="curve" smooth="yes"/>
      <point x="662" y="690"/>
      <point x="582" y="740"/>
      <point x="462" y="740" type="curve" smooth="yes"/>
      <point x="179" y="740" type="line"/>
    </contour>
    <contour>
      <point x="419" y="810" type="move" name="top"/>
    </contour>
    <contour>
      <point x="302" y="-150" type="move" name="bottom"/>
    </contour>
  </outline>
</glyph>
<glyph name="S" format="1">
  <advance width="573"/>
  <unicode hex="0053"/>
  <note>
    GF Latin Plus glyph
  </note>
  <outline>
    <contour>
      <point x="62" y="18" type="line"/>
      <point x="114" y="6"/>
      <point x="202" y="-6"/>
      <point x="306" y="-6" type="curve" smooth="yes"/>
      <point x="480" y="-6"/>
      <point x="554" y="49"/>
      <point x="574" y="173" type="curve" smooth="yes"/>
      <point x="584" y="242" type="line" smooth="yes"/>
      <point x="586" y="257"/>
      <point x="587" y="270"/>
      <point x="587" y="282" type="curve" smooth="yes"/>
      <point x="587" y="375"/>
      <point x="522" y="438"/>
      <point x="398" y="438" type="curve" smooth="yes"/>
      <point x="335" y="438" type="line" smooth="yes"/>
      <point x="289" y="438"/>
      <point x="268" y="453"/>
      <point x="268" y="491" type="curve" smooth="yes"/>
      <point x="268" y="497"/>
      <point x="269" y="505"/>
      <point x="270" y="513" type="curve" smooth="yes"/>
      <point x="274" y="539" type="line" smooth="yes"/>
      <point x="284" y="597"/>
      <point x="321" y="612"/>
      <point x="382" y="612" type="curve" smooth="yes"/>
      <point x="442" y="612"/>
      <point x="537" y="610"/>
      <point x="607" y="604" type="curve"/>
      <point x="626" y="721" type="line"/>
      <point x="553" y="738"/>
      <point x="465" y="746"/>
      <point x="400" y="746" type="curve" smooth="yes"/>
      <point x="253" y="746"/>
      <point x="158" y="698"/>
      <point x="136" y="556" type="curve" smooth="yes"/>
      <point x="126" y="496" type="line" smooth="yes"/>
      <point x="124" y="481"/>
      <point x="123" y="468"/>
      <point x="123" y="454" type="curve" smooth="yes"/>
      <point x="123" y="360"/>
      <point x="188" y="298"/>
      <point x="300" y="298" type="curve" smooth="yes"/>
      <point x="359" y="298" type="line" smooth="yes"/>
      <point x="418" y="298"/>
      <point x="443" y="283"/>
      <point x="443" y="246" type="curve" smooth="yes"/>
      <point x="443" y="240"/>
      <point x="442" y="233"/>
      <point x="441" y="226" type="curve" smooth="yes"/>
      <point x="437" y="200" type="line" smooth="yes"/>
      <point x="428" y="142"/>
      <point x="388" y="127"/>
      <point x="303" y="127" type="curve" smooth="yes"/>
      <point x="226" y="127"/>
      <point x="140" y="130"/>
      <point x="80" y="135" type="curve"/>
    </contour>
    <contour>
      <point x="412" y="810" type="move" name="top"/>
    </contour>
    <contour>
      <point x="260" y="-150" type="move" name="bottom"/>
    </contour>
  </outline>
</glyph>
<glyph name="T" format="1">
  <advance width="609"/>
  <unicode hex="0054"/>
  <note>
    GF Latin Plus glyph
  </note>
  <outline>
    <contour>
      <point x="119" y="607" type="line"/>
      <point x="321" y="607" type="line"/>
      <point x="226" y="0" type="line"/>
      <point x="374" y="0" type="line"/>
      <point x="470" y="607" type="line"/>
      <point x="673" y="607" type="line"/>
      <point x="694" y="740" type="line"/>
      <point x="140" y="740" type="line"/>
    </contour>
    <contour>
      <point x="427" y="810" type="move" name="top"/>
    </contour>
    <contour>
      <point x="275" y="-150" type="move" name="bottom"/>
    </contour>
  </outline>
</glyph>
<glyph name="U" format="1">
  <advance width="688"/>
  <unicode hex="0055"/>
  <note>
    GF Latin Plus glyph
  </note>
  <outline>
    <contour>
      <point x="116" y="342" type="line" smooth="yes"/>
      <point x="108" y="297"/>
      <point x="103" y="252"/>
      <point x="103" y="217" type="curve" smooth="yes"/>
      <point x="103" y="58"/>
      <point x="185" y="-6"/>
      <point x="345" y="-6" type="curve" smooth="yes"/>
      <point x="526" y="-6"/>
      <point x="633" y="38"/>
      <point x="674" y="298" type="curve" smooth="yes"/>
      <point x="744" y="740" type="line"/>
      <point x="596" y="740" type="line"/>
      <point x="529" y="320" type="line" smooth="yes"/>
      <point x="504" y="160"/>
      <point x="456" y="127"/>
      <point x="365" y="127" type="curve" smooth="yes"/>
      <point x="285" y="127"/>
      <point x="251" y="158"/>
      <point x="251" y="229" type="curve" smooth="yes"/>
      <point x="251" y="254"/>
      <point x="256" y="286"/>
      <point x="261" y="320" type="curve" smooth="yes"/>
      <point x="327" y="740" type="line"/>
      <point x="179" y="740" type="line"/>
    </contour>
    <contour>
      <point x="466" y="810" type="move" name="top"/>
    </contour>
    <contour>
      <point x="429" y="0" type="move" name="ogonek"/>
    </contour>
    <contour>
      <point x="314" y="-150" type="move" name="bottom"/>
    </contour>
  </outline>
</glyph>
<glyph name="V" format="1">
  <advance width="697"/>
  <unicode hex="0056"/>
  <note>
    GF Latin Plus glyph
  </note>
  <outline>
    <contour>
      <point x="140" y="740" type="line"/>
      <point x="254" y="0" type="line"/>
      <point x="440" y="0" type="line"/>
      <point x="792" y="740" type="line"/>
      <point x="639" y="740" type="line"/>
      <point x="373" y="161" type="line"/>
      <point x="293" y="740" type="line"/>
    </contour>
  </outline>
</glyph>
<glyph name="c" format="1">
  <advance width="475"/>
  <unicode hex="0063"/>
  <note>
    GF Latin Plus glyph
  </note>
  <outline>
    <contour>
      <point x="85" y="293" type="curve" smooth="yes"/>
      <point x="79" y="256"/>
      <point x="75" y="221"/>
      <point x="75" y="198" type="curve" smooth="yes"/>
      <point x="75" y="42"/>
      <point x="151" y="-6"/>
      <point x="271" y="-6" type="curve" smooth="yes"/>
      <point x="350" y="-6"/>
      <point x="403" y="6"/>
      <point x="449" y="22" type="curve"/>
      <point x="462" y="106" type="line"/>
      <point x="319" y="106" type="line" smooth="yes"/>
      <point x="256" y="106"/>
      <point x="223" y="135"/>
      <point x="223" y="211" type="curve" smooth="yes"/>
      <point x="223" y="222"/>
      <point x="225" y="240"/>
      <point x="229" y="268" type="curve" smooth="yes"/>
      <point x="247" y="378"/>
      <point x="285" y="429"/>
      <point x="368" y="429" type="curve" smooth="yes"/>
      <point x="504" y="429" type="line"/>
      <point x="518" y="515" type="line"/>
      <point x="459" y="530"/>
      <point x="393" y="543"/>
      <point x="334" y="543" type="curve" smooth="yes"/>
      <point x="207" y="543"/>
      <point x="113" y="476"/>
    </contour>
    <contour>
      <point x="358" y="650" type="move" name="top"/>
    </contour>
    <contour>
      <point x="232" y="-150" type="move" name="bottom"/>
    </contour>
  </outline>
</glyph>
<glyph name="j" format="1">
  <advance width="254"/>
  <unicode hex="006A"/>
  <note>
    GF Latin Plus glyph
  </note>
  <outline>
    <contour>
      <point x="152" y="636" type="line" smooth="yes"/>
      <point x="149" y="624"/>
      <point x="157" y="616"/>
      <point x="169" y="616" type="curve" smooth="yes"/>
      <point x="283" y="616" type="line" smooth="yes"/>
      <point x="295" y="616"/>
      <point x="303" y="623"/>
      <point x="306" y="636" type="curve" smooth="yes"/>
      <point x="321" y="734" type="line" smooth="yes"/>
      <point x="322" y="746"/>
      <point x="318" y="755"/>
      <point x="305" y="755" type="curve" smooth="yes"/>
      <point x="191" y="755" type="line" smooth="yes"/>
      <point x="177" y="755"/>
      <point x="169" y="747"/>
      <point x="167" y="734" type="curve" smooth="yes"/>
    </contour>
    <component base="jdotless" xOffset="-1"/>
  </outline>
</glyph>
<glyph name="k" format="1">
  <advance width="563"/>
  <unicode hex="006B"/>
  <note>
    GF Latin Plus glyph
  </note>
  <outline>
    <contour>
      <point x="54" y="0" type="line"/>
      <point x="202" y="0" type="line"/>
      <point x="239" y="236" type="line"/>
      <point x="255" y="236"/>
      <point x="281" y="240"/>
      <point x="300" y="245" type="curve"/>
      <point x="413" y="0" type="line"/>
      <point x="565" y="0" type="line"/>
      <point x="424" y="290" type="line"/>
      <point x="486" y="323"/>
      <point x="555" y="389"/>
      <point x="596" y="537" type="curve"/>
      <point x="447" y="537" type="line"/>
      <point x="417" y="421"/>
      <point x="350" y="363"/>
      <point x="257" y="347" type="curve"/>
      <point x="323" y="763" type="line"/>
      <point x="175" y="763" type="line"/>
    </contour>
    <contour>
      <point x="270" y="-150" type="move" name="bottom"/>
    </contour>
  </outline>
</glyph>
<glyph name="l" format="1">
  <advance width="322"/>
  <unicode hex="006C"/>
  <note>
    GF Latin Plus glyph
  </note>
  <outline>
    <contour>
      <point x="83" y="186" type="line" smooth="yes"/>
      <point x="80" y="167"/>
      <point x="79" y="145"/>
      <point x="79" y="120" type="curve" smooth="yes"/>
      <point x="79" y="48"/>
      <point x="133" y="0"/>
      <point x="240" y="0" type="curve" smooth="yes"/>
      <point x="304" y="0" type="line"/>
      <point x="321" y="107" type="line"/>
      <point x="283" y="113" type="line" smooth="yes"/>
      <point x="250" y="117"/>
      <point x="231" y="127"/>
      <point x="231" y="164" type="curve" smooth="yes"/>
      <point x="231" y="184"/>
      <point x="237" y="222"/>
      <point x="239" y="237" type="curve" smooth="yes"/>
      <point x="323" y="763" type="line"/>
      <point x="175" y="763" type="line"/>
    </contour>
    <contour>
      <point x="262" y="850" type="move" name="top"/>
    </contour>
    <contour>
      <point x="326" y="650" type="move" name="altcaron"/>
    </contour>
    <contour>
      <point x="313" y="363" type="move" name="dot"/>
    </contour>
    <contour>
      <point x="156" y="-150" type="move" name="bottom"/>
    </contour>
  </outline>
</glyph>
<glyph name="n" format="1">
  <advance width="590"/>
  <unicode hex="006E"/>
  <note>
    GF Latin Plus glyph
  </note>
  <outline>
    <contour>
      <point x="54" y="0" type="line"/>
      <point x="202" y="0" type="line"/>
      <point x="260" y="366" type="line"/>
      <point x="296" y="393"/>
      <point x="333" y="411"/>
      <point x="379" y="411" type="curve" smooth="yes"/>
      <point x="426" y="411"/>
      <point x="444" y="388"/>
      <point x="444" y="354" type="curve" smooth="yes"/>
      <point x="444" y="346"/>
      <point x="442" y="335"/>
      <point x="438" y="307" type="curve" smooth="yes"/>
      <point x="390" y="0" type="line"/>
      <point x="538" y="0" type="line"/>
      <point x="587" y="312" type="line" smooth="yes"/>
      <point x="598" y="379"/>
      <point x="599" y="401"/>
      <point x="599" y="423" type="curve" smooth="yes"/>
      <point x="599" y="493"/>
      <point x="552" y="544"/>
      <point x="463" y="544" type="curve" smooth="yes"/>
      <point x="388" y="544"/>
      <point x="325" y="517"/>
      <point x="278" y="482" type="curve"/>
      <point x="261" y="537" type="line"/>
      <point x="138" y="537" type="line"/>
    </contour>
    <contour>
      <point x="390" y="650" type="move" name="top"/>
    </contour>
    <contour>
      <point x="264" y="-150" type="move" name="bottom"/>
    </contour>
  </outline>
</glyph>
<glyph name="q" format="1">
  <advance width="570"/>
  <unicode hex="0071"/>
  <note>
    GF Latin Plus glyph
  </note>
  <outline>
    <contour>
      <point x="228" y="275" type="curve" smooth="yes"/>
      <point x="245" y="374"/>
      <point x="276" y="426"/>
      <point x="365" y="424" type="curve" smooth="yes"/>
      <point x="374" y="424"/>
      <point x="423" y="420"/>
      <point x="436" y="417" type="curve"/>
      <point x="393" y="150" type="line"/>
      <point x="362" y="130"/>
      <point x="327" y="113"/>
      <point x="287" y="113" type="curve" smooth="yes"/>
      <point x="247" y="113"/>
      <point x="220" y="144"/>
      <point x="220" y="204" type="curve" smooth="yes"/>
      <point x="220" y="221"/>
      <point x="223" y="245"/>
    </contour>
    <contour>
      <point x="84" y="286" type="curve" smooth="yes"/>
      <point x="78" y="246"/>
      <point x="74" y="210"/>
      <point x="74" y="176" type="curve" smooth="yes"/>
      <point x="74" y="60"/>
      <point x="119" y="-6"/>
      <point x="215" y="-6" type="curve" smooth="yes"/>
      <point x="272" y="-6"/>
      <point x="337" y="20"/>
      <point x="378" y="54" type="curve"/>
      <point x="332" y="-237" type="line"/>
      <point x="480" y="-237" type="line"/>
      <point x="599" y="510" type="line"/>
      <point x="550" y="528"/>
      <point x="455" y="543"/>
      <point x="362" y="543" type="curve" smooth="yes"/>
      <point x="217" y="543"/>
      <point x="115" y="482"/>
    </contour>
  </outline>
</glyph>
<glyph name="r" format="1">
  <advance width="419"/>
  <unicode hex="0072"/>
  <note>
    GF Latin Plus glyph
  </note>
  <outline>
    <contour>
      <point x="54" y="0" type="line"/>
      <point x="203" y="0" type="line"/>
      <point x="258" y="348" type="line"/>
      <point x="288" y="371"/>
      <point x="334" y="391"/>
      <point x="393" y="391" type="curve" smooth="yes"/>
      <point x="400" y="391"/>
      <point x="450" y="390"/>
      <point x="455" y="389" type="curve"/>
      <point x="478" y="537" type="line"/>
      <point x="461" y="542"/>
      <point x="445" y="543"/>
      <point x="424" y="543" type="curve" smooth="yes"/>
      <point x="362" y="543"/>
      <point x="315" y="508"/>
      <point x="277" y="468" type="curve"/>
      <point x="271" y="537" type="line"/>
      <point x="139" y="537" type="line"/>
    </contour>
    <contour>
      <point x="315" y="651" type="move" name="top"/>
    </contour>
    <contour>
      <point x="105" y="-150" type="move" name="bottom"/>
    </contour>
  </outline>
</glyph>
<glyph name="s" format="1">
  <advance width="512"/>
  <unicode hex="0073"/>
  <note>
    GF Latin Plus glyph
  </note>
  <outline>
    <contour>
      <point x="52" y="18" type="line"/>
      <point x="102" y="3"/>
      <point x="179" y="-6"/>
      <point x="266" y="-6" type="curve" smooth="yes"/>
      <point x="395" y="-6"/>
      <point x="480" y="30"/>
      <point x="495" y="130" type="curve" smooth="yes"/>
      <point x="502" y="177" type="line" smooth="yes"/>
      <point x="504" y="192"/>
      <point x="505" y="207"/>
      <point x="505" y="220" type="curve" smooth="yes"/>
      <point x="505" y="287"/>
      <point x="449" y="327"/>
      <point x="364" y="327" type="curve" smooth="yes"/>
      <point x="274" y="327" type="line" smooth="yes"/>
      <point x="239" y="327"/>
      <point x="228" y="336"/>
      <point x="228" y="354" type="curve" smooth="yes"/>
      <point x="228" y="359"/>
      <point x="229" y="366"/>
      <point x="231" y="375" type="curve" smooth="yes"/>
      <point x="234" y="390" type="line" smooth="yes"/>
      <point x="240" y="419"/>
      <point x="255" y="431"/>
      <point x="294" y="431" type="curve" smooth="yes"/>
      <point x="513" y="431" type="line"/>
      <point x="528" y="518" type="line"/>
      <point x="476" y="532"/>
      <point x="386" y="543"/>
      <point x="323" y="543" type="curve" smooth="yes"/>
      <point x="170" y="543"/>
      <point x="117" y="483"/>
      <point x="102" y="400" type="curve" smooth="yes"/>
      <point x="96" y="362" type="line" smooth="yes"/>
      <point x="93" y="346"/>
      <point x="92" y="331"/>
      <point x="92" y="317" type="curve" smooth="yes"/>
      <point x="92" y="241"/>
      <point x="157" y="208"/>
      <point x="245" y="208" type="curve" smooth="yes"/>
      <point x="325" y="208" type="line" smooth="yes"/>
      <point x="352" y="208"/>
      <point x="367" y="198"/>
      <point x="367" y="178" type="curve" smooth="yes"/>
      <point x="367" y="175"/>
      <point x="367" y="172"/>
      <point x="366" y="166" type="curve" smooth="yes"/>
      <point x="363" y="144" type="line" smooth="yes"/>
      <point x="358" y="117"/>
      <point x="335" y="105"/>
      <point x="300" y="105" type="curve" smooth="yes"/>
      <point x="66" y="105" type="line"/>
    </contour>
    <contour>
      <point x="367" y="650" type="move" name="top"/>
    </contour>
    <contour>
      <point x="241" y="-150" type="move" name="bottom"/>
    </contour>
  </outline>
</glyph>
<glyph name="w" format="1">
  <advance width="850"/>
  <unicode hex="0077"/>
  <note>
    GF Latin Plus glyph
  </note>
  <outline>
    <contour>
      <point x="83" y="537" type="line"/>
      <point x="169" y="0" type="line"/>
      <point x="326" y="0" type="line"/>
      <point x="456" y="296" type="line"/>
      <point x="513" y="0" type="line"/>
      <point x="670" y="0" type="line"/>
      <point x="836" y="353" type="line" smooth="yes"/>
      <point x="858" y="400"/>
      <point x="886" y="481"/>
      <point x="886" y="545" type="curve"/>
      <point x="742" y="545" type="line"/>
      <point x="737" y="500"/>
      <point x="717" y="436"/>
      <point x="708" y="408" type="curve" smooth="yes"/>
      <point x="609" y="139" type="line"/>
      <point x="539" y="537" type="line"/>
      <point x="442" y="537" type="line"/>
      <point x="281" y="139" type="line"/>
      <point x="235" y="537" type="line"/>
    </contour>
    <contour>
      <point x="505" y="650" type="move" name="top"/>
    </contour>
    <contour>
      <point x="379" y="-150" type="move" name="bottom"/>
    </contour>
  </outline>
</glyph>
<glyph name="z" format="1">
  <advance width="501"/>
  <unicode hex="007A"/>
  <note>
    GF Latin Plus glyph
  </note>
  <outline>
    <contour>
      <point x="40" y="0" type="line"/>
      <point x="465" y="0" type="line"/>
      <point x="465" y="0"/>
      <point x="485" y="118"/>
      <point x="484" y="119" type="curve"/>
      <point x="230" y="119" type="line"/>
      <point x="528" y="430" type="line"/>
      <point x="544" y="537" type="line"/>
      <point x="113" y="537" type="line"/>
      <point x="94" y="418" type="line"/>
      <point x="355" y="418" type="line"/>
      <point x="57" y="107" type="line"/>
    </contour>
    <contour>
      <point x="330" y="650" type="move" name="top"/>
    </contour>
    <contour>
      <point x="204" y="-150" type="move" name="bottom"/>
    </contour>
  </outline>
</glyph>
<glyph name="asciitilde" format="1">
  <advance width="423"/>
  <unicode hex="007E"/>
  <note>
    GF Latin Plus glyph
  </note>
  <outline>
    <contour>
      <point x="133" y="591" type="line"/>
      <point x="165" y="625"/>
      <point x="210" y="661"/>
      <point x="262" y="661" type="curve" smooth="yes"/>
      <point x="301" y="661"/>
      <point x="339" y="616"/>
      <point x="370" y="616" type="curve" smooth="yes"/>
      <point x="408" y="616"/>
      <point x="443" y="638"/>
      <point x="468" y="659" type="curve"/>
      <point x="480" y="603" type="line"/>
      <point x="449" y="570"/>
      <point x="407" y="534"/>
      <point x="358" y="534" type="curve" smooth="yes"/>
      <point x="315" y="534"/>
      <point x="284" y="579"/>
      <point x="247" y="579" type="curve" smooth="yes"/>
      <point x="208" y="579"/>
      <point x="181" y="564"/>
      <point x="145" y="540" type="curve"/>
    </contour>
  </outline>
</glyph>
<glyph name="registered" format="1">
  <advance width="811"/>
  <unicode hex="00AE"/>
  <note>
    GF Latin Plus glyph
  </note>
  <outline>
    <contour>
      <point x="398" y="388" type="line"/>
      <point x="416" y="500" type="line"/>
      <point x="512" y="500" type="line" smooth="yes"/>
      <point x="535" y="500"/>
      <point x="550" y="491"/>
      <point x="550" y="463" type="curve" smooth="yes"/>
      <point x="550" y="427"/>
      <point x="526" y="388"/>
      <point x="494" y="388" type="curve" smooth="yes"/>
    </contour>
    <contour>
      <point x="274" y="153" type="line"/>
      <point x="361" y="153" type="line"/>
      <point x="388" y="324" type="line"/>
      <point x="458" y="323" type="line"/>
      <point x="517" y="153" type="line"/>
      <point x="604" y="153" type="line"/>
      <point x="540" y="320" type="line"/>
      <point x="601" y="336"/>
      <point x="639" y="408"/>
      <point x="639" y="480" type="curve" smooth="yes"/>
      <point x="639" y="561"/>
      <point x="584" y="580"/>
      <point x="526" y="580" type="curve" smooth="yes"/>
      <point x="342" y="580" type="line"/>
    </contour>
    <contour>
      <point x="413" y="652" type="curve" smooth="yes"/>
      <point x="628" y="652" type="line" smooth="yes"/>
      <point x="723" y="652"/>
      <point x="759" y="581"/>
      <point x="759" y="489" type="curve" smooth="yes"/>
      <point x="759" y="252"/>
      <point x="647" y="80"/>
      <point x="530" y="80" type="curve" smooth="yes"/>
      <point x="322" y="80" type="line" smooth="yes"/>
      <point x="219" y="80"/>
      <point x="173" y="163"/>
      <point x="173" y="277" type="curve" smooth="yes"/>
      <point x="173" y="478"/>
      <point x="272" y="652"/>
    </contour>
    <contour>
      <point x="92" y="264" type="curve" smooth="yes"/>
      <point x="92" y="113"/>
      <point x="176" y="0"/>
      <point x="332" y="0" type="curve" smooth="yes"/>
      <point x="525" y="0" type="line" smooth="yes"/>
      <point x="704" y="0"/>
      <point x="841" y="243"/>
      <point x="841" y="502" type="curve" smooth="yes"/>
      <point x="841" y="636"/>
      <point x="769" y="732"/>
      <point x="619" y="732" type="curve" smooth="yes"/>
      <point x="426" y="732" type="line" smooth="yes"/>
      <point x="185" y="732"/>
      <point x="92" y="475"/>
    </contour>
  </outline>
</glyph>
<glyph name="degree" format="1">
  <advance width="318"/>
  <unicode hex="00B0"/>
  <note>
    GF Latin Plus glyph
  </note>
  <outline>
    <contour>
      <point x="271" y="702" type="curve" smooth="yes"/>
      <point x="311" y="702"/>
      <point x="336" y="678"/>
      <point x="336" y="640" type="curve" smooth="yes"/>
      <point x="336" y="585"/>
      <point x="299" y="548"/>
      <point x="246" y="548" type="curve" smooth="yes"/>
      <point x="206" y="548"/>
      <point x="180" y="573"/>
      <point x="180" y="610" type="curve" smooth="yes"/>
      <point x="180" y="664"/>
      <point x="217" y="702"/>
    </contour>
    <contour>
      <point x="112" y="606" type="curve" smooth="yes"/>
      <point x="112" y="530"/>
      <point x="162" y="481"/>
      <point x="236" y="481" type="curve" smooth="yes"/>
      <point x="350" y="481"/>
      <point x="404" y="557"/>
      <point x="404" y="645" type="curve" smooth="yes"/>
      <point x="404" y="720"/>
      <point x="357" y="770"/>
      <point x="282" y="770" type="curve" smooth="yes"/>
      <point x="170" y="770"/>
      <point x="112" y="691"/>
    </contour>
  </outline>
</glyph>
<glyph name="threesuperior" format="1">
  <advance width="416"/>
  <unicode hex="00B3"/>
  <outline>
    <contour>
      <point x="163" y="736" type="line"/>
      <point x="301" y="736" type="line" smooth="yes"/>
      <point x="346" y="736"/>
      <point x="363" y="726"/>
      <point x="363" y="707" type="curve" smooth="yes"/>
      <point x="363" y="704"/>
      <point x="363" y="702"/>
      <point x="363" y="700" type="curve" smooth="yes"/>
      <point x="361" y="683" type="line" smooth="yes"/>
      <point x="357" y="662"/>
      <point x="336" y="654"/>
      <point x="299" y="651" type="curve" smooth="yes"/>
      <point x="183" y="645" type="line"/>
      <point x="169" y="555" type="line"/>
      <point x="289" y="550" type="line" smooth="yes"/>
      <point x="319" y="549"/>
      <point x="339" y="540"/>
      <point x="339" y="517" type="curve" smooth="yes"/>
      <point x="339" y="515"/>
      <point x="339" y="512"/>
      <point x="339" y="509" type="curve" smooth="yes"/>
      <point x="336" y="494" type="line" smooth="yes"/>
      <point x="332" y="468"/>
      <point x="313" y="461"/>
      <point x="260" y="461" type="curve" smooth="yes"/>
      <point x="112" y="461" type="line"/>
      <point x="97" y="368" type="line"/>
      <point x="151" y="357"/>
      <point x="217" y="351"/>
      <point x="289" y="351" type="curve" smooth="yes"/>
      <point x="378" y="351"/>
      <point x="438" y="391"/>
      <point x="450" y="470" type="curve" smooth="yes"/>
      <point x="454" y="493" type="line" smooth="yes"/>
      <point x="456" y="503"/>
      <point x="457" y="512"/>
      <point x="457" y="521" type="curve" smooth="yes"/>
      <point x="457" y="562"/>
      <point x="438" y="590"/>
      <point x="406" y="600" type="curve"/>
      <point x="448" y="613"/>
      <point x="472" y="642"/>
      <point x="479" y="689" type="curve" smooth="yes"/>
      <point x="485" y="723" type="line" smooth="yes"/>
      <point x="486" y="733"/>
      <point x="487" y="742"/>
      <point x="487" y="750" type="curve" smooth="yes"/>
      <point x="486" y="814"/>
      <point x="442" y="846"/>
      <point x="366" y="846" type="curve" smooth="yes"/>
      <point x="301" y="846"/>
      <point x="240" y="839"/>
      <point x="178" y="829" type="curve"/>
    </contour>
  </outline>
</glyph>
<glyph name="paragraph" format="1">
  <advance width="573"/>
  <unicode hex="00B6"/>
  <note>
    GF Latin Plus glyph
  </note>
  <outline>
    <contour>
      <point x="201" y="479" type="curve" smooth="yes"/>
      <point x="216" y="575" type="line" smooth="yes"/>
      <point x="223" y="622"/>
      <point x="245" y="643"/>
      <point x="296" y="643" type="curve" smooth="yes"/>
      <point x="350" y="643" type="line"/>
      <point x="312" y="403" type="line"/>
      <point x="257" y="403" type="line" smooth="yes"/>
      <point x="226" y="403"/>
      <point x="197" y="409"/>
      <point x="197" y="449" type="curve" smooth="yes"/>
      <point x="197" y="454"/>
      <point x="198" y="464"/>
    </contour>
    <contour>
      <point x="102" y="466" type="line" smooth="yes"/>
      <point x="98" y="442"/>
      <point x="97" y="432"/>
      <point x="97" y="422" type="curve" smooth="yes"/>
      <point x="97" y="356"/>
      <point x="135" y="305"/>
      <point x="225" y="305" type="curve" smooth="yes"/>
      <point x="261" y="305"/>
      <point x="288" y="314"/>
      <point x="300" y="321" type="curve"/>
      <point x="206" y="-270" type="line"/>
      <point x="303" y="-270" type="line"/>
      <point x="448" y="643" type="line"/>
      <point x="518" y="643" type="line"/>
      <point x="416" y="0" type="line"/>
      <point x="513" y="0" type="line"/>
      <point x="615" y="641" type="line"/>
      <point x="675" y="641" type="line"/>
      <point x="691" y="740" type="line"/>
      <point x="304" y="740" type="line" smooth="yes"/>
      <point x="213" y="740"/>
      <point x="138" y="695"/>
      <point x="123" y="600" type="curve" smooth="yes"/>
    </contour>
  </outline>
</glyph>
<glyph name="periodcentered" format="1">
  <advance width="263"/>
  <unicode hex="00B7"/>
  <note>
    GF Latin Plus glyph
  </note>
  <outline>
    <contour>
      <point x="110" y="341" type="line" smooth="yes"/>
      <point x="108" y="329"/>
      <point x="116" y="321"/>
      <point x="128" y="321" type="curve" smooth="yes"/>
      <point x="214" y="321" type="line" smooth="yes"/>
      <point x="226" y="321"/>
      <point x="235" y="326"/>
      <point x="238" y="341" type="curve" smooth="yes"/>
      <point x="252" y="430" type="line" smooth="yes"/>
      <point x="255" y="443"/>
      <point x="250" y="451"/>
      <point x="234" y="451" type="curve" smooth="yes"/>
      <point x="148" y="451" type="line" smooth="yes"/>
      <point x="135" y="451"/>
      <point x="126" y="443"/>
      <point x="124" y="430" type="curve" smooth="yes"/>
    </contour>
  </outline>
</glyph>
<glyph name="ordmasculine" format="1">
  <advance width="427"/>
  <unicode hex="00BA"/>
  <note>
    GF Latin Plus glyph
  </note>
  <outline>
    <contour>
      <point x="71" y="254" type="line"/>
      <point x="427" y="254" type="line"/>
      <point x="438" y="324" type="line"/>
      <point x="82" y="324" type="line"/>
    </contour>
    <component base="o.superior" yOffset="80"/>
  </outline>
</glyph>
<glyph name="Thorn" format="1">
  <advance width="569"/>
  <unicode hex="00DE"/>
  <note>
    GF Latin Plus glyph
  </note>
  <outline>
    <contour>
      <point x="327" y="740" type="line"/>
      <point x="179" y="740" type="line"/>
      <point x="62" y="0" type="line"/>
      <point x="210" y="0" type="line"/>
    </contour>
    <contour>
      <point x="245" y="482" type="line"/>
      <point x="378" y="482" type="line" smooth="yes"/>
      <point x="430" y="482"/>
      <point x="459" y="464"/>
      <point x="459" y="414" type="curve" smooth="yes"/>
      <point x="459" y="405"/>
      <point x="456" y="385"/>
      <point x="453" y="367" type="curve" smooth="yes"/>
      <point x="444" y="304"/>
      <point x="402" y="273"/>
      <point x="347" y="273" type="curve" smooth="yes"/>
      <point x="220" y="273" type="line"/>
      <point x="203" y="161" type="line"/>
      <point x="249" y="152"/>
      <point x="308" y="140"/>
      <point x="367" y="140" type="curve" smooth="yes"/>
      <point x="466" y="140"/>
      <point x="576" y="189"/>
      <point x="601" y="351" type="curve" smooth="yes"/>
      <point x="605" y="374"/>
      <point x="610" y="409"/>
      <point x="610" y="428" type="curve" smooth="yes"/>
      <point x="610" y="573"/>
      <point x="520" y="615"/>
      <point x="406" y="615" type="curve" smooth="yes"/>
      <point x="266" y="615" type="line"/>
    </contour>
  </outline>
</glyph>
<glyph name="thorn" format="1">
  <advance width="575"/>
  <unicode hex="00FE"/>
  <note>
    GF Latin Plus glyph
  </note>
  <outline>
    <contour>
      <point x="15" y="-237" type="line"/>
      <point x="164" y="-237" type="line"/>
      <point x="204" y="15" type="line"/>
      <point x="233" y="0"/>
      <point x="276" y="-6"/>
      <point x="323" y="-6" type="curve" smooth="yes"/>
      <point x="452" y="-6"/>
      <point x="545" y="74"/>
      <point x="572" y="244" type="curve" smooth="yes"/>
      <point x="578" y="281"/>
      <point x="582" y="318"/>
      <point x="582" y="351" type="curve" smooth="yes"/>
      <point x="582" y="478"/>
      <point x="533" y="543"/>
      <point x="405" y="543" type="curve" smooth="yes"/>
      <point x="360" y="543"/>
      <point x="321" y="542"/>
      <point x="287" y="538" type="curve"/>
      <point x="323" y="763" type="line"/>
      <point x="174" y="763" type="line"/>
    </contour>
    <contour>
      <point x="222" y="134" type="curve"/>
      <point x="268" y="423" type="line"/>
      <point x="363" y="424" type="line" smooth="yes"/>
      <point x="414" y="424"/>
      <point x="436" y="391"/>
      <point x="436" y="326" type="curve" smooth="yes"/>
      <point x="436" y="308"/>
      <point x="433" y="289"/>
      <point x="431" y="272" type="curve" smooth="yes"/>
      <point x="413" y="164"/>
      <point x="376" y="120"/>
      <point x="304" y="120" type="curve" smooth="yes"/>
      <point x="270" y="120"/>
      <point x="249" y="124"/>
    </contour>
  </outline>
</glyph>
<glyph name="oe" format="1">
  <advance width="895"/>
  <unicode hex="0153"/>
  <note>
    GF Latin Plus glyph
  </note>
  <outline>
    <contour>
      <point x="852" y="16" type="curve"/>
      <point x="866" y="103" type="line"/>
      <point x="694" y="103" type="line" smooth="yes"/>
      <point x="608" y="103"/>
      <point x="568" y="125"/>
      <point x="568" y="177" type="curve" smooth="yes"/>
      <point x="568" y="188"/>
      <point x="569" y="202"/>
      <point x="571" y="213" type="curve"/>
      <point x="594" y="207"/>
      <point x="636" y="202"/>
      <point x="685" y="202" type="curve" smooth="yes"/>
      <point x="811" y="202"/>
      <point x="918" y="233"/>
      <point x="918" y="384" type="curve" smooth="yes"/>
      <point x="918" y="513"/>
      <point x="822" y="544"/>
      <point x="720" y="544" type="curve" smooth="yes"/>
      <point x="636" y="544"/>
      <point x="578" y="513"/>
      <point x="533" y="451" type="curve"/>
      <point x="499" y="511"/>
      <point x="445" y="543"/>
      <point x="365" y="543" type="curve" smooth="yes"/>
      <point x="197" y="543"/>
      <point x="117" y="498"/>
      <point x="83" y="283" type="curve" smooth="yes"/>
      <point x="78" y="250"/>
      <point x="75" y="219"/>
      <point x="75" y="181" type="curve" smooth="yes"/>
      <point x="75" y="56"/>
      <point x="145" y="-6"/>
      <point x="279" y="-6" type="curve" smooth="yes"/>
      <point x="374" y="-6"/>
      <point x="432" y="25"/>
      <point x="481" y="75" type="curve"/>
      <point x="510" y="22"/>
      <point x="561" y="-6"/>
      <point x="660" y="-6" type="curve" smooth="yes"/>
      <point x="725" y="-6"/>
      <point x="801" y="5"/>
    </contour>
    <contour>
      <point x="580" y="291" type="curve"/>
      <point x="595" y="381"/>
      <point x="627" y="431"/>
      <point x="703" y="431" type="curve" smooth="yes"/>
      <point x="755" y="431"/>
      <point x="780" y="410"/>
      <point x="780" y="368" type="curve" smooth="yes"/>
      <point x="780" y="309"/>
      <point x="741" y="285"/>
      <point x="647" y="285" type="curve" smooth="yes"/>
      <point x="624" y="285"/>
      <point x="599" y="288"/>
    </contour>
    <contour>
      <point x="228" y="261" type="curve" smooth="yes"/>
      <point x="248" y="397"/>
      <point x="274" y="427"/>
      <point x="353" y="427" type="curve" smooth="yes"/>
      <point x="411" y="427"/>
      <point x="435" y="408"/>
      <point x="435" y="354" type="curve" smooth="yes"/>
      <point x="435" y="328"/>
      <point x="431" y="299"/>
      <point x="426" y="261" type="curve" smooth="yes"/>
      <point x="406" y="139"/>
      <point x="376" y="113"/>
      <point x="302" y="113" type="curve" smooth="yes"/>
      <point x="250" y="113"/>
      <point x="222" y="130"/>
      <point x="222" y="188" type="curve" smooth="yes"/>
      <point x="222" y="209"/>
      <point x="224" y="232"/>
    </contour>
  </outline>
</glyph>
<glyph name="uhorn" format="1">
  <advance width="595"/>
  <unicode hex="01B0"/>
  <note>
    GF Latin Plus glyph
  </note>
  <outline>
    <contour>
      <point x="477" y="456" type="line"/>
      <point x="544" y="456" type="line" smooth="yes"/>
      <point x="631" y="456"/>
      <point x="700" y="520"/>
      <point x="721" y="647" type="curve"/>
      <point x="619" y="647" type="line"/>
      <point x="605" y="564"/>
      <point x="574" y="537"/>
      <point x="529" y="537" type="curve" smooth="yes"/>
      <point x="489" y="537" type="line"/>
    </contour>
    <component base="u"/>
    <contour>
      <point x="369" y="650" type="move" name="top"/>
    </contour>
    <contour>
      <point x="281" y="-150" type="move" name="bottom"/>
    </contour>
  </outline>
</glyph>
<glyph name="verticallinemod" format="1">
  <advance width="176"/>
  <unicode hex="02C8"/>
  <outline>
    <contour>
      <point x="110" y="503" type="line"/>
      <point x="226" y="503" type="line"/>
      <point x="267" y="763" type="line"/>
      <point x="151" y="763" type="line"/>
    </contour>
  </outline>
</glyph>
<glyph name="breve" format="1">
  <advance width="351"/>
  <unicode hex="02D8"/>
  <note>
    GF Latin Plus glyph
  </note>
  <outline>
    <contour>
      <point x="159" y="774" type="line"/>
      <point x="157" y="760"/>
      <point x="155" y="747"/>
      <point x="155" y="735" type="curve" smooth="yes"/>
      <point x="155" y="658"/>
      <point x="200" y="623"/>
      <point x="273" y="623" type="curve" smooth="yes"/>
      <point x="360" y="623"/>
      <point x="422" y="669"/>
      <point x="438" y="774" type="curve"/>
      <point x="367" y="774" type="line"/>
      <point x="358" y="712"/>
      <point x="324" y="691"/>
      <point x="283" y="691" type="curve" smooth="yes"/>
      <point x="253" y="691"/>
      <point x="225" y="707"/>
      <point x="225" y="752" type="curve" smooth="yes"/>
      <point x="225" y="758"/>
      <point x="226" y="766"/>
      <point x="227" y="774" type="curve"/>
    </contour>
  </outline>
</glyph>
<glyph name="dotaccent" format="1">
  <advance width="187"/>
  <unicode hex="02D9"/>
  <note>
    GF Latin Plus glyph
  </note>
  <outline>
    <contour>
      <point x="141" y="658" type="line" smooth="yes"/>
      <point x="141" y="657"/>
      <point x="141" y="655"/>
      <point x="141" y="654" type="curve" smooth="yes"/>
      <point x="141" y="644"/>
      <point x="148" y="637"/>
      <point x="159" y="637" type="curve" smooth="yes"/>
      <point x="227" y="637" type="line" smooth="yes"/>
      <point x="239" y="637"/>
      <point x="249" y="644"/>
      <point x="251" y="658" type="curve" smooth="yes"/>
      <point x="267" y="755" type="line" smooth="yes"/>
      <point x="267" y="757"/>
      <point x="267" y="759"/>
      <point x="267" y="760" type="curve" smooth="yes"/>
      <point x="267" y="770"/>
      <point x="261" y="777"/>
      <point x="249" y="777" type="curve" smooth="yes"/>
      <point x="181" y="777" type="line" smooth="yes"/>
      <point x="167" y="777"/>
      <point x="159" y="768"/>
      <point x="157" y="755" type="curve" smooth="yes"/>
    </contour>
  </outline>
</glyph>
<glyph name="tilde" format="1">
  <advance width="423"/>
  <unicode hex="02DC"/>
  <note>
    GF Latin Plus glyph
  </note>
  <outline>
    <contour>
      <point x="132" y="635" type="curve"/>
      <point x="206" y="635" type="line"/>
      <point x="212" y="658"/>
      <point x="229" y="677"/>
      <point x="254" y="677" type="curve" smooth="yes"/>
      <point x="291" y="677"/>
      <point x="340" y="636"/>
      <point x="397" y="636" type="curve" smooth="yes"/>
      <point x="460" y="636"/>
      <point x="498" y="675"/>
      <point x="520" y="764" type="curve"/>
      <point x="446" y="764" type="line"/>
      <point x="441" y="735"/>
      <point x="424" y="718"/>
      <point x="398" y="718" type="curve" smooth="yes"/>
      <point x="357" y="718"/>
      <point x="317" y="759"/>
      <point x="256" y="759" type="curve" smooth="yes"/>
      <point x="202" y="759"/>
      <point x="153" y="729"/>
    </contour>
  </outline>
</glyph>
<glyph name="Germandbls" format="1">
  <advance width="723"/>
  <unicode hex="1E9E"/>
  <note>
    GF Latin Plus glyph
  </note>
  <outline>
    <contour>
      <point x="511" y="377" type="line"/>
      <point x="718" y="614" type="line"/>
      <point x="736" y="729" type="line"/>
      <point x="552" y="611" type="line"/>
      <point x="383" y="412" type="line"/>
    </contour>
    <contour>
      <point x="364" y="293" type="line"/>
      <point x="493" y="293" type="line" smooth="yes"/>
      <point x="546" y="293"/>
      <point x="566" y="274"/>
      <point x="566" y="241" type="curve" smooth="yes"/>
      <point x="566" y="234"/>
      <point x="565" y="227"/>
      <point x="561" y="201" type="curve" smooth="yes"/>
      <point x="551" y="142"/>
      <point x="507" y="127"/>
      <point x="441" y="127" type="curve" smooth="yes"/>
      <point x="396" y="127"/>
      <point x="341" y="136"/>
      <point x="305" y="144" type="curve"/>
      <point x="284" y="12" type="line"/>
      <point x="325" y="2"/>
      <point x="395" y="-6"/>
      <point x="441" y="-6" type="curve" smooth="yes"/>
      <point x="580" y="-6"/>
      <point x="679" y="28"/>
      <point x="708" y="185" type="curve" smooth="yes"/>
      <point x="717" y="236"/>
      <point x="720" y="258"/>
      <point x="720" y="271" type="curve" smooth="yes"/>
      <point x="720" y="370"/>
      <point x="645" y="412"/>
      <point x="538" y="412" type="curve" smooth="yes"/>
      <point x="383" y="412" type="line"/>
    </contour>
    <contour>
      <point x="64" y="0" type="line"/>
      <point x="212" y="0" type="line"/>
      <point x="298" y="544" type="line" smooth="yes"/>
      <point x="305" y="583"/>
      <point x="331" y="607"/>
      <point x="377" y="607" type="curve" smooth="yes"/>
      <point x="647" y="607" type="line"/>
      <point x="736" y="729" type="line"/>
      <point x="667" y="734"/>
      <point x="505" y="740"/>
      <point x="393" y="740" type="curve" smooth="yes"/>
      <point x="277" y="740"/>
      <point x="172" y="687"/>
      <point x="149" y="541" type="curve" smooth="yes"/>
    </contour>
  </outline>
</glyph>
<glyph name="quoteleft" format="1">
  <advance width="224"/>
  <unicode hex="2018"/>
  <note>
    GF Latin Plus glyph
  </note>
  <outline>
    <contour>
      <point x="124" y="517" type="line" smooth="yes"/>
      <point x="124" y="515"/>
      <point x="123" y="513"/>
      <point x="123" y="511" type="curve" smooth="yes"/>
      <point x="123" y="500"/>
      <point x="128" y="493"/>
      <point x="141" y="493" type="curve" smooth="yes"/>
      <point x="232" y="493" type="line" smooth="yes"/>
      <point x="247" y="493"/>
      <point x="255" y="501"/>
      <point x="258" y="517" type="curve" smooth="yes"/>
      <point x="274" y="618" type="line" smooth="yes"/>
      <point x="274" y="619"/>
      <point x="274" y="621"/>
      <point x="274" y="622" type="curve" smooth="yes"/>
      <point x="274" y="634"/>
      <point x="266" y="640"/>
      <point x="255" y="640" type="curve" smooth="yes"/>
      <point x="245" y="640" type="line"/>
      <point x="250" y="669" type="line" smooth="yes"/>
      <point x="252" y="680"/>
      <point x="257" y="697"/>
      <point x="282" y="697" type="curve"/>
      <point x="291" y="751" type="line"/>
      <point x="283" y="754"/>
      <point x="276" y="755"/>
      <point x="258" y="755" type="curve" smooth="yes"/>
      <point x="219" y="755"/>
      <point x="160" y="742"/>
      <point x="148" y="670" type="curve" smooth="yes"/>
    </contour>
  </outline>
</glyph>
<glyph name="quoteright" format="1">
  <advance width="224"/>
  <unicode hex="2019"/>
  <note>
    GF Latin Plus glyph
  </note>
  <outline>
    <contour>
      <point x="142" y="630" type="line" smooth="yes"/>
      <point x="141" y="629"/>
      <point x="141" y="627"/>
      <point x="141" y="626" type="curve" smooth="yes"/>
      <point x="141" y="613"/>
      <point x="149" y="608"/>
      <point x="160" y="608" type="curve" smooth="yes"/>
      <point x="170" y="608" type="line"/>
      <point x="166" y="579" type="line" smooth="yes"/>
      <point x="163" y="568"/>
      <point x="159" y="551"/>
      <point x="133" y="551" type="curve"/>
      <point x="124" y="496" type="line"/>
      <point x="133" y="494"/>
      <point x="140" y="493"/>
      <point x="158" y="493" type="curve" smooth="yes"/>
      <point x="197" y="493"/>
      <point x="255" y="506"/>
      <point x="267" y="578" type="curve" smooth="yes"/>
      <point x="291" y="731" type="line" smooth="yes"/>
      <point x="291" y="733"/>
      <point x="292" y="735"/>
      <point x="292" y="737" type="curve" smooth="yes"/>
      <point x="292" y="748"/>
      <point x="287" y="755"/>
      <point x="275" y="755" type="curve" smooth="yes"/>
      <point x="183" y="755" type="line" smooth="yes"/>
      <point x="169" y="755"/>
      <point x="160" y="747"/>
      <point x="157" y="731" type="curve" smooth="yes"/>
    </contour>
  </outline>
</glyph>
<glyph name="dagger" format="1">
  <advance width="462"/>
  <unicode hex="2020"/>
  <note>
    GF Latin Plus glyph
  </note>
  <outline>
    <contour>
      <point x="86" y="448" type="line"/>
      <point x="225" y="435" type="line"/>
      <point x="154" y="-72" type="line"/>
      <point x="285" y="-72" type="line"/>
      <point x="377" y="435" type="line"/>
      <point x="518" y="448" type="line"/>
      <point x="536" y="560" type="line"/>
      <point x="398" y="572" type="line"/>
      <point x="419" y="770" type="line"/>
      <point x="288" y="770" type="line"/>
      <point x="246" y="572" type="line"/>
      <point x="104" y="560" type="line"/>
    </contour>
  </outline>
</glyph>
<glyph name="ellipsis" format="1">
  <advance width="816"/>
  <unicode hex="2026"/>
  <note>
    GF Latin Plus glyph
  </note>
  <outline>
    <contour>
      <point x="76" y="20" type="line" smooth="yes"/>
      <point x="75" y="19"/>
      <point x="75" y="18"/>
      <point x="75" y="17" type="curve" smooth="yes"/>
      <point x="75" y="6"/>
      <point x="82" y="0"/>
      <point x="93" y="0" type="curve" smooth="yes"/>
      <point x="178" y="0" type="line" smooth="yes"/>
      <point x="190" y="0"/>
      <point x="201" y="5"/>
      <point x="203" y="20" type="curve" smooth="yes"/>
      <point x="219" y="122" type="line" smooth="yes"/>
      <point x="220" y="124"/>
      <point x="220" y="126"/>
      <point x="220" y="128" type="curve" smooth="yes"/>
      <point x="220" y="138"/>
      <point x="214" y="144"/>
      <point x="201" y="144" type="curve" smooth="yes"/>
      <point x="116" y="144" type="line" smooth="yes"/>
      <point x="102" y="144"/>
      <point x="94" y="135"/>
      <point x="92" y="122" type="curve" smooth="yes"/>
    </contour>
    <contour>
      <point x="348" y="20" type="line" smooth="yes"/>
      <point x="347" y="19"/>
      <point x="347" y="18"/>
      <point x="347" y="17" type="curve" smooth="yes"/>
      <point x="347" y="6"/>
      <point x="354" y="0"/>
      <point x="365" y="0" type="curve" smooth="yes"/>
      <point x="450" y="0" type="line" smooth="yes"/>
      <point x="462" y="0"/>
      <point x="473" y="5"/>
      <point x="475" y="20" type="curve" smooth="yes"/>
      <point x="491" y="122" type="line" smooth="yes"/>
      <point x="492" y="124"/>
      <point x="492" y="126"/>
      <point x="492" y="128" type="curve" smooth="yes"/>
      <point x="492" y="138"/>
      <point x="486" y="144"/>
      <point x="473" y="144" type="curve" smooth="yes"/>
      <point x="388" y="144" type="line" smooth="yes"/>
      <point x="374" y="144"/>
      <point x="366" y="135"/>
      <point x="364" y="122" type="curve" smooth="yes"/>
    </contour>
    <contour>
      <point x="620" y="20" type="line" smooth="yes"/>
      <point x="619" y="19"/>
      <point x="619" y="18"/>
      <point x="619" y="17" type="curve" smooth="yes"/>
      <point x="619" y="6"/>
      <point x="626" y="0"/>
      <point x="637" y="0" type="curve" smooth="yes"/>
      <point x="722" y="0" type="line" smooth="yes"/>
      <point x="734" y="0"/>
      <point x="745" y="5"/>
      <point x="747" y="20" type="curve" smooth="yes"/>
      <point x="763" y="122" type="line" smooth="yes"/>
      <point x="764" y="124"/>
      <point x="764" y="126"/>
      <point x="764" y="128" type="curve" smooth="yes"/>
      <point x="764" y="138"/>
      <point x="758" y="144"/>
      <point x="745" y="144" type="curve" smooth="yes"/>
      <point x="660" y="144" type="line" smooth="yes"/>
      <point x="646" y="144"/>
      <point x="638" y="135"/>
      <point x="636" y="122" type="curve" smooth="yes"/>
    </contour>
  </outline>
</glyph>
<glyph name="minute" format="1">
  <advance width="194"/>
  <unicode hex="2032"/>
  <outline>
    <contour>
      <point x="99" y="446" type="line"/>
      <point x="202" y="446" type="line"/>
      <point x="293" y="763" type="line"/>
      <point x="159" y="763" type="line"/>
    </contour>
  </outline>
</glyph>
<glyph name="zerosuperior" format="1">
  <advance width="416"/>
  <unicode hex="2070"/>
  <outline>
    <contour>
      <point x="227" y="500" type="curve" smooth="yes"/>
      <point x="258" y="698" type="line" smooth="yes"/>
      <point x="263" y="728"/>
      <point x="278" y="742"/>
      <point x="305" y="742" type="curve" smooth="yes"/>
      <point x="346" y="742" type="line" smooth="yes"/>
      <point x="368" y="742"/>
      <point x="379" y="735"/>
      <point x="379" y="711" type="curve" smooth="yes"/>
      <point x="379" y="707"/>
      <point x="379" y="703"/>
      <point x="378" y="698" type="curve" smooth="yes"/>
      <point x="347" y="499" type="line" smooth="yes"/>
      <point x="342" y="468"/>
      <point x="325" y="456"/>
      <point x="297" y="456" type="curve" smooth="yes"/>
      <point x="264" y="456" type="line" smooth="yes"/>
      <point x="237" y="456"/>
      <point x="226" y="465"/>
      <point x="226" y="487" type="curve" smooth="yes"/>
      <point x="226" y="491"/>
      <point x="226" y="495"/>
    </contour>
    <contour>
      <point x="106" y="482" type="line" smooth="yes"/>
      <point x="104" y="470"/>
      <point x="103" y="460"/>
      <point x="103" y="451" type="curve" smooth="yes"/>
      <point x="103" y="388"/>
      <point x="141" y="351"/>
      <point x="219" y="351" type="curve" smooth="yes"/>
      <point x="312" y="351" type="line" smooth="yes"/>
      <point x="395" y="351"/>
      <point x="449" y="400"/>
      <point x="463" y="482" type="curve" smooth="yes"/>
      <point x="498" y="710" type="line" smooth="yes"/>
      <point x="500" y="722"/>
      <point x="502" y="734"/>
      <point x="502" y="744" type="curve" smooth="yes"/>
      <point x="502" y="809"/>
      <point x="464" y="846"/>
      <point x="392" y="846" type="curve" smooth="yes"/>
      <point x="297" y="846" type="line" smooth="yes"/>
      <point x="212" y="846"/>
      <point x="156" y="798"/>
      <point x="142" y="710" type="curve" smooth="yes"/>
    </contour>
  </outline>
</glyph>
<glyph name="foursuperior" format="1">
  <advance width="416"/>
  <unicode hex="2074"/>
  <outline>
    <contour>
      <point x="90" y="503" type="line"/>
      <point x="103" y="450" type="line"/>
      <point x="314" y="450" type="line"/>
      <point x="298" y="355" type="line"/>
      <point x="417" y="355" type="line"/>
      <point x="433" y="450" type="line"/>
      <point x="479" y="468" type="line"/>
      <point x="493" y="548" type="line"/>
      <point x="448" y="548" type="line"/>
      <point x="470" y="689" type="line"/>
      <point x="374" y="689" type="line"/>
      <point x="342" y="629" type="line"/>
      <point x="329" y="548" type="line"/>
      <point x="239" y="548" type="line"/>
      <point x="416" y="842" type="line"/>
      <point x="295" y="842" type="line"/>
    </contour>
  </outline>
</glyph>
<glyph name="fivesuperior" format="1">
  <advance width="416"/>
  <unicode hex="2075"/>
  <outline>
    <contour>
      <point x="105" y="364" type="line"/>
      <point x="159" y="358"/>
      <point x="222" y="351"/>
      <point x="274" y="351" type="curve" smooth="yes"/>
      <point x="388" y="351"/>
      <point x="452" y="387"/>
      <point x="465" y="476" type="curve" smooth="yes"/>
      <point x="477" y="548" type="line" smooth="yes"/>
      <point x="478" y="556"/>
      <point x="479" y="565"/>
      <point x="479" y="573" type="curve" smooth="yes"/>
      <point x="478" y="627"/>
      <point x="449" y="664"/>
      <point x="381" y="664" type="curve" smooth="yes"/>
      <point x="330" y="664" type="line" smooth="yes"/>
      <point x="305" y="664"/>
      <point x="281" y="660"/>
      <point x="265" y="648" type="curve"/>
      <point x="283" y="738" type="line"/>
      <point x="487" y="738" type="line"/>
      <point x="503" y="842" type="line"/>
      <point x="198" y="842" type="line"/>
      <point x="136" y="538" type="line"/>
      <point x="248" y="538" type="line"/>
      <point x="254" y="557"/>
      <point x="266" y="566"/>
      <point x="290" y="566" type="curve" smooth="yes"/>
      <point x="323" y="566" type="line" smooth="yes"/>
      <point x="347" y="566"/>
      <point x="356" y="556"/>
      <point x="356" y="540" type="curve" smooth="yes"/>
      <point x="356" y="536"/>
      <point x="356" y="529"/>
      <point x="354" y="522" type="curve" smooth="yes"/>
      <point x="349" y="490" type="line" smooth="yes"/>
      <point x="346" y="468"/>
      <point x="325" y="455"/>
      <point x="296" y="455" type="curve" smooth="yes"/>
      <point x="120" y="455" type="line"/>
    </contour>
  </outline>
</glyph>
<glyph name="sixsuperior" format="1">
  <advance width="416"/>
  <unicode hex="2076"/>
  <outline>
    <contour>
      <point x="243" y="558" type="curve"/>
      <point x="311" y="558" type="line" smooth="yes"/>
      <point x="335" y="558"/>
      <point x="350" y="552"/>
      <point x="350" y="532" type="curve" smooth="yes"/>
      <point x="350" y="528"/>
      <point x="350" y="523"/>
      <point x="349" y="518" type="curve" smooth="yes"/>
      <point x="345" y="491" type="line" smooth="yes"/>
      <point x="341" y="465"/>
      <point x="325" y="456"/>
      <point x="303" y="456" type="curve" smooth="yes"/>
      <point x="280" y="456" type="line" smooth="yes"/>
      <point x="251" y="456"/>
      <point x="238" y="468"/>
      <point x="238" y="508" type="curve" smooth="yes"/>
      <point x="238" y="521"/>
      <point x="240" y="539"/>
    </contour>
    <contour>
      <point x="120" y="488" type="curve" smooth="yes"/>
      <point x="121" y="382"/>
      <point x="165" y="351"/>
      <point x="246" y="351" type="curve" smooth="yes"/>
      <point x="315" y="351" type="line" smooth="yes"/>
      <point x="391" y="351"/>
      <point x="447" y="386"/>
      <point x="460" y="470" type="curve" smooth="yes"/>
      <point x="471" y="540" type="line" smooth="yes"/>
      <point x="473" y="551"/>
      <point x="474" y="562"/>
      <point x="474" y="571" type="curve" smooth="yes"/>
      <point x="474" y="622"/>
      <point x="446" y="656"/>
      <point x="360" y="656" type="curve" smooth="yes"/>
      <point x="313" y="656"/>
      <point x="285" y="653"/>
      <point x="256" y="643" type="curve"/>
      <point x="267" y="707"/>
      <point x="297" y="742"/>
      <point x="361" y="742" type="curve" smooth="yes"/>
      <point x="473" y="742" type="line"/>
      <point x="488" y="834" type="line"/>
      <point x="454" y="842"/>
      <point x="409" y="846"/>
      <point x="363" y="846" type="curve" smooth="yes"/>
      <point x="205" y="846"/>
      <point x="119" y="721"/>
    </contour>
  </outline>
</glyph>
<glyph name="sevensuperior" format="1">
  <advance width="416"/>
  <unicode hex="2077"/>
  <outline>
    <contour>
      <point x="147" y="726" type="line"/>
      <point x="344" y="726" type="line"/>
      <point x="149" y="355" type="line"/>
      <point x="279" y="355" type="line"/>
      <point x="506" y="794" type="line"/>
      <point x="484" y="842" type="line"/>
      <point x="165" y="842" type="line"/>
    </contour>
  </outline>
</glyph>
<glyph name="ninesuperior" format="1">
  <advance width="416"/>
  <unicode hex="2079"/>
  <outline>
    <contour>
      <point x="364" y="639" type="curve"/>
      <point x="302" y="639" type="line" smooth="yes"/>
      <point x="270" y="639"/>
      <point x="256" y="645"/>
      <point x="256" y="665" type="curve" smooth="yes"/>
      <point x="256" y="669"/>
      <point x="257" y="675"/>
      <point x="258" y="681" type="curve" smooth="yes"/>
      <point x="262" y="707" type="line" smooth="yes"/>
      <point x="266" y="732"/>
      <point x="281" y="741"/>
      <point x="302" y="741" type="curve" smooth="yes"/>
      <point x="327" y="741" type="line" smooth="yes"/>
      <point x="354" y="741"/>
      <point x="369" y="729"/>
      <point x="369" y="689" type="curve" smooth="yes"/>
      <point x="369" y="676"/>
      <point x="367" y="659"/>
    </contour>
    <contour>
      <point x="487" y="709" type="curve" smooth="yes"/>
      <point x="486" y="815"/>
      <point x="442" y="845"/>
      <point x="361" y="845" type="curve" smooth="yes"/>
      <point x="291" y="845" type="line" smooth="yes"/>
      <point x="216" y="845"/>
      <point x="160" y="812"/>
      <point x="146" y="727" type="curve" smooth="yes"/>
      <point x="136" y="657" type="line" smooth="yes"/>
      <point x="134" y="646"/>
      <point x="133" y="636"/>
      <point x="133" y="626" type="curve" smooth="yes"/>
      <point x="133" y="575"/>
      <point x="161" y="542"/>
      <point x="247" y="542" type="curve" smooth="yes"/>
      <point x="294" y="542"/>
      <point x="322" y="543"/>
      <point x="350" y="554" type="curve"/>
      <point x="339" y="490"/>
      <point x="310" y="455"/>
      <point x="246" y="455" type="curve" smooth="yes"/>
      <point x="134" y="455" type="line"/>
      <point x="118" y="364" type="line"/>
      <point x="153" y="355"/>
      <point x="198" y="351"/>
      <point x="244" y="351" type="curve" smooth="yes"/>
      <point x="402" y="351"/>
      <point x="488" y="477"/>
    </contour>
  </outline>
</glyph>
<glyph name="n.superior" format="1">
  <advance width="441"/>
  <unicode hex="207F"/>
  <note>
    GF Latin Plus glyph
  </note>
  <outline>
    <contour>
      <point x="81" y="280" type="line"/>
      <point x="204" y="280" type="line"/>
      <point x="245" y="533" type="line"/>
      <point x="266" y="550"/>
      <point x="292" y="562"/>
      <point x="321" y="562" type="curve" smooth="yes"/>
      <point x="352" y="562"/>
      <point x="364" y="550"/>
      <point x="364" y="530" type="curve" smooth="yes"/>
      <point x="364" y="524"/>
      <point x="363" y="513"/>
      <point x="359" y="488" type="curve" smooth="yes"/>
      <point x="327" y="280" type="line"/>
      <point x="449" y="280" type="line"/>
      <point x="483" y="492" type="line" smooth="yes"/>
      <point x="492" y="548"/>
      <point x="493" y="573"/>
      <point x="493" y="590" type="curve" smooth="yes"/>
      <point x="493" y="640"/>
      <point x="457" y="677"/>
      <point x="392" y="677" type="curve" smooth="yes"/>
      <point x="337" y="677"/>
      <point x="292" y="657"/>
      <point x="260" y="633" type="curve"/>
      <point x="245" y="672" type="line"/>
      <point x="143" y="672" type="line"/>
    </contour>
    <contour>
      <point x="333" y="753" type="move" name="top"/>
    </contour>
    <contour>
      <point x="241" y="170" type="move" name="bottom"/>
    </contour>
  </outline>
</glyph>
<glyph name="franc" format="1">
  <advance width="609"/>
  <unicode hex="20A3"/>
  <note>
    GF Latin Plus glyph
  </note>
  <outline>
    <contour>
      <point x="134" y="0" type="line"/>
      <point x="282" y="0" type="line"/>
      <point x="333" y="324" type="line"/>
      <point x="553" y="332" type="line"/>
      <point x="572" y="449" type="line"/>
      <point x="355" y="457" type="line"/>
      <point x="368" y="544" type="line" smooth="yes"/>
      <point x="374" y="578"/>
      <point x="398" y="603"/>
      <point x="439" y="603" type="curve" smooth="yes"/>
      <point x="643" y="603" type="line"/>
      <point x="663" y="727" type="line"/>
      <point x="599" y="736"/>
      <point x="454" y="740"/>
      <point x="420" y="740" type="curve" smooth="yes"/>
      <point x="341" y="741"/>
      <point x="245" y="704"/>
      <point x="225" y="578" type="curve" smooth="yes"/>
    </contour>
    <contour>
      <point x="76" y="120" type="line"/>
      <point x="152" y="112" type="line"/>
      <point x="300" y="112" type="line"/>
      <point x="499" y="120" type="line"/>
      <point x="516" y="222" type="line"/>
      <point x="318" y="230" type="line"/>
      <point x="170" y="230" type="line"/>
      <point x="93" y="222" type="line"/>
    </contour>
  </outline>
</glyph>
<glyph name="lira" format="1">
  <advance width="609"/>
  <unicode hex="20A4"/>
  <note>
    GF Latin Plus glyph
  </note>
  <outline>
    <contour>
      <point x="58" y="0" type="line"/>
      <point x="559" y="0" type="line"/>
      <point x="580" y="133" type="line"/>
      <point x="320" y="133" type="line"/>
      <point x="337" y="241" type="line"/>
      <point x="519" y="244" type="line"/>
      <point x="529" y="310" type="line"/>
      <point x="349" y="316" type="line"/>
      <point x="358" y="375" type="line"/>
      <point x="541" y="378" type="line"/>
      <point x="551" y="445" type="line"/>
      <point x="370" y="450" type="line"/>
      <point x="380" y="512" type="line" smooth="yes"/>
      <point x="393" y="592"/>
      <point x="426" y="612"/>
      <point x="495" y="612" type="curve" smooth="yes"/>
      <point x="652" y="612" type="line"/>
      <point x="671" y="731" type="line"/>
      <point x="634" y="737"/>
      <point x="577" y="744"/>
      <point x="510" y="744" type="curve" smooth="yes"/>
      <point x="345" y="744"/>
      <point x="259" y="682"/>
      <point x="232" y="511" type="curve" smooth="yes"/>
      <point x="222" y="450" type="line"/>
      <point x="128" y="445" type="line"/>
      <point x="118" y="378" type="line"/>
      <point x="210" y="375" type="line"/>
      <point x="202" y="323" type="line"/>
      <point x="110" y="317" type="line"/>
      <point x="99" y="250" type="line"/>
      <point x="189" y="247" type="line"/>
      <point x="172" y="133" type="line"/>
      <point x="76" y="113" type="line"/>
    </contour>
  </outline>
</glyph>
<glyph name="naira" format="1">
  <advance width="609"/>
  <unicode hex="20A6"/>
  <note>
    GF Latin Plus glyph
  </note>
  <outline>
    <contour>
      <point x="83" y="0" type="line"/>
      <point x="202" y="0" type="line"/>
      <point x="275" y="460" type="line"/>
      <point x="429" y="0" type="line"/>
      <point x="526" y="0" type="line"/>
      <point x="644" y="743" type="line"/>
      <point x="525" y="743" type="line"/>
      <point x="451" y="283" type="line"/>
      <point x="298" y="743" type="line"/>
      <point x="201" y="743" type="line"/>
    </contour>
    <contour>
      <point x="104" y="468" type="line"/>
      <point x="212" y="468" type="line"/>
      <point x="224" y="543" type="line"/>
      <point x="116" y="543" type="line"/>
    </contour>
    <contour>
      <point x="331" y="468" type="line"/>
      <point x="653" y="468" type="line"/>
      <point x="665" y="543" type="line"/>
      <point x="304" y="543" type="line"/>
    </contour>
    <contour>
      <point x="62" y="200" type="line"/>
      <point x="445" y="200" type="line"/>
      <point x="410" y="275" type="line"/>
      <point x="73" y="275" type="line"/>
    </contour>
    <contour>
      <point x="524" y="200" type="line"/>
      <point x="611" y="200" type="line"/>
      <point x="622" y="275" type="line"/>
      <point x="535" y="275" type="line"/>
    </contour>
  </outline>
</glyph>
<glyph name="guarani" format="1">
  <advance width="609"/>
  <unicode hex="20B2"/>
  <note>
    GF Latin Plus glyph
  </note>
  <outline>
    <contour>
      <point x="347" y="-88" type="line"/>
      <point x="487" y="793" type="line"/>
      <point x="420" y="793" type="line"/>
      <point x="280" y="-88" type="line"/>
    </contour>
    <contour>
      <point x="74" y="211" type="curve" smooth="yes"/>
      <point x="74" y="76"/>
      <point x="120" y="-5"/>
      <point x="256" y="-5" type="curve" smooth="yes"/>
      <point x="344" y="-5"/>
      <point x="426" y="25"/>
      <point x="471" y="50" type="curve"/>
      <point x="484" y="0" type="line"/>
      <point x="580" y="0" type="line"/>
      <point x="647" y="420" type="line"/>
      <point x="513" y="420" type="line"/>
      <point x="471" y="152" type="line"/>
      <point x="439" y="143"/>
      <point x="383" y="131"/>
      <point x="327" y="131" type="curve" smooth="yes"/>
      <point x="246" y="131"/>
      <point x="211" y="157"/>
      <point x="211" y="250" type="curve" smooth="yes"/>
      <point x="211" y="400"/>
      <point x="250" y="608"/>
      <point x="432" y="608" type="curve" smooth="yes"/>
      <point x="524" y="608"/>
      <point x="611" y="600"/>
      <point x="653" y="594" type="curve"/>
      <point x="671" y="709" type="line"/>
      <point x="597" y="728"/>
      <point x="529" y="741"/>
      <point x="427" y="741" type="curve" smooth="yes"/>
      <point x="142" y="741"/>
      <point x="74" y="449"/>
    </contour>
  </outline>
</glyph>
<glyph name="ruble" format="1">
  <advance width="609"/>
  <unicode hex="20BD"/>
  <note>
    GF Latin Plus glyph
  </note>
  <outline>
    <contour>
      <point x="194" y="101" type="line"/>
      <point x="502" y="101" type="line"/>
      <point x="514" y="176" type="line"/>
      <point x="213" y="176" type="line"/>
    </contour>
    <contour>
      <point x="29" y="101" type="line"/>
      <point x="185" y="101" type="line"/>
      <point x="197" y="176" type="line"/>
      <point x="40" y="176" type="line"/>
    </contour>
    <contour>
      <point x="298" y="391" type="line"/>
      <point x="332" y="607" type="line"/>
      <point x="420" y="607" type="line" smooth="yes"/>
      <point x="471" y="607"/>
      <point x="493" y="586"/>
      <point x="493" y="537" type="curve" smooth="yes"/>
      <point x="493" y="461"/>
      <point x="459" y="391"/>
      <point x="385" y="391" type="curve" smooth="yes"/>
    </contour>
    <contour>
      <point x="96" y="0" type="line"/>
      <point x="237" y="0" type="line"/>
      <point x="280" y="272" type="line"/>
      <point x="293" y="269"/>
      <point x="366" y="262"/>
      <point x="389" y="262" type="curve" smooth="yes"/>
      <point x="565" y="262"/>
      <point x="637" y="410"/>
      <point x="637" y="556" type="curve" smooth="yes"/>
      <point x="637" y="715"/>
      <point x="548" y="740"/>
      <point x="461" y="740" type="curve" smooth="yes"/>
      <point x="213" y="740" type="line"/>
    </contour>
    <contour>
      <point x="63" y="316" type="line"/>
      <point x="217" y="316" type="line"/>
      <point x="229" y="391" type="line"/>
      <point x="74" y="391" type="line"/>
    </contour>
  </outline>
</glyph>
<glyph name="numero" format="1">
  <advance width="1172"/>
  <unicode hex="2116"/>
  <note>
    GF Latin Plus glyph
  </note>
  <outline>
    <contour>
      <point x="69" y="0" type="line"/>
      <point x="218" y="0" type="line"/>
      <point x="308" y="570" type="line" smooth="yes"/>
      <point x="311" y="590"/>
      <point x="321" y="598"/>
      <point x="333" y="598" type="curve" smooth="yes"/>
      <point x="344" y="598"/>
      <point x="351" y="591"/>
      <point x="354" y="576" type="curve" smooth="yes"/>
      <point x="432" y="125" type="line" smooth="yes"/>
      <point x="447" y="36"/>
      <point x="494" y="-6"/>
      <point x="587" y="-6" type="curve" smooth="yes"/>
      <point x="664" y="-6"/>
      <point x="738" y="42"/>
      <point x="753" y="135" type="curve" smooth="yes"/>
      <point x="815" y="527" type="line" smooth="yes"/>
      <point x="829" y="617"/>
      <point x="865" y="635"/>
      <point x="921" y="635" type="curve" smooth="yes"/>
      <point x="1073" y="635" type="line" smooth="yes"/>
      <point x="1105" y="635"/>
      <point x="1125" y="622"/>
      <point x="1125" y="580" type="curve" smooth="yes"/>
      <point x="1125" y="531"/>
      <point x="1102" y="469"/>
      <point x="1056" y="469" type="curve" smooth="yes"/>
      <point x="1040" y="469" type="line" smooth="yes"/>
      <point x="1012" y="469"/>
      <point x="996" y="484"/>
      <point x="996" y="528" type="curve" smooth="yes"/>
      <point x="996" y="541"/>
      <point x="998" y="556"/>
      <point x="1001" y="574" type="curve"/>
      <point x="894" y="574" type="line"/>
      <point x="889" y="544"/>
      <point x="887" y="518"/>
      <point x="887" y="495" type="curve" smooth="yes"/>
      <point x="887" y="398"/>
      <point x="934" y="367"/>
      <point x="1021" y="367" type="curve" smooth="yes"/>
      <point x="1049" y="367" type="line" smooth="yes"/>
      <point x="1177" y="367"/>
      <point x="1240" y="493"/>
      <point x="1240" y="612" type="curve" smooth="yes"/>
      <point x="1240" y="705"/>
      <point x="1193" y="755"/>
      <point x="1098" y="755" type="curve" smooth="yes"/>
      <point x="917" y="755" type="line" smooth="yes"/>
      <point x="794" y="755"/>
      <point x="695" y="708"/>
      <point x="668" y="537" type="curve" smooth="yes"/>
      <point x="610" y="169" type="line" smooth="yes"/>
      <point x="607" y="152"/>
      <point x="598" y="142"/>
      <point x="584" y="142" type="curve" smooth="yes"/>
      <point x="573" y="142"/>
      <point x="567" y="150"/>
      <point x="564" y="162" type="curve" smooth="yes"/>
      <point x="487" y="616" type="line" smooth="yes"/>
      <point x="473" y="704"/>
      <point x="430" y="746"/>
      <point x="337" y="746" type="curve" smooth="yes"/>
      <point x="251" y="746"/>
      <point x="179" y="693"/>
      <point x="163" y="591" type="curve" smooth="yes"/>
    </contour>
  </outline>
</glyph>
<glyph name="estimated" format="1">
  <advance width="890"/>
  <unicode hex="212E"/>
  <outline>
    <contour>
      <point x="234" y="353" type="curve" smooth="yes"/>
      <point x="234" y="540" type="line" smooth="yes"/>
      <point x="234" y="572"/>
      <point x="343" y="673"/>
      <point x="489" y="673" type="curve" smooth="yes"/>
      <point x="605" y="673"/>
      <point x="747" y="594"/>
      <point x="747" y="536" type="curve" smooth="yes"/>
      <point x="747" y="350" type="line" smooth="yes"/>
      <point x="747" y="336"/>
      <point x="746" y="340"/>
      <point x="729" y="340" type="curve" smooth="yes"/>
      <point x="246" y="340" type="line" smooth="yes"/>
      <point x="239" y="340"/>
      <point x="234" y="340"/>
    </contour>
    <contour>
      <point x="86" y="327" type="curve" smooth="yes"/>
      <point x="86" y="219"/>
      <point x="123" y="132"/>
      <point x="197" y="62" type="curve" smooth="yes"/>
      <point x="271" y="-8"/>
      <point x="364" y="-41"/>
      <point x="490" y="-41" type="curve" smooth="yes"/>
      <point x="574" y="-41"/>
      <point x="615" y="-32"/>
      <point x="672" y="-10" type="curve" smooth="yes"/>
      <point x="726" y="12"/>
      <point x="772" y="50"/>
      <point x="823" y="105" type="curve"/>
      <point x="748" y="105" type="line"/>
      <point x="690" y="39"/>
      <point x="593" y="-13"/>
      <point x="490" y="-13" type="curve" smooth="yes"/>
      <point x="336" y="-13"/>
      <point x="234" y="80"/>
      <point x="234" y="117" type="curve" smooth="yes"/>
      <point x="234" y="301" type="line" smooth="yes"/>
      <point x="234" y="318"/>
      <point x="240" y="317"/>
      <point x="250" y="317" type="curve" smooth="yes"/>
      <point x="896" y="317" type="line"/>
      <point x="891" y="439"/>
      <point x="849" y="542"/>
      <point x="771" y="604" type="curve" smooth="yes"/>
      <point x="692" y="666"/>
      <point x="610" y="698"/>
      <point x="490" y="698" type="curve" smooth="yes"/>
      <point x="359" y="698"/>
      <point x="272" y="661"/>
      <point x="197" y="591" type="curve" smooth="yes"/>
      <point x="122" y="521"/>
      <point x="86" y="434"/>
    </contour>
  </outline>
</glyph>
<glyph name="emptyset" format="1">
  <advance width="609"/>
  <unicode hex="2205"/>
  <outline>
    <contour>
      <point x="602" y="616" type="line"/>
      <point x="49" y="-27" type="line"/>
      <point x="94" y="-72" type="line"/>
      <point x="646" y="572" type="line"/>
    </contour>
    <contour>
      <point x="246" y="221" type="curve" smooth="yes"/>
      <point x="246" y="314" type="line" smooth="yes"/>
      <point x="246" y="389"/>
      <point x="280" y="415"/>
      <point x="323" y="415" type="curve" smooth="yes"/>
      <point x="371" y="415" type="line" smooth="yes"/>
      <point x="415" y="415"/>
      <point x="449" y="389"/>
      <point x="449" y="314" type="curve" smooth="yes"/>
      <point x="449" y="221" type="line" smooth="yes"/>
      <point x="449" y="147"/>
      <point x="415" y="120"/>
      <point x="371" y="120" type="curve" smooth="yes"/>
      <point x="323" y="120" type="line" smooth="yes"/>
      <point x="280" y="120"/>
      <point x="246" y="147"/>
    </contour>
    <contour>
      <point x="97" y="226" type="line" smooth="yes"/>
      <point x="97" y="100"/>
      <point x="164" y="-6"/>
      <point x="313" y="-6" type="curve" smooth="yes"/>
      <point x="382" y="-6" type="line" smooth="yes"/>
      <point x="530" y="-6"/>
      <point x="597" y="100"/>
      <point x="597" y="226" type="curve" smooth="yes"/>
      <point x="597" y="310" type="line" smooth="yes"/>
      <point x="597" y="436"/>
      <point x="530" y="542"/>
      <point x="382" y="542" type="curve" smooth="yes"/>
      <point x="313" y="542" type="line" smooth="yes"/>
      <point x="164" y="542"/>
      <point x="97" y="436"/>
      <point x="97" y="310" type="curve" smooth="yes"/>
    </contour>
  </outline>
</glyph>
<glyph name="product" format="1">
  <advance width="635"/>
  <unicode hex="220F"/>
  <outline>
    <contour>
      <point x="85" y="0" type="line"/>
      <point x="233" y="0" type="line"/>
      <point x="329" y="607" type="line"/>
      <point x="496" y="607" type="line"/>
      <point x="400" y="0" type="line"/>
      <point x="548" y="0" type="line"/>
      <point x="644" y="607" type="line"/>
      <point x="716" y="607" type="line"/>
      <point x="738" y="740" type="line"/>
      <point x="131" y="740" type="line"/>
      <point x="109" y="607" type="line"/>
      <point x="181" y="607" type="line"/>
    </contour>
  </outline>
</glyph>
<glyph name="infinity" format="1">
  <advance width="665"/>
  <unicode hex="221E"/>
  <outline>
    <contour>
      <point x="454" y="341" type="curve"/>
      <point x="483" y="376"/>
      <point x="528" y="418"/>
      <point x="572" y="418" type="curve" smooth="yes"/>
      <point x="631" y="418"/>
      <point x="634" y="385"/>
      <point x="627" y="341" type="curve" smooth="yes"/>
      <point x="621" y="298"/>
      <point x="602" y="265"/>
      <point x="547" y="265" type="curve" smooth="yes"/>
      <point x="503" y="265"/>
      <point x="471" y="303"/>
    </contour>
    <contour>
      <point x="149" y="342" type="curve" smooth="yes"/>
      <point x="156" y="391"/>
      <point x="169" y="418"/>
      <point x="227" y="418" type="curve" smooth="yes"/>
      <point x="266" y="418"/>
      <point x="300" y="379"/>
      <point x="318" y="342" type="curve"/>
      <point x="294" y="311"/>
      <point x="251" y="265"/>
      <point x="203" y="265" type="curve" smooth="yes"/>
      <point x="151" y="265"/>
      <point x="142" y="294"/>
    </contour>
    <contour>
      <point x="45" y="357" type="curve" smooth="yes"/>
      <point x="30" y="265"/>
      <point x="52" y="169"/>
      <point x="179" y="169" type="curve" smooth="yes"/>
      <point x="257" y="169"/>
      <point x="316" y="198"/>
      <point x="372" y="273" type="curve"/>
      <point x="412" y="201"/>
      <point x="474" y="169"/>
      <point x="544" y="169" type="curve" smooth="yes"/>
      <point x="671" y="169"/>
      <point x="716" y="233"/>
      <point x="731" y="325" type="curve" smooth="yes"/>
      <point x="745" y="409"/>
      <point x="736" y="514"/>
      <point x="598" y="514" type="curve" smooth="yes"/>
      <point x="521" y="514"/>
      <point x="442" y="473"/>
      <point x="396" y="410" type="curve"/>
      <point x="361" y="470"/>
      <point x="309" y="514"/>
      <point x="232" y="514" type="curve" smooth="yes"/>
      <point x="93" y="514"/>
      <point x="59" y="444"/>
    </contour>
  </outline>
</glyph>
<glyph name="fi" format="1">
  <advance width="644"/>
  <unicode hex="FB01"/>
  <note>
    GF Latin Plus glyph
  </note>
  <outline>
    <contour>
      <point x="82" y="418" type="line"/>
      <point x="157" y="418" type="line"/>
      <point x="91" y="0" type="line"/>
      <point x="239" y="0" type="line"/>
      <point x="305" y="418" type="line"/>
      <point x="585" y="418" type="line"/>
      <point x="604" y="537" type="line"/>
      <point x="324" y="537" type="line"/>
      <point x="329" y="575" type="line" smooth="yes"/>
      <point x="335" y="629"/>
      <point x="356" y="651"/>
      <point x="410" y="651" type="curve" smooth="yes"/>
      <point x="487" y="651" type="line"/>
      <point x="504" y="760" type="line"/>
      <point x="474" y="765"/>
      <point x="429" y="769"/>
      <point x="383" y="769" type="curve" smooth="yes"/>
      <point x="261" y="769"/>
      <point x="206" y="718"/>
      <point x="189" y="616" type="curve" smooth="yes"/>
      <point x="175" y="537" type="line"/>
      <point x="97" y="513" type="line"/>
    </contour>
    <component base="i" xOffset="390"/>
  </outline>
</glyph>
<glyph name="f_f_l" format="1">
  <advance width="1102"/>
  <unicode hex="FB04"/>
  <outline>
    <contour>
      <point x="82" y="418" type="line"/>
      <point x="157" y="418" type="line"/>
      <point x="91" y="0" type="line"/>
      <point x="239" y="0" type="line"/>
      <point x="305" y="418" type="line"/>
      <point x="632" y="418" type="line"/>
      <point x="651" y="537" type="line"/>
      <point x="324" y="537" type="line"/>
      <point x="329" y="575" type="line" smooth="yes"/>
      <point x="335" y="629"/>
      <point x="356" y="651"/>
      <point x="410" y="651" type="curve" smooth="yes"/>
      <point x="487" y="651" type="line"/>
      <point x="504" y="760" type="line"/>
      <point x="474" y="765"/>
      <point x="429" y="769"/>
      <point x="383" y="769" type="curve" smooth="yes"/>
      <point x="261" y="769"/>
      <point x="206" y="718"/>
      <point x="189" y="616" type="curve" smooth="yes"/>
      <point x="175" y="537" type="line"/>
      <point x="97" y="513" type="line"/>
    </contour>
    <component base="fl" xOffset="390"/>
  </outline>
</glyph>
<glyph name="A.smcp" format="1">
  <advance width="587"/>
  <note>
    GF Latin Plus glyph
  </note>
  <outline>
    <contour>
      <point x="268" y="219" type="line"/>
      <point x="365" y="446" type="line"/>
      <point x="389" y="219" type="line"/>
    </contour>
    <contour>
      <point x="27" y="0" type="line"/>
      <point x="171" y="0" type="line"/>
      <point x="216" y="100" type="line"/>
      <point x="404" y="100" type="line"/>
      <point x="417" y="0" type="line"/>
      <point x="563" y="0" type="line"/>
      <point x="472" y="560" type="line"/>
      <point x="296" y="560" type="line"/>
    </contour>
    <contour>
      <point x="393" y="650" type="move" name="top"/>
    </contour>
    <contour>
      <point x="461" y="0" type="move" name="ogonek"/>
    </contour>
    <contour>
      <point x="271" y="-150" type="move" name="bottom"/>
    </contour>
  </outline>
</glyph>
<glyph name="AE.smcp" format="1">
  <advance width="823"/>
  <note>
    GF Latin Plus glyph
  </note>
  <outline>
    <contour>
      <point x="314" y="212" type="line"/>
      <point x="449" y="408" type="line"/>
      <point x="418" y="212" type="line"/>
    </contour>
    <contour>
      <point x="19" y="0" type="line"/>
      <point x="157" y="0" type="line"/>
      <point x="234" y="100" type="line"/>
      <point x="403" y="100" type="line"/>
      <point x="400" y="69" type="line" smooth="yes"/>
      <point x="401" y="13"/>
      <point x="443" y="-5"/>
      <point x="533" y="-4" type="curve" smooth="yes"/>
      <point x="572" y="-4"/>
      <point x="697" y="1"/>
      <point x="772" y="10" type="curve"/>
      <point x="790" y="120" type="line"/>
      <point x="590" y="120" type="line" smooth="yes"/>
      <point x="552" y="120"/>
      <point x="530" y="129"/>
      <point x="537" y="164" type="curve" smooth="yes"/>
      <point x="546" y="219" type="line"/>
      <point x="767" y="227" type="line"/>
      <point x="784" y="332" type="line"/>
      <point x="565" y="339" type="line"/>
      <point x="573" y="391" type="line" smooth="yes"/>
      <point x="579" y="427"/>
      <point x="587" y="437"/>
      <point x="631" y="437" type="curve" smooth="yes"/>
      <point x="839" y="437" type="line"/>
      <point x="857" y="548" type="line"/>
      <point x="776" y="556"/>
      <point x="672" y="560"/>
      <point x="622" y="560" type="curve" smooth="yes"/>
      <point x="514" y="560"/>
      <point x="403" y="537"/>
      <point x="319" y="419" type="curve" smooth="yes"/>
    </contour>
    <contour>
      <point x="551" y="650" type="move" name="top"/>
    </contour>
  </outline>
</glyph>
<glyph name="C.smcp" format="1">
  <advance width="497"/>
  <note>
    GF Latin Plus glyph
  </note>
  <outline>
    <contour>
      <point x="91" y="300" type="curve" smooth="yes"/>
      <point x="85" y="261"/>
      <point x="81" y="223"/>
      <point x="82" y="191" type="curve" smooth="yes"/>
      <point x="83" y="70"/>
      <point x="148" y="-5"/>
      <point x="287" y="-5" type="curve" smooth="yes"/>
      <point x="341" y="-5"/>
      <point x="403" y="0"/>
      <point x="457" y="18" type="curve"/>
      <point x="474" y="124" type="line"/>
      <point x="430" y="119"/>
      <point x="392" y="115"/>
      <point x="323" y="115" type="curve" smooth="yes"/>
      <point x="247" y="115"/>
      <point x="222" y="137"/>
      <point x="221" y="193" type="curve" smooth="yes"/>
      <point x="221" y="214"/>
      <point x="225" y="242"/>
      <point x="230" y="276" type="curve" smooth="yes"/>
      <point x="252" y="406"/>
      <point x="295" y="445"/>
      <point x="369" y="445" type="curve" smooth="yes"/>
      <point x="419" y="445"/>
      <point x="477" y="436"/>
      <point x="521" y="424" type="curve"/>
      <point x="538" y="529" type="line"/>
      <point x="503" y="545"/>
      <point x="439" y="565"/>
      <point x="342" y="565" type="curve" smooth="yes"/>
      <point x="187" y="565"/>
      <point x="117" y="475"/>
    </contour>
    <contour>
      <point x="375" y="650" type="move" name="top"/>
    </contour>
    <contour>
      <point x="254" y="-150" type="move" name="bottom"/>
    </contour>
  </outline>
</glyph>
<glyph name="D.smcp" format="1">
  <advance width="578"/>
  <note>
    GF Latin Plus glyph
  </note>
  <outline>
    <contour>
      <point x="219" y="120" type="line"/>
      <point x="269" y="440" type="line"/>
      <point x="343" y="440" type="line" smooth="yes"/>
      <point x="414" y="440"/>
      <point x="441" y="415"/>
      <point x="442" y="358" type="curve" smooth="yes"/>
      <point x="442" y="342"/>
      <point x="440" y="317"/>
      <point x="432" y="267" type="curve" smooth="yes"/>
      <point x="417" y="171"/>
      <point x="379" y="120"/>
      <point x="298" y="120" type="curve" smooth="yes"/>
    </contour>
    <contour>
      <point x="58" y="0" type="line"/>
      <point x="284" y="0" type="line" smooth="yes"/>
      <point x="453" y="0"/>
      <point x="546" y="70"/>
      <point x="576" y="261" type="curve" smooth="yes"/>
      <point x="582" y="297"/>
      <point x="584" y="332"/>
      <point x="584" y="365" type="curve" smooth="yes"/>
      <point x="584" y="479"/>
      <point x="539" y="560"/>
      <point x="377" y="560" type="curve" smooth="yes"/>
      <point x="147" y="560" type="line"/>
    </contour>
    <contour>
      <point x="374" y="650" type="move" name="top"/>
    </contour>
    <contour>
      <point x="239" y="-150" type="move" name="bottom"/>
    </contour>
  </outline>
</glyph>
<glyph name="E.smcp" format="1">
  <advance width="504"/>
  <note>
    GF Latin Plus glyph
  </note>
  <outline>
    <contour>
      <point x="78" y="127" type="line" smooth="yes"/>
      <point x="60" y="15"/>
      <point x="152" y="-4"/>
      <point x="210" y="-5" type="curve" smooth="yes"/>
      <point x="307" y="-5"/>
      <point x="372" y="1"/>
      <point x="449" y="8" type="curve"/>
      <point x="467" y="120" type="line"/>
      <point x="266" y="120" type="line" smooth="yes"/>
      <point x="233" y="120"/>
      <point x="221" y="134"/>
      <point x="225" y="164" type="curve" smooth="yes"/>
      <point x="234" y="221" type="line"/>
      <point x="443" y="228" type="line"/>
      <point x="460" y="333" type="line"/>
      <point x="253" y="341" type="line"/>
      <point x="260" y="390" type="line" smooth="yes"/>
      <point x="265" y="422"/>
      <point x="279" y="437"/>
      <point x="314" y="437" type="curve" smooth="yes"/>
      <point x="517" y="437" type="line"/>
      <point x="534" y="549" type="line"/>
      <point x="458" y="555"/>
      <point x="363" y="560"/>
      <point x="292" y="560" type="curve" smooth="yes"/>
      <point x="208" y="560"/>
      <point x="142" y="527"/>
      <point x="125" y="424" type="curve" smooth="yes"/>
    </contour>
    <contour>
      <point x="360" y="650" type="move" name="top"/>
    </contour>
    <contour>
      <point x="439" y="8" type="move" name="ogonek"/>
    </contour>
    <contour>
      <point x="226" y="-150" type="move" name="bottom"/>
    </contour>
  </outline>
</glyph>
<glyph name="F.smcp" format="1">
  <advance width="479"/>
  <note>
    GF Latin Plus glyph
  </note>
  <outline>
    <contour>
      <point x="58" y="0" type="line"/>
      <point x="199" y="0" type="line"/>
      <point x="231" y="201" type="line"/>
      <point x="441" y="208" type="line"/>
      <point x="457" y="313" type="line"/>
      <point x="250" y="319" type="line"/>
      <point x="260" y="391" type="line" smooth="yes"/>
      <point x="265" y="420"/>
      <point x="278" y="437"/>
      <point x="314" y="437" type="curve" smooth="yes"/>
      <point x="515" y="437" type="line"/>
      <point x="533" y="548" type="line"/>
      <point x="465" y="555"/>
      <point x="376" y="560"/>
      <point x="290" y="560" type="curve" smooth="yes"/>
      <point x="220" y="560"/>
      <point x="143" y="534"/>
      <point x="126" y="427" type="curve" smooth="yes"/>
    </contour>
    <contour>
      <point x="361" y="650" type="move" name="top"/>
    </contour>
  </outline>
</glyph>
<glyph name="G.smcp" format="1">
  <advance width="543"/>
  <note>
    GF Latin Plus glyph
  </note>
  <outline>
    <contour>
      <point x="91" y="307" type="curve" smooth="yes"/>
      <point x="85" y="263"/>
      <point x="78" y="218"/>
      <point x="79" y="173" type="curve" smooth="yes"/>
      <point x="80" y="51"/>
      <point x="122" y="-5"/>
      <point x="235" y="-5" type="curve" smooth="yes"/>
      <point x="279" y="-5"/>
      <point x="353" y="19"/>
      <point x="385" y="37" type="curve"/>
      <point x="398" y="0" type="line"/>
      <point x="503" y="0" type="line"/>
      <point x="555" y="327" type="line"/>
      <point x="537" y="328"/>
      <point x="488" y="329"/>
      <point x="461" y="329" type="curve" smooth="yes"/>
      <point x="401" y="329"/>
      <point x="355" y="323"/>
      <point x="328" y="321" type="curve"/>
      <point x="311" y="216" type="line"/>
      <point x="402" y="216" type="line"/>
      <point x="388" y="129" type="line"/>
      <point x="368" y="124"/>
      <point x="319" y="118"/>
      <point x="284" y="118" type="curve" smooth="yes"/>
      <point x="239" y="118"/>
      <point x="222" y="143"/>
      <point x="221" y="186" type="curve" smooth="yes"/>
      <point x="221" y="209"/>
      <point x="224" y="238"/>
      <point x="230" y="277" type="curve" smooth="yes"/>
      <point x="250" y="405"/>
      <point x="275" y="446"/>
      <point x="371" y="446" type="curve" smooth="yes"/>
      <point x="458" y="446"/>
      <point x="514" y="440"/>
      <point x="544" y="434" type="curve"/>
      <point x="561" y="538" type="line"/>
      <point x="512" y="553"/>
      <point x="454" y="565"/>
      <point x="352" y="565" type="curve" smooth="yes"/>
      <point x="204" y="565"/>
      <point x="119" y="481"/>
    </contour>
    <contour>
      <point x="376" y="650" type="move" name="top"/>
    </contour>
    <contour>
      <point x="242" y="-150" type="move" name="bottom"/>
    </contour>
  </outline>
</glyph>
<glyph name="J.smcp" format="1">
  <advance width="349"/>
  <note>
    GF Latin Plus glyph
  </note>
  <outline>
    <contour>
      <point x="38" y="12" type="line"/>
      <point x="61" y="3"/>
      <point x="102" y="-5"/>
      <point x="138" y="-5" type="curve" smooth="yes"/>
      <point x="247" y="-5"/>
      <point x="299" y="35"/>
      <point x="317" y="141" type="curve" smooth="yes"/>
      <point x="383" y="560" type="line"/>
      <point x="242" y="560" type="line"/>
      <point x="180" y="170" type="line" smooth="yes"/>
      <point x="174" y="136"/>
      <point x="156" y="119"/>
      <point x="110" y="116" type="curve" smooth="yes"/>
      <point x="104" y="116"/>
      <point x="62" y="115"/>
      <point x="55" y="118" type="curve"/>
    </contour>
    <contour>
      <point x="327" y="650" type="move" name="top"/>
    </contour>
  </outline>
</glyph>
<glyph name="L.smcp" format="1">
  <advance width="452"/>
  <note>
    GF Latin Plus glyph
  </note>
  <outline>
    <contour>
      <point x="81" y="145" type="line" smooth="yes"/>
      <point x="79" y="132"/>
      <point x="78" y="120"/>
      <point x="78" y="108" type="curve" smooth="yes"/>
      <point x="79" y="34"/>
      <point x="128" y="0"/>
      <point x="204" y="0" type="curve" smooth="yes"/>
      <point x="423" y="0" type="line"/>
      <point x="443" y="120" type="line"/>
      <point x="265" y="120" type="line" smooth="yes"/>
      <point x="238" y="120"/>
      <point x="224" y="130"/>
      <point x="224" y="151" type="curve" smooth="yes"/>
      <point x="224" y="157"/>
      <point x="224" y="163"/>
      <point x="226" y="173" type="curve" smooth="yes"/>
      <point x="288" y="560" type="line"/>
      <point x="147" y="560" type="line"/>
    </contour>
    <contour>
      <point x="233" y="650" type="move" name="top"/>
    </contour>
    <contour>
      <point x="323" y="471" type="move" name="altcaron"/>
    </contour>
    <contour>
      <point x="205" y="-150" type="move" name="bottom"/>
    </contour>
  </outline>
</glyph>
<glyph name="M.smcp" format="1">
  <advance width="738"/>
  <note>
    GF Latin Plus glyph
  </note>
  <outline>
    <contour>
      <point x="39" y="0" type="line"/>
      <point x="179" y="0" type="line"/>
      <point x="269" y="319" type="line"/>
      <point x="306" y="0" type="line"/>
      <point x="438" y="0" type="line"/>
      <point x="579" y="324" type="line"/>
      <point x="567" y="0" type="line"/>
      <point x="703" y="0" type="line"/>
      <point x="722" y="560" type="line"/>
      <point x="591" y="560" type="line"/>
      <point x="398" y="153" type="line"/>
      <point x="333" y="560" type="line"/>
      <point x="202" y="560" type="line"/>
    </contour>
    <contour>
      <point x="465" y="650" type="move" name="top"/>
    </contour>
    <contour>
      <point x="341" y="-150" type="move" name="bottom"/>
    </contour>
  </outline>
</glyph>
<glyph name="N.salt.smcp" format="1">
  <advance width="674"/>
  <outline>
    <contour>
      <point x="61" y="0" type="line"/>
      <point x="202" y="0" type="line"/>
      <point x="265" y="403" type="line" smooth="yes"/>
      <point x="268" y="423"/>
      <point x="276" y="428"/>
      <point x="286" y="428" type="curve" smooth="yes"/>
      <point x="294" y="428"/>
      <point x="299" y="423"/>
      <point x="301" y="409" type="curve" smooth="yes"/>
      <point x="349" y="108" type="line" smooth="yes"/>
      <point x="358" y="33"/>
      <point x="398" y="-5"/>
      <point x="473" y="-5" type="curve" smooth="yes"/>
      <point x="558" y="-5"/>
      <point x="621" y="26"/>
      <point x="636" y="124" type="curve" smooth="yes"/>
      <point x="706" y="560" type="line"/>
      <point x="565" y="560" type="line"/>
      <point x="499" y="145" type="line" smooth="yes"/>
      <point x="497" y="131"/>
      <point x="489" y="128"/>
      <point x="482" y="128" type="curve" smooth="yes"/>
      <point x="473" y="128"/>
      <point x="468" y="132"/>
      <point x="466" y="144" type="curve" smooth="yes"/>
      <point x="418" y="448" type="line" smooth="yes"/>
      <point x="410" y="515"/>
      <point x="376" y="564"/>
      <point x="291" y="564" type="curve" smooth="yes"/>
      <point x="207" y="564"/>
      <point x="144" y="531"/>
      <point x="129" y="429" type="curve" smooth="yes"/>
    </contour>
    <contour>
      <point x="468" y="643" type="move" name="top"/>
    </contour>
    <contour>
      <point x="325" y="-150" type="move" name="bottom"/>
    </contour>
  </outline>
</glyph>
<glyph name="Ohorn.smcp" format="1">
  <advance width="585"/>
  <outline>
    <component base="O.smcp"/>
    <component base="horncomb" xOffset="624" yOffset="23"/>
    <contour>
      <point x="395" y="650" type="move" name="top"/>
    </contour>
    <contour>
      <point x="271" y="-147" type="move" name="bottom"/>
    </contour>
  </outline>
</glyph>
<glyph name="Q.smcp" format="1">
  <advance width="585"/>
  <note>
    GF Latin Plus glyph
  </note>
  <outline>
    <contour>
      <point x="257" y="-30" type="line"/>
      <point x="258" y="-119"/>
      <point x="326" y="-155"/>
      <point x="412" y="-155" type="curve" smooth="yes"/>
      <point x="433" y="-155"/>
      <point x="448" y="-154"/>
      <point x="462" y="-151" type="curve"/>
      <point x="478" y="-55" type="line"/>
      <point x="457" y="-59"/>
      <point x="433" y="-63"/>
      <point x="411" y="-63" type="curve" smooth="yes"/>
      <point x="374" y="-63"/>
      <point x="357" y="-54"/>
      <point x="354" y="-30" type="curve"/>
    </contour>
    <component base="O.smcp"/>
  </outline>
</glyph>
<glyph name="R.smcp" format="1">
  <advance width="536"/>
  <note>
    GF Latin Plus glyph
  </note>
  <outline>
    <contour>
      <point x="248" y="304" type="line"/>
      <point x="269" y="440" type="line"/>
      <point x="347" y="440" type="line" smooth="yes"/>
      <point x="379" y="440"/>
      <point x="402" y="431"/>
      <point x="402" y="398" type="curve" smooth="yes"/>
      <point x="402" y="391"/>
      <point x="401" y="379"/>
      <point x="399" y="364" type="curve" smooth="yes"/>
      <point x="392" y="318"/>
      <point x="369" y="304"/>
      <point x="325" y="304" type="curve" smooth="yes"/>
    </contour>
    <contour>
      <point x="58" y="0" type="line"/>
      <point x="199" y="0" type="line"/>
      <point x="231" y="199" type="line"/>
      <point x="252" y="199"/>
      <point x="283" y="198"/>
      <point x="305" y="199" type="curve"/>
      <point x="361" y="0" type="line"/>
      <point x="504" y="0" type="line"/>
      <point x="433" y="220" type="line"/>
      <point x="468" y="235"/>
      <point x="528" y="264"/>
      <point x="543" y="367" type="curve" smooth="yes"/>
      <point x="546" y="385"/>
      <point x="547" y="402"/>
      <point x="547" y="416" type="curve" smooth="yes"/>
      <point x="546" y="518"/>
      <point x="484" y="560"/>
      <point x="377" y="560" type="curve" smooth="yes"/>
      <point x="147" y="560" type="line"/>
    </contour>
    <contour>
      <point x="353" y="650" type="move" name="top"/>
    </contour>
    <contour>
      <point x="230" y="-150" type="move" name="bottom"/>
    </contour>
  </outline>
</glyph>
<glyph name="S.smcp" format="1">
  <advance width="484"/>
  <note>
    GF Latin Plus glyph
  </note>
  <outline>
    <contour>
      <point x="58" y="16" type="line"/>
      <point x="100" y="6"/>
      <point x="168" y="-5"/>
      <point x="258" y="-5" type="curve" smooth="yes"/>
      <point x="409" y="-5"/>
      <point x="463" y="42"/>
      <point x="478" y="133" type="curve" smooth="yes"/>
      <point x="487" y="197"/>
      <point x="487" y="206"/>
      <point x="487" y="215" type="curve" smooth="yes"/>
      <point x="487" y="292"/>
      <point x="453" y="341"/>
      <point x="326" y="341" type="curve" smooth="yes"/>
      <point x="285" y="341" type="line" smooth="yes"/>
      <point x="253" y="341"/>
      <point x="239" y="351"/>
      <point x="239" y="373" type="curve" smooth="yes"/>
      <point x="239" y="379"/>
      <point x="239" y="384"/>
      <point x="244" y="404" type="curve" smooth="yes"/>
      <point x="250" y="437"/>
      <point x="268" y="445"/>
      <point x="313" y="445" type="curve" smooth="yes"/>
      <point x="365" y="445"/>
      <point x="439" y="442"/>
      <point x="497" y="438" type="curve"/>
      <point x="514" y="544" type="line"/>
      <point x="450" y="559"/>
      <point x="386" y="565"/>
      <point x="330" y="565" type="curve" smooth="yes"/>
      <point x="207" y="565"/>
      <point x="128" y="525"/>
      <point x="111" y="417" type="curve" smooth="yes"/>
      <point x="103" y="362"/>
      <point x="102" y="352"/>
      <point x="102" y="342" type="curve" smooth="yes"/>
      <point x="102" y="266"/>
      <point x="158" y="215"/>
      <point x="252" y="215" type="curve" smooth="yes"/>
      <point x="290" y="215" type="line" smooth="yes"/>
      <point x="332" y="215"/>
      <point x="351" y="207"/>
      <point x="351" y="185" type="curve" smooth="yes"/>
      <point x="351" y="181"/>
      <point x="350" y="174"/>
      <point x="346" y="153" type="curve" smooth="yes"/>
      <point x="341" y="124"/>
      <point x="319" y="115"/>
      <point x="254" y="115" type="curve" smooth="yes"/>
      <point x="193" y="115"/>
      <point x="124" y="117"/>
      <point x="75" y="121" type="curve"/>
    </contour>
    <contour>
      <point x="341" y="650" type="move" name="top"/>
    </contour>
    <contour>
      <point x="218" y="-150" type="move" name="bottom"/>
    </contour>
  </outline>
</glyph>
<glyph name="Schwa.smcp" format="1">
  <advance width="535"/>
  <note>
    GF Latin Plus glyph
  </note>
  <outline>
    <contour>
      <point x="262" y="-5" type="curve" smooth="yes"/>
      <point x="393" y="-5"/>
      <point x="500" y="46"/>
      <point x="537" y="279" type="curve" smooth="yes"/>
      <point x="542" y="317"/>
      <point x="545" y="350"/>
      <point x="545" y="379" type="curve" smooth="yes"/>
      <point x="543" y="527"/>
      <point x="455" y="565"/>
      <point x="329" y="565" type="curve" smooth="yes"/>
      <point x="252" y="565"/>
      <point x="195" y="554"/>
      <point x="157" y="542" type="curve"/>
      <point x="141" y="439" type="line"/>
      <point x="167" y="442"/>
      <point x="208" y="446"/>
      <point x="289" y="446" type="curve" smooth="yes"/>
      <point x="359" y="446"/>
      <point x="405" y="431"/>
      <point x="405" y="369" type="curve" smooth="yes"/>
      <point x="405" y="360"/>
      <point x="404" y="343"/>
      <point x="402" y="329" type="curve"/>
      <point x="95" y="329" type="line"/>
      <point x="86" y="276" type="line" smooth="yes"/>
      <point x="78" y="224"/>
      <point x="76" y="194"/>
      <point x="76" y="171" type="curve" smooth="yes"/>
      <point x="77" y="45"/>
      <point x="150" y="-5"/>
    </contour>
    <contour>
      <point x="279" y="115" type="curve" smooth="yes"/>
      <point x="232" y="115"/>
      <point x="217" y="140"/>
      <point x="216" y="182" type="curve" smooth="yes"/>
      <point x="216" y="195"/>
      <point x="217" y="208"/>
      <point x="220" y="223" type="curve"/>
      <point x="383" y="223" type="line"/>
      <point x="364" y="137"/>
      <point x="326" y="115"/>
    </contour>
  </outline>
</glyph>
<glyph name="Thorn.smcp" format="1">
  <advance width="486"/>
  <note>
    GF Latin Plus glyph
  </note>
  <outline>
    <contour>
      <point x="288" y="560" type="line"/>
      <point x="147" y="560" type="line"/>
      <point x="58" y="0" type="line"/>
      <point x="199" y="0" type="line"/>
    </contour>
    <contour>
      <point x="216" y="351" type="line"/>
      <point x="313" y="351" type="line" smooth="yes"/>
      <point x="348" y="351"/>
      <point x="367" y="339"/>
      <point x="368" y="309" type="curve" smooth="yes"/>
      <point x="368" y="303"/>
      <point x="366" y="289"/>
      <point x="364" y="276" type="curve" smooth="yes"/>
      <point x="358" y="241"/>
      <point x="333" y="218"/>
      <point x="295" y="218" type="curve" smooth="yes"/>
      <point x="203" y="218" type="line"/>
      <point x="187" y="117" type="line"/>
      <point x="221" y="109"/>
      <point x="268" y="98"/>
      <point x="316" y="98" type="curve" smooth="yes"/>
      <point x="397" y="98"/>
      <point x="485" y="139"/>
      <point x="504" y="261" type="curve" smooth="yes"/>
      <point x="507" y="280"/>
      <point x="511" y="306"/>
      <point x="511" y="322" type="curve" smooth="yes"/>
      <point x="510" y="437"/>
      <point x="434" y="469"/>
      <point x="339" y="469" type="curve" smooth="yes"/>
      <point x="235" y="469" type="line"/>
    </contour>
  </outline>
</glyph>
<glyph name="U.smcp" format="1">
  <advance width="578"/>
  <note>
    GF Latin Plus glyph
  </note>
  <outline>
    <contour>
      <point x="99" y="262" type="line" smooth="yes"/>
      <point x="94" y="228"/>
      <point x="89" y="195"/>
      <point x="90" y="169" type="curve" smooth="yes"/>
      <point x="91" y="47"/>
      <point x="159" y="-5"/>
      <point x="291" y="-5" type="curve" smooth="yes"/>
      <point x="440" y="-5"/>
      <point x="525" y="29"/>
      <point x="556" y="221" type="curve" smooth="yes"/>
      <point x="609" y="560" type="line"/>
      <point x="468" y="560" type="line"/>
      <point x="418" y="241" type="line" smooth="yes"/>
      <point x="402" y="140"/>
      <point x="371" y="115"/>
      <point x="306" y="115" type="curve" smooth="yes"/>
      <point x="253" y="115"/>
      <point x="231" y="136"/>
      <point x="231" y="180" type="curve" smooth="yes"/>
      <point x="231" y="197"/>
      <point x="234" y="219"/>
      <point x="238" y="241" type="curve" smooth="yes"/>
      <point x="288" y="560" type="line"/>
      <point x="147" y="560" type="line"/>
    </contour>
    <contour>
      <point x="386" y="650" type="move" name="top"/>
    </contour>
    <contour>
      <point x="360" y="0" type="move" name="ogonek"/>
    </contour>
    <contour>
      <point x="259" y="-150" type="move" name="bottom"/>
    </contour>
  </outline>
</glyph>
<glyph name="W.salt" format="1">
  <advance width="1035"/>
  <outline>
    <contour>
      <point x="134" y="740" type="line"/>
      <point x="225" y="0" type="line"/>
      <point x="418" y="0" type="line"/>
      <point x="567" y="299" type="line"/>
      <point x="624" y="0" type="line"/>
      <point x="817" y="0" type="line"/>
      <point x="1136" y="740" type="line"/>
      <point x="984" y="740" type="line"/>
      <point x="738" y="168" type="line"/>
      <point x="673" y="522" type="line"/>
      <point x="765" y="740" type="line"/>
      <point x="612" y="740" type="line"/>
      <point x="361" y="168" type="line"/>
      <point x="288" y="740" type="line"/>
    </contour>
    <contour>
      <point x="659" y="810" type="move" name="top"/>
    </contour>
  </outline>
</glyph>
<glyph name="W.salt.smcp" format="1">
  <advance width="860"/>
  <outline>
    <contour>
      <point x="108" y="560" type="line"/>
      <point x="177" y="0" type="line"/>
      <point x="361" y="0" type="line"/>
      <point x="466" y="217" type="line"/>
      <point x="507" y="0" type="line"/>
      <point x="690" y="0" type="line"/>
      <point x="929" y="560" type="line"/>
      <point x="785" y="560" type="line"/>
      <point x="613" y="151" type="line"/>
      <point x="564" y="403" type="line"/>
      <point x="629" y="560" type="line"/>
      <point x="484" y="560" type="line"/>
      <point x="305" y="151" type="line"/>
      <point x="255" y="560" type="line"/>
    </contour>
    <contour>
      <point x="544" y="650" type="move" name="top"/>
    </contour>
  </outline>
</glyph>
<glyph name="W.smcp" format="1">
  <advance width="858"/>
  <note>
    GF Latin Plus glyph
  </note>
  <outline>
    <contour>
      <point x="116" y="560" type="line"/>
      <point x="167" y="0" type="line"/>
      <point x="310" y="0" type="line"/>
      <point x="473" y="362" type="line"/>
      <point x="525" y="0" type="line"/>
      <point x="667" y="0" type="line"/>
      <point x="893" y="560" type="line"/>
      <point x="747" y="560" type="line"/>
      <point x="609" y="199" type="line"/>
      <point x="568" y="560" type="line"/>
      <point x="440" y="560" type="line"/>
      <point x="288" y="199" type="line"/>
      <point x="261" y="560" type="line"/>
    </contour>
    <contour>
      <point x="525" y="650" type="move" name="top"/>
    </contour>
  </outline>
</glyph>
<glyph name="X.salt.smcp" format="1">
  <advance width="593"/>
  <outline>
    <contour>
      <point x="20" y="0" type="line"/>
      <point x="173" y="0" type="line"/>
      <point x="295" y="187" type="line" smooth="yes"/>
      <point x="320" y="224"/>
      <point x="333" y="273"/>
      <point x="333" y="318" type="curve" smooth="yes"/>
      <point x="333" y="339"/>
      <point x="330" y="359"/>
      <point x="316" y="394" type="curve" smooth="yes"/>
      <point x="254" y="560" type="line"/>
      <point x="109" y="560" type="line"/>
      <point x="179" y="349" type="line" smooth="yes"/>
      <point x="185" y="333"/>
      <point x="188" y="315"/>
      <point x="188" y="301" type="curve" smooth="yes"/>
      <point x="188" y="270"/>
      <point x="180" y="247"/>
      <point x="160" y="216" type="curve" smooth="yes"/>
    </contour>
    <contour>
      <point x="420" y="0" type="line"/>
      <point x="573" y="0" type="line"/>
      <point x="502" y="215" type="line" smooth="yes"/>
      <point x="497" y="231"/>
      <point x="493" y="246"/>
      <point x="493" y="261" type="curve" smooth="yes"/>
      <point x="493" y="290"/>
      <point x="504" y="316"/>
      <point x="523" y="346" type="curve" smooth="yes"/>
      <point x="662" y="560" type="line"/>
      <point x="517" y="560" type="line"/>
      <point x="395" y="386" type="line" smooth="yes"/>
      <point x="363" y="339"/>
      <point x="349" y="289"/>
      <point x="349" y="243" type="curve" smooth="yes"/>
      <point x="349" y="223"/>
      <point x="352" y="203"/>
      <point x="358" y="186" type="curve" smooth="yes"/>
    </contour>
    <contour>
      <point x="401" y="650" type="move" name="top"/>
    </contour>
    <contour>
      <point x="270" y="-150" type="move" name="bottom"/>
    </contour>
  </outline>
</glyph>
<glyph name="Y.smcp" format="1">
  <advance width="546"/>
  <note>
    GF Latin Plus glyph
  </note>
  <outline>
    <contour>
      <point x="110" y="560" type="line"/>
      <point x="222" y="155" type="line"/>
      <point x="198" y="0" type="line"/>
      <point x="339" y="0" type="line"/>
      <point x="363" y="155" type="line"/>
      <point x="613" y="560" type="line"/>
      <point x="454" y="560" type="line"/>
      <point x="315" y="299" type="line"/>
      <point x="264" y="560" type="line"/>
    </contour>
    <contour>
      <point x="374" y="650" type="move" name="top"/>
    </contour>
    <contour>
      <point x="244" y="-150" type="move" name="bottom"/>
    </contour>
  </outline>
</glyph>
<glyph name="a.superior" format="1">
  <advance width="425"/>
  <note>
    GF Latin Plus glyph
  </note>
  <outline>
    <contour>
      <point x="226" y="487" type="curve" smooth="yes"/>
      <point x="237" y="541"/>
      <point x="256" y="574"/>
      <point x="309" y="574" type="curve" smooth="yes"/>
      <point x="330" y="574"/>
      <point x="347" y="570"/>
      <point x="356" y="567" type="curve"/>
      <point x="329" y="401" type="line"/>
      <point x="312" y="390"/>
      <point x="291" y="378"/>
      <point x="263" y="378" type="curve" smooth="yes"/>
      <point x="231" y="378"/>
      <point x="218" y="402"/>
      <point x="218" y="432" type="curve" smooth="yes"/>
      <point x="218" y="445"/>
      <point x="221" y="466"/>
    </contour>
    <contour>
      <point x="104" y="495" type="curve" smooth="yes"/>
      <point x="101" y="475"/>
      <point x="95" y="441"/>
      <point x="95" y="412" type="curve" smooth="yes"/>
      <point x="95" y="316"/>
      <point x="144" y="276"/>
      <point x="202" y="276" type="curve" smooth="yes"/>
      <point x="247" y="276"/>
      <point x="296" y="299"/>
      <point x="316" y="319" type="curve"/>
      <point x="324" y="280" type="line"/>
      <point x="434" y="280" type="line"/>
      <point x="489" y="629" type="line"/>
      <point x="453" y="656"/>
      <point x="387" y="676"/>
      <point x="316" y="676" type="curve" smooth="yes"/>
      <point x="187" y="676"/>
      <point x="123" y="616"/>
    </contour>
    <contour>
      <point x="325" y="753" type="move" name="top"/>
    </contour>
    <contour>
      <point x="426" y="280" type="move" name="ogonek"/>
    </contour>
    <contour>
      <point x="234" y="170" type="move" name="bottom"/>
    </contour>
  </outline>
</glyph>
<glyph name="ampersand.smcp" format="1">
  <advance width="591"/>
  <note>
    GF Latin Plus glyph
  </note>
  <outline>
    <contour>
      <point x="243" y="115" type="curve" smooth="yes"/>
      <point x="212" y="115"/>
      <point x="198" y="133"/>
      <point x="198" y="158" type="curve" smooth="yes"/>
      <point x="197" y="187"/>
      <point x="207" y="206"/>
      <point x="240" y="225" type="curve" smooth="yes"/>
      <point x="262" y="239" type="line"/>
      <point x="319" y="151" type="line"/>
      <point x="304" y="139" type="line" smooth="yes"/>
      <point x="280" y="119"/>
      <point x="262" y="115"/>
    </contour>
    <contour>
      <point x="199" y="-5" type="curve" smooth="yes"/>
      <point x="255" y="-5"/>
      <point x="297" y="9"/>
      <point x="341" y="41" type="curve" smooth="yes"/>
      <point x="376" y="66" type="line"/>
      <point x="422" y="0" type="line"/>
      <point x="566" y="0" type="line"/>
      <point x="483" y="132" type="line"/>
      <point x="530" y="171" type="line"/>
      <point x="590" y="259" type="line"/>
      <point x="549" y="319" type="line"/>
      <point x="421" y="225" type="line"/>
      <point x="350" y="344" type="line" smooth="yes"/>
      <point x="331" y="372"/>
      <point x="322" y="391"/>
      <point x="322" y="405" type="curve" smooth="yes"/>
      <point x="322" y="432"/>
      <point x="341" y="440"/>
      <point x="369" y="440" type="curve" smooth="yes"/>
      <point x="489" y="440" type="line"/>
      <point x="504" y="537" type="line"/>
      <point x="476" y="545"/>
      <point x="416" y="557"/>
      <point x="360" y="557" type="curve" smooth="yes"/>
      <point x="235" y="557"/>
      <point x="182" y="493"/>
      <point x="183" y="420" type="curve" smooth="yes"/>
      <point x="183" y="398"/>
      <point x="186" y="372"/>
      <point x="205" y="338" type="curve" smooth="yes"/>
      <point x="212" y="324" type="line"/>
      <point x="162" y="298" type="line" smooth="yes"/>
      <point x="89" y="257"/>
      <point x="56" y="207"/>
      <point x="56" y="134" type="curve" smooth="yes"/>
      <point x="57" y="48"/>
      <point x="114" y="-5"/>
    </contour>
  </outline>
</glyph>
<glyph name="at.smcp" format="1">
  <advance width="774"/>
  <note>
    GF Latin Plus glyph
  </note>
  <outline>
    <contour>
      <point x="438" y="319" type="curve" smooth="yes"/>
      <point x="456" y="319"/>
      <point x="474" y="315"/>
      <point x="494" y="307" type="curve"/>
      <point x="468" y="135" type="line"/>
      <point x="446" y="116"/>
      <point x="415" y="103"/>
      <point x="383" y="103" type="curve" smooth="yes"/>
      <point x="355" y="103"/>
      <point x="334" y="121"/>
      <point x="333" y="164" type="curve" smooth="yes"/>
      <point x="333" y="254"/>
      <point x="377" y="319"/>
    </contour>
    <contour>
      <point x="52" y="41" type="line" smooth="yes"/>
      <point x="50" y="25"/>
      <point x="49" y="10"/>
      <point x="49" y="-4" type="curve" smooth="yes"/>
      <point x="50" y="-81"/>
      <point x="90" y="-149"/>
      <point x="225" y="-149" type="curve" smooth="yes"/>
      <point x="296" y="-149" type="line" smooth="yes"/>
      <point x="396" y="-149"/>
      <point x="489" y="-137"/>
      <point x="529" y="-130" type="curve"/>
      <point x="541" y="-56" type="line"/>
      <point x="232" y="-56" type="line" smooth="yes"/>
      <point x="176" y="-56"/>
      <point x="157" y="-29"/>
      <point x="156" y="3" type="curve" smooth="yes"/>
      <point x="156" y="12"/>
      <point x="158" y="23"/>
      <point x="161" y="39" type="curve" smooth="yes"/>
      <point x="213" y="366" type="line" smooth="yes"/>
      <point x="219" y="411"/>
      <point x="236" y="461"/>
      <point x="314" y="461" type="curve" smooth="yes"/>
      <point x="592" y="461" type="line" smooth="yes"/>
      <point x="640" y="461"/>
      <point x="676" y="442"/>
      <point x="676" y="399" type="curve" smooth="yes"/>
      <point x="676" y="389"/>
      <point x="675" y="379"/>
      <point x="673" y="366" type="curve" smooth="yes"/>
      <point x="642" y="167" type="line" smooth="yes"/>
      <point x="633" y="107"/>
      <point x="606" y="95"/>
      <point x="569" y="95" type="curve"/>
      <point x="610" y="361" type="line"/>
      <point x="570" y="392"/>
      <point x="521" y="412"/>
      <point x="448" y="412" type="curve" smooth="yes"/>
      <point x="324" y="412"/>
      <point x="226" y="312"/>
      <point x="227" y="142" type="curve" smooth="yes"/>
      <point x="228" y="46"/>
      <point x="276" y="2"/>
      <point x="345" y="2" type="curve" smooth="yes"/>
      <point x="400" y="2"/>
      <point x="445" y="38"/>
      <point x="459" y="55" type="curve"/>
      <point x="481" y="7" type="line"/>
      <point x="566" y="7" type="line" smooth="yes"/>
      <point x="672" y="7"/>
      <point x="735" y="55"/>
      <point x="749" y="147" type="curve" smooth="yes"/>
      <point x="779" y="353" type="line" smooth="yes"/>
      <point x="782" y="372"/>
      <point x="783" y="391"/>
      <point x="783" y="410" type="curve" smooth="yes"/>
      <point x="783" y="493"/>
      <point x="730" y="555"/>
      <point x="623" y="555" type="curve" smooth="yes"/>
      <point x="335" y="555" type="line" smooth="yes"/>
      <point x="213" y="555"/>
      <point x="130" y="527"/>
      <point x="108" y="393" type="curve" smooth="yes"/>
    </contour>
  </outline>
</glyph>
<glyph name="b.superior" format="1">
  <advance width="435"/>
  <note>
    GF Latin Plus glyph
  </note>
  <outline>
    <contour>
      <point x="223" y="397" type="curve"/>
      <point x="249" y="560" type="line"/>
      <point x="274" y="569"/>
      <point x="297" y="574"/>
      <point x="319" y="574" type="curve" smooth="yes"/>
      <point x="344" y="574"/>
      <point x="365" y="561"/>
      <point x="365" y="516" type="curve" smooth="yes"/>
      <point x="365" y="506"/>
      <point x="363" y="493"/>
      <point x="361" y="478" type="curve" smooth="yes"/>
      <point x="352" y="405"/>
      <point x="328" y="378"/>
      <point x="287" y="378" type="curve" smooth="yes"/>
      <point x="257" y="378"/>
      <point x="238" y="389"/>
    </contour>
    <contour>
      <point x="81" y="280" type="line"/>
      <point x="191" y="280" type="line"/>
      <point x="211" y="316" type="line"/>
      <point x="240" y="292"/>
      <point x="281" y="276"/>
      <point x="328" y="276" type="curve" smooth="yes"/>
      <point x="406" y="276"/>
      <point x="461" y="336"/>
      <point x="478" y="445" type="curve" smooth="yes"/>
      <point x="484" y="481"/>
      <point x="488" y="515"/>
      <point x="488" y="537" type="curve" smooth="yes"/>
      <point x="488" y="625"/>
      <point x="439" y="676"/>
      <point x="361" y="676" type="curve" smooth="yes"/>
      <point x="335" y="676"/>
      <point x="294" y="666"/>
      <point x="263" y="652" type="curve"/>
      <point x="293" y="836" type="line"/>
      <point x="170" y="836" type="line"/>
    </contour>
    <contour>
      <point x="247" y="170" type="move" name="bottom"/>
    </contour>
  </outline>
</glyph>
<glyph name="bracketleft.smcp" format="1">
  <advance width="298"/>
  <note>
    GF Latin Plus glyph
  </note>
  <outline>
    <contour>
      <point x="57" y="5" type="line" smooth="yes"/>
      <point x="55" y="-10"/>
      <point x="53" y="-26"/>
      <point x="53" y="-42" type="curve" smooth="yes"/>
      <point x="53" y="-100"/>
      <point x="80" y="-159"/>
      <point x="183" y="-159" type="curve" smooth="yes"/>
      <point x="252" y="-159" type="line"/>
      <point x="268" y="-52" type="line"/>
      <point x="242" y="-52" type="line" smooth="yes"/>
      <point x="214" y="-52"/>
      <point x="197" y="-40"/>
      <point x="197" y="-9" type="curve" smooth="yes"/>
      <point x="197" y="-2"/>
      <point x="198" y="4"/>
      <point x="198" y="11" type="curve" smooth="yes"/>
      <point x="271" y="465" type="line" smooth="yes"/>
      <point x="278" y="514"/>
      <point x="302" y="530"/>
      <point x="335" y="530" type="curve" smooth="yes"/>
      <point x="360" y="530" type="line"/>
      <point x="377" y="636" type="line"/>
      <point x="308" y="636" type="line" smooth="yes"/>
      <point x="198" y="636"/>
      <point x="147" y="579"/>
      <point x="132" y="486" type="curve" smooth="yes"/>
    </contour>
  </outline>
</glyph>
<glyph name="bracketright.smcp" format="1">
  <advance width="298"/>
  <note>
    GF Latin Plus glyph
  </note>
  <outline>
    <contour>
      <point x="14" y="-52" type="line"/>
      <point x="-3" y="-159" type="line"/>
      <point x="66" y="-159" type="line" smooth="yes"/>
      <point x="197" y="-159"/>
      <point x="232" y="-66"/>
      <point x="243" y="5" type="curve" smooth="yes"/>
      <point x="319" y="486" type="line" smooth="yes"/>
      <point x="322" y="500"/>
      <point x="323" y="515"/>
      <point x="323" y="527" type="curve" smooth="yes"/>
      <point x="322" y="597"/>
      <point x="284" y="636"/>
      <point x="191" y="636" type="curve" smooth="yes"/>
      <point x="123" y="636" type="line"/>
      <point x="106" y="530" type="line"/>
      <point x="132" y="530" type="line" smooth="yes"/>
      <point x="159" y="530"/>
      <point x="177" y="518"/>
      <point x="177" y="486" type="curve" smooth="yes"/>
      <point x="178" y="480"/>
      <point x="177" y="474"/>
      <point x="175" y="465" type="curve" smooth="yes"/>
      <point x="103" y="11" type="line" smooth="yes"/>
      <point x="96" y="-35"/>
      <point x="74" y="-52"/>
      <point x="39" y="-52" type="curve" smooth="yes"/>
    </contour>
  </outline>
</glyph>
<glyph name="brevecomb_hookabovecomb" format="1">
  <outline>
    <contour>
      <point x="-405" y="730" type="line"/>
      <point x="-407" y="720"/>
      <point x="-407" y="712"/>
      <point x="-407" y="704" type="curve" smooth="yes"/>
      <point x="-407" y="638"/>
      <point x="-361" y="609"/>
      <point x="-285" y="609" type="curve" smooth="yes"/>
      <point x="-198" y="609"/>
      <point x="-139" y="645"/>
      <point x="-126" y="730" type="curve"/>
      <point x="-196" y="730" type="line"/>
      <point x="-204" y="681"/>
      <point x="-241" y="669"/>
      <point x="-277" y="669" type="curve" smooth="yes"/>
      <point x="-308" y="669"/>
      <point x="-337" y="681"/>
      <point x="-337" y="717" type="curve" smooth="yes"/>
      <point x="-337" y="721"/>
      <point x="-337" y="725"/>
      <point x="-336" y="730" type="curve"/>
    </contour>
    <component base="hookabovecomb" xOffset="-22" yOffset="117"/>
    <contour>
      <point x="-269" y="650" type="move" name="_top"/>
    </contour>
  </outline>
</glyph>
<glyph name="brevecomb_tildecomb" format="1">
  <outline>
    <contour>
      <point x="-416" y="730" type="line"/>
      <point x="-418" y="720"/>
      <point x="-419" y="711"/>
      <point x="-419" y="703" type="curve" smooth="yes"/>
      <point x="-419" y="638"/>
      <point x="-372" y="609"/>
      <point x="-296" y="609" type="curve" smooth="yes"/>
      <point x="-209" y="609"/>
      <point x="-151" y="645"/>
      <point x="-137" y="730" type="curve"/>
      <point x="-207" y="730" type="line"/>
      <point x="-215" y="681"/>
      <point x="-250" y="669"/>
      <point x="-288" y="669" type="curve" smooth="yes"/>
      <point x="-319" y="669"/>
      <point x="-348" y="681"/>
      <point x="-348" y="716" type="curve" smooth="yes"/>
      <point x="-348" y="721"/>
      <point x="-348" y="725"/>
      <point x="-347" y="730" type="curve"/>
    </contour>
    <contour>
      <point x="-438" y="767" type="curve"/>
      <point x="-364" y="767" type="line"/>
      <point x="-360" y="783"/>
      <point x="-344" y="796"/>
      <point x="-320" y="796" type="curve" smooth="yes"/>
      <point x="-290" y="796"/>
      <point x="-251" y="768"/>
      <point x="-205" y="768" type="curve" smooth="yes"/>
      <point x="-144" y="768"/>
      <point x="-108" y="791"/>
      <point x="-88" y="872" type="curve"/>
      <point x="-162" y="872" type="line"/>
      <point x="-165" y="851"/>
      <point x="-182" y="839"/>
      <point x="-206" y="839" type="curve" smooth="yes"/>
      <point x="-240" y="839"/>
      <point x="-272" y="867"/>
      <point x="-320" y="867" type="curve" smooth="yes"/>
      <point x="-372" y="867"/>
      <point x="-418" y="851"/>
    </contour>
    <contour>
      <point x="-284" y="650" type="move" name="_top"/>
    </contour>
  </outline>
</glyph>
<glyph name="breveinvertedcomb" format="1">
  <note>
    GF Latin Plus glyph
  </note>
  <outline>
    <contour>
      <point x="-131" y="626" type="line"/>
      <point x="-129" y="640"/>
      <point x="-127" y="653"/>
      <point x="-127" y="665" type="curve" smooth="yes"/>
      <point x="-127" y="742"/>
      <point x="-172" y="777"/>
      <point x="-245" y="777" type="curve" smooth="yes"/>
      <point x="-332" y="777"/>
      <point x="-394" y="731"/>
      <point x="-410" y="626" type="curve"/>
      <point x="-339" y="626" type="line"/>
      <point x="-330" y="688"/>
      <point x="-295" y="709"/>
      <point x="-256" y="709" type="curve" smooth="yes"/>
      <point x="-225" y="709"/>
      <point x="-197" y="693"/>
      <point x="-197" y="648" type="curve" smooth="yes"/>
      <point x="-197" y="642"/>
      <point x="-198" y="634"/>
      <point x="-199" y="626" type="curve"/>
    </contour>
    <contour>
      <point x="-269" y="650" type="move" name="_top"/>
    </contour>
  </outline>
</glyph>
<glyph name="c.superior" format="1">
  <advance width="352"/>
  <note>
    GF Latin Plus glyph
  </note>
  <outline>
    <contour>
      <point x="105" y="497" type="curve" smooth="yes"/>
      <point x="101" y="470"/>
      <point x="98" y="444"/>
      <point x="98" y="426" type="curve" smooth="yes"/>
      <point x="98" y="313"/>
      <point x="155" y="276"/>
      <point x="245" y="276" type="curve" smooth="yes"/>
      <point x="304" y="276"/>
      <point x="344" y="285"/>
      <point x="378" y="299" type="curve"/>
      <point x="390" y="371" type="line"/>
      <point x="286" y="371" type="line" smooth="yes"/>
      <point x="243" y="371"/>
      <point x="221" y="392"/>
      <point x="221" y="439" type="curve" smooth="yes"/>
      <point x="221" y="445"/>
      <point x="221" y="457"/>
      <point x="224" y="476" type="curve" smooth="yes"/>
      <point x="235" y="542"/>
      <point x="258" y="579"/>
      <point x="318" y="579" type="curve" smooth="yes"/>
      <point x="416" y="579" type="line"/>
      <point x="428" y="653" type="line"/>
      <point x="383" y="666"/>
      <point x="334" y="676"/>
      <point x="290" y="676" type="curve" smooth="yes"/>
      <point x="195" y="676"/>
      <point x="127" y="629"/>
    </contour>
    <contour>
      <point x="309" y="753" type="move" name="top"/>
    </contour>
    <contour>
      <point x="217" y="170" type="move" name="bottom"/>
    </contour>
  </outline>
</glyph>
<glyph name="c_t" format="1">
  <advance width="843"/>
  <outline>
    <contour>
      <point x="605" y="442" type="line"/>
      <point x="563" y="215" type="line" smooth="yes"/>
      <point x="556" y="177"/>
      <point x="553" y="146"/>
      <point x="553" y="122" type="curve" smooth="yes"/>
      <point x="553" y="39"/>
      <point x="608" y="0"/>
      <point x="715" y="0" type="curve" smooth="yes"/>
      <point x="797" y="0" type="line"/>
      <point x="815" y="110" type="line"/>
      <point x="754" y="116" type="line" smooth="yes"/>
      <point x="719" y="119"/>
      <point x="703" y="131"/>
      <point x="703" y="163" type="curve" smooth="yes"/>
      <point x="703" y="178"/>
      <point x="707" y="202"/>
      <point x="709" y="214" type="curve" smooth="yes"/>
      <point x="742" y="418" type="line"/>
      <point x="869" y="418" type="line"/>
      <point x="887" y="537" type="line"/>
      <point x="760" y="537" type="line"/>
      <point x="784" y="687" type="line"/>
      <point x="667" y="687" type="line"/>
      <point x="624" y="537" type="line"/>
    </contour>
    <contour>
      <point x="85" y="293" type="curve" smooth="yes"/>
      <point x="79" y="256"/>
      <point x="75" y="221"/>
      <point x="75" y="198" type="curve" smooth="yes"/>
      <point x="75" y="42"/>
      <point x="151" y="-6"/>
      <point x="271" y="-6" type="curve" smooth="yes"/>
      <point x="350" y="-6"/>
      <point x="403" y="6"/>
      <point x="449" y="22" type="curve"/>
      <point x="462" y="106" type="line"/>
      <point x="319" y="106" type="line" smooth="yes"/>
      <point x="256" y="106"/>
      <point x="223" y="134"/>
      <point x="223" y="211" type="curve" smooth="yes"/>
      <point x="223" y="222"/>
      <point x="225" y="240"/>
      <point x="229" y="268" type="curve" smooth="yes"/>
      <point x="247" y="378"/>
      <point x="285" y="429"/>
      <point x="368" y="429" type="curve" smooth="yes"/>
      <point x="673" y="429" type="line"/>
      <point x="701" y="541" type="line"/>
      <point x="687" y="542"/>
      <point x="384" y="543"/>
      <point x="349" y="543" type="curve" smooth="yes"/>
      <point x="222" y="543"/>
      <point x="113" y="476"/>
    </contour>
  </outline>
</glyph>
<glyph name="caroncomb.alt" format="1">
  <note>
    GF Latin Plus glyph
  </note>
  <outline>
    <contour>
      <point x="50" y="578" type="line"/>
      <point x="166" y="578" type="line"/>
      <point x="196" y="718" type="line"/>
      <point x="207" y="785" type="line"/>
      <point x="72" y="785" type="line"/>
      <point x="62" y="718" type="line"/>
    </contour>
    <contour>
      <point x="22" y="650" type="move" name="_altcaron"/>
    </contour>
  </outline>
</glyph>
<glyph name="circumflexcomb_gravecomb" format="1">
  <outline>
    <contour>
      <point x="-442" y="631" type="line"/>
      <point x="-355" y="631" type="line"/>
      <point x="-278" y="674" type="line"/>
      <point x="-219" y="631" type="line"/>
      <point x="-133" y="631" type="line"/>
      <point x="-215" y="740" type="line"/>
      <point x="-316" y="740" type="line"/>
    </contour>
    <contour>
      <point x="-443" y="716" type="line"/>
      <point x="-363" y="716" type="line"/>
      <point x="-388" y="841" type="line"/>
      <point x="-501" y="841" type="line"/>
    </contour>
    <contour>
      <point x="-279" y="650" type="move" name="_top"/>
    </contour>
  </outline>
</glyph>
<glyph name="circumflexcomb_hookabovecomb" format="1">
  <outline>
    <contour>
      <point x="-317" y="740" type="line"/>
      <point x="-443" y="631" type="line"/>
      <point x="-356" y="631" type="line"/>
      <point x="-280" y="674" type="line"/>
      <point x="-220" y="631" type="line"/>
      <point x="-134" y="631" type="line"/>
      <point x="-216" y="740" type="line"/>
    </contour>
    <contour>
      <point x="-169" y="794" type="line"/>
      <point x="-159" y="797"/>
      <point x="-145" y="800"/>
      <point x="-136" y="800" type="curve" smooth="yes"/>
      <point x="-121" y="800"/>
      <point x="-114" y="794"/>
      <point x="-114" y="784" type="curve" smooth="yes"/>
      <point x="-114" y="769"/>
      <point x="-122" y="756"/>
      <point x="-151" y="744" type="curve"/>
      <point x="-160" y="686" type="line"/>
      <point x="-73" y="710"/>
      <point x="-41" y="752"/>
      <point x="-41" y="802" type="curve" smooth="yes"/>
      <point x="-41" y="841"/>
      <point x="-62" y="860"/>
      <point x="-107" y="860" type="curve" smooth="yes"/>
      <point x="-127" y="860"/>
      <point x="-144" y="857"/>
      <point x="-160" y="852" type="curve"/>
    </contour>
    <contour>
      <point x="-284" y="650" type="move" name="_top"/>
    </contour>
  </outline>
</glyph>
<glyph name="circumflexcomb_tildecomb" format="1">
  <outline>
    <contour>
      <point x="-438" y="781" type="curve"/>
      <point x="-364" y="781" type="line"/>
      <point x="-360" y="798"/>
      <point x="-344" y="811"/>
      <point x="-320" y="811" type="curve" smooth="yes"/>
      <point x="-290" y="811"/>
      <point x="-252" y="783"/>
      <point x="-206" y="783" type="curve" smooth="yes"/>
      <point x="-144" y="783"/>
      <point x="-108" y="806"/>
      <point x="-88" y="887" type="curve"/>
      <point x="-162" y="887" type="line"/>
      <point x="-166" y="866"/>
      <point x="-182" y="854"/>
      <point x="-207" y="854" type="curve" smooth="yes"/>
      <point x="-240" y="854"/>
      <point x="-272" y="882"/>
      <point x="-321" y="882" type="curve" smooth="yes"/>
      <point x="-373" y="882"/>
      <point x="-418" y="865"/>
    </contour>
    <contour>
      <point x="-319" y="740" type="line"/>
      <point x="-446" y="631" type="line"/>
      <point x="-359" y="631" type="line"/>
      <point x="-282" y="674" type="line"/>
      <point x="-223" y="631" type="line"/>
      <point x="-137" y="631" type="line"/>
      <point x="-218" y="740" type="line"/>
    </contour>
    <contour>
      <point x="-286" y="650" type="move" name="_top"/>
    </contour>
  </outline>
</glyph>
<glyph name="colonsign" format="1">
  <advance width="609"/>
  <note>
    GF Latin Plus glyph
  </note>
  <outline>
    <contour>
      <point x="286" y="-110" type="line"/>
      <point x="780" y="793" type="line"/>
      <point x="712" y="793" type="line"/>
      <point x="218" y="-110" type="line"/>
    </contour>
    <contour>
      <point x="146" y="-110" type="line"/>
      <point x="640" y="793" type="line"/>
      <point x="572" y="793" type="line"/>
      <point x="78" y="-110" type="line"/>
    </contour>
    <contour>
      <point x="107" y="244" type="curve" smooth="yes"/>
      <point x="107" y="58"/>
      <point x="190" y="-6"/>
      <point x="323" y="-6" type="curve" smooth="yes"/>
      <point x="433" y="-6"/>
      <point x="508" y="7"/>
      <point x="559" y="26" type="curve"/>
      <point x="582" y="126" type="line"/>
      <point x="533" y="117"/>
      <point x="478" y="113"/>
      <point x="385" y="113" type="curve" smooth="yes"/>
      <point x="285" y="113"/>
      <point x="244" y="148"/>
      <point x="244" y="265" type="curve" smooth="yes"/>
      <point x="244" y="436"/>
      <point x="343" y="631"/>
      <point x="516" y="631" type="curve" smooth="yes"/>
      <point x="569" y="631"/>
      <point x="615" y="625"/>
      <point x="651" y="619" type="curve"/>
      <point x="716" y="711" type="line"/>
      <point x="683" y="727"/>
      <point x="618" y="750"/>
      <point x="511" y="750" type="curve" smooth="yes"/>
      <point x="291" y="750"/>
      <point x="107" y="539"/>
    </contour>
  </outline>
</glyph>
<glyph name="colonsign.smcp" format="1">
  <advance width="511"/>
  <note>
    GF Latin Plus glyph
  </note>
  <outline>
    <contour>
      <point x="275" y="-83" type="line"/>
      <point x="630" y="599" type="line"/>
      <point x="568" y="599" type="line"/>
      <point x="212" y="-83" type="line"/>
    </contour>
    <contour>
      <point x="162" y="-83" type="line"/>
      <point x="518" y="599" type="line"/>
      <point x="456" y="599" type="line"/>
      <point x="100" y="-83" type="line"/>
    </contour>
    <contour>
      <point x="91" y="180" type="curve" smooth="yes"/>
      <point x="92" y="45"/>
      <point x="168" y="-5"/>
      <point x="279" y="-5" type="curve" smooth="yes"/>
      <point x="360" y="-5"/>
      <point x="418" y="5"/>
      <point x="459" y="20" type="curve"/>
      <point x="480" y="110" type="line"/>
      <point x="447" y="104"/>
      <point x="402" y="102"/>
      <point x="332" y="102" type="curve" smooth="yes"/>
      <point x="265" y="102"/>
      <point x="218" y="119"/>
      <point x="217" y="214" type="curve" smooth="yes"/>
      <point x="215" y="332"/>
      <point x="287" y="460"/>
      <point x="416" y="460" type="curve" smooth="yes"/>
      <point x="456" y="460"/>
      <point x="490" y="457"/>
      <point x="517" y="453" type="curve"/>
      <point x="579" y="537" type="line"/>
      <point x="552" y="548"/>
      <point x="499" y="566"/>
      <point x="405" y="566" type="curve" smooth="yes"/>
      <point x="237" y="566"/>
      <point x="88" y="419"/>
    </contour>
  </outline>
</glyph>
<glyph name="commaaccentcomb" format="1">
  <note>
    GF Latin Plus glyph
  </note>
  <outline>
    <contour>
      <point x="-420" y="-155" type="line"/>
      <point x="-430" y="-216" type="line"/>
      <point x="-379" y="-216" type="line" smooth="yes"/>
      <point x="-288" y="-216"/>
      <point x="-255" y="-174"/>
      <point x="-239" y="-73" type="curve"/>
      <point x="-330" y="-73" type="line"/>
      <point x="-338" y="-129"/>
      <point x="-353" y="-139"/>
      <point x="-392" y="-148" type="curve" smooth="yes"/>
    </contour>
    <contour>
      <point x="-333" y="-150" type="move" name="_bottom"/>
    </contour>
  </outline>
</glyph>
<glyph name="commaturnedabovecomb" format="1">
  <note>
    GF Latin Plus glyph
  </note>
  <outline>
    <contour>
      <point x="-105" y="711" type="line"/>
      <point x="-95" y="771" type="line"/>
      <point x="-146" y="771" type="line" smooth="yes"/>
      <point x="-237" y="771"/>
      <point x="-270" y="729"/>
      <point x="-286" y="628" type="curve"/>
      <point x="-196" y="628" type="line"/>
      <point x="-187" y="685"/>
      <point x="-172" y="694"/>
      <point x="-133" y="703" type="curve" smooth="yes"/>
    </contour>
    <contour>
      <point x="-214" y="650" type="move" name="_top"/>
    </contour>
  </outline>
</glyph>
<glyph name="d.salt" format="1">
  <advance width="571"/>
  <outline>
    <contour>
      <point x="229" y="269" type="curve" smooth="yes"/>
      <point x="251" y="394"/>
      <point x="293" y="424"/>
      <point x="362" y="424" type="curve" smooth="yes"/>
      <point x="395" y="424"/>
      <point x="419" y="417"/>
      <point x="437" y="408" type="curve"/>
      <point x="393" y="133" type="line"/>
      <point x="364" y="120"/>
      <point x="334" y="113"/>
      <point x="291" y="113" type="curve" smooth="yes"/>
      <point x="253" y="113"/>
      <point x="222" y="135"/>
      <point x="222" y="205" type="curve" smooth="yes"/>
      <point x="222" y="226"/>
      <point x="225" y="246"/>
    </contour>
    <contour>
      <point x="86" y="294" type="curve" smooth="yes"/>
      <point x="78" y="255"/>
      <point x="75" y="216"/>
      <point x="75" y="180" type="curve" smooth="yes"/>
      <point x="75" y="62"/>
      <point x="127" y="-6"/>
      <point x="279" y="-6" type="curve" smooth="yes"/>
      <point x="333" y="-6"/>
      <point x="417" y="7"/>
      <point x="526" y="36" type="curve"/>
      <point x="641" y="763" type="line"/>
      <point x="493" y="763" type="line"/>
      <point x="456" y="529" type="line"/>
      <point x="426" y="539"/>
      <point x="393" y="543"/>
      <point x="356" y="543" type="curve" smooth="yes"/>
      <point x="170" y="543"/>
      <point x="116" y="448"/>
    </contour>
    <contour>
      <point x="644" y="650" type="move" name="altcaron"/>
    </contour>
    <contour>
      <point x="581" y="850" type="move" name="top"/>
    </contour>
    <contour>
      <point x="249" y="-150" type="move" name="bottom"/>
    </contour>
  </outline>
</glyph>
<glyph name="d.superior" format="1">
  <advance width="429"/>
  <note>
    GF Latin Plus glyph
  </note>
  <outline>
    <contour>
      <point x="224" y="477" type="curve" smooth="yes"/>
      <point x="239" y="562"/>
      <point x="270" y="574"/>
      <point x="311" y="574" type="curve" smooth="yes"/>
      <point x="332" y="574"/>
      <point x="344" y="572"/>
      <point x="357" y="567" type="curve"/>
      <point x="331" y="401" type="line"/>
      <point x="313" y="389"/>
      <point x="293" y="378"/>
      <point x="265" y="378" type="curve" smooth="yes"/>
      <point x="241" y="378"/>
      <point x="221" y="390"/>
      <point x="220" y="434" type="curve" smooth="yes"/>
      <point x="220" y="449"/>
      <point x="221" y="461"/>
    </contour>
    <contour>
      <point x="105" y="498" type="curve" smooth="yes"/>
      <point x="100" y="469"/>
      <point x="97" y="439"/>
      <point x="98" y="414" type="curve" smooth="yes"/>
      <point x="98" y="327"/>
      <point x="135" y="276"/>
      <point x="208" y="276" type="curve" smooth="yes"/>
      <point x="250" y="276"/>
      <point x="289" y="294"/>
      <point x="318" y="319" type="curve"/>
      <point x="325" y="280" type="line"/>
      <point x="435" y="280" type="line"/>
      <point x="523" y="836" type="line"/>
      <point x="400" y="836" type="line"/>
      <point x="374" y="668" type="line"/>
      <point x="353" y="674"/>
      <point x="330" y="676"/>
      <point x="306" y="676" type="curve" smooth="yes"/>
      <point x="168" y="676"/>
      <point x="128" y="609"/>
    </contour>
    <contour>
      <point x="525" y="753" type="move" name="altcaron"/>
    </contour>
    <contour>
      <point x="242" y="170" type="move" name="bottom"/>
    </contour>
  </outline>
</glyph>
<glyph name="dong.smcp" format="1">
  <advance width="511"/>
  <note>
    GF Latin Plus glyph
  </note>
  <outline>
    <contour>
      <point x="56" y="-36" type="line"/>
      <point x="452" y="-36" type="line"/>
      <point x="469" y="70" type="line"/>
      <point x="73" y="70" type="line"/>
    </contour>
    <contour>
      <point x="295" y="490" type="line"/>
      <point x="566" y="490" type="line"/>
      <point x="575" y="542" type="line"/>
      <point x="304" y="542" type="line"/>
    </contour>
    <contour>
      <point x="296" y="344" type="curve" smooth="yes"/>
      <point x="324" y="344"/>
      <point x="339" y="337"/>
      <point x="356" y="330" type="curve"/>
      <point x="342" y="237" type="line"/>
      <point x="326" y="230"/>
      <point x="303" y="219"/>
      <point x="274" y="219" type="curve" smooth="yes"/>
      <point x="239" y="219"/>
      <point x="225" y="232"/>
      <point x="225" y="262" type="curve" smooth="yes"/>
      <point x="224" y="304"/>
      <point x="249" y="344"/>
    </contour>
    <contour>
      <point x="80" y="225" type="curve" smooth="yes"/>
      <point x="81" y="143"/>
      <point x="128" y="113"/>
      <point x="200" y="113" type="curve" smooth="yes"/>
      <point x="253" y="113"/>
      <point x="295" y="130"/>
      <point x="329" y="155" type="curve"/>
      <point x="345" y="118" type="line"/>
      <point x="463" y="118" type="line"/>
      <point x="539" y="591" type="line"/>
      <point x="398" y="591" type="line"/>
      <point x="372" y="426" type="line"/>
      <point x="345" y="435"/>
      <point x="308" y="443"/>
      <point x="272" y="443" type="curve" smooth="yes"/>
      <point x="125" y="443"/>
      <point x="79" y="320"/>
    </contour>
  </outline>
</glyph>
<glyph name="e.superior" format="1">
  <advance width="407"/>
  <note>
    GF Latin Plus glyph
  </note>
  <outline>
    <contour>
      <point x="228" y="495" type="curve"/>
      <point x="237" y="550"/>
      <point x="258" y="580"/>
      <point x="305" y="580" type="curve" smooth="yes"/>
      <point x="338" y="580"/>
      <point x="355" y="566"/>
      <point x="355" y="542" type="curve" smooth="yes"/>
      <point x="355" y="508"/>
      <point x="329" y="491"/>
      <point x="270" y="491" type="curve" smooth="yes"/>
      <point x="255" y="491"/>
      <point x="240" y="493"/>
    </contour>
    <contour>
      <point x="97" y="422" type="curve" smooth="yes"/>
      <point x="98" y="331"/>
      <point x="139" y="276"/>
      <point x="255" y="276" type="curve" smooth="yes"/>
      <point x="321" y="276"/>
      <point x="381" y="284"/>
      <point x="423" y="294" type="curve"/>
      <point x="435" y="369" type="line"/>
      <point x="305" y="369" type="line" smooth="yes"/>
      <point x="244" y="369"/>
      <point x="219" y="384"/>
      <point x="218" y="417" type="curve" smooth="yes"/>
      <point x="218" y="422"/>
      <point x="218" y="430"/>
      <point x="220" y="436" type="curve"/>
      <point x="235" y="432"/>
      <point x="261" y="430"/>
      <point x="292" y="430" type="curve" smooth="yes"/>
      <point x="389" y="430"/>
      <point x="469" y="450"/>
      <point x="469" y="556" type="curve" smooth="yes"/>
      <point x="469" y="655"/>
      <point x="391" y="676"/>
      <point x="314" y="676" type="curve" smooth="yes"/>
      <point x="197" y="676"/>
      <point x="124" y="628"/>
      <point x="104" y="497" type="curve" smooth="yes"/>
      <point x="100" y="475"/>
      <point x="97" y="450"/>
    </contour>
    <contour>
      <point x="325" y="753" type="move" name="top"/>
    </contour>
    <contour>
      <point x="337" y="280" type="move" name="ogonek"/>
    </contour>
    <contour>
      <point x="232" y="170" type="move" name="bottom"/>
    </contour>
  </outline>
</glyph>
<glyph name="eight.smcp" format="1">
  <advance width="522"/>
  <note>
    GF Latin Plus glyph
  </note>
  <outline>
    <contour>
      <point x="266" y="415" type="curve" smooth="yes"/>
      <point x="271" y="440"/>
      <point x="284" y="452"/>
      <point x="309" y="452" type="curve" smooth="yes"/>
      <point x="357" y="452" type="line" smooth="yes"/>
      <point x="378" y="452"/>
      <point x="389" y="444"/>
      <point x="389" y="427" type="curve" smooth="yes"/>
      <point x="389" y="419"/>
      <point x="386" y="407"/>
      <point x="381" y="376" type="curve" smooth="yes"/>
      <point x="378" y="358"/>
      <point x="365" y="343"/>
      <point x="339" y="343" type="curve" smooth="yes"/>
      <point x="291" y="343" type="line" smooth="yes"/>
      <point x="269" y="343"/>
      <point x="259" y="354"/>
      <point x="259" y="371" type="curve" smooth="yes"/>
      <point x="259" y="377"/>
      <point x="262" y="396"/>
    </contour>
    <contour>
      <point x="222" y="191" type="curve" smooth="yes"/>
      <point x="227" y="221"/>
      <point x="253" y="230"/>
      <point x="273" y="230" type="curve" smooth="yes"/>
      <point x="324" y="230" type="line" smooth="yes"/>
      <point x="350" y="230"/>
      <point x="361" y="221"/>
      <point x="361" y="198" type="curve" smooth="yes"/>
      <point x="361" y="193"/>
      <point x="360" y="183"/>
      <point x="354" y="146" type="curve" smooth="yes"/>
      <point x="349" y="122"/>
      <point x="338" y="108"/>
      <point x="308" y="108" type="curve" smooth="yes"/>
      <point x="255" y="108" type="line" smooth="yes"/>
      <point x="229" y="108"/>
      <point x="214" y="116"/>
      <point x="214" y="135" type="curve" smooth="yes"/>
      <point x="214" y="143"/>
      <point x="218" y="168"/>
    </contour>
    <contour>
      <point x="70" y="125" type="line" smooth="yes"/>
      <point x="68" y="109"/>
      <point x="66" y="98"/>
      <point x="66" y="86" type="curve" smooth="yes"/>
      <point x="67" y="43"/>
      <point x="90" y="-4"/>
      <point x="205" y="-4" type="curve" smooth="yes"/>
      <point x="326" y="-4" type="line" smooth="yes"/>
      <point x="405" y="-4"/>
      <point x="474" y="17"/>
      <point x="491" y="122" type="curve" smooth="yes"/>
      <point x="501" y="191" type="line" smooth="yes"/>
      <point x="504" y="206"/>
      <point x="505" y="216"/>
      <point x="505" y="229" type="curve" smooth="yes"/>
      <point x="505" y="256"/>
      <point x="495" y="287"/>
      <point x="456" y="296" type="curve"/>
      <point x="499" y="301"/>
      <point x="516" y="361"/>
      <point x="520" y="384" type="curve" smooth="yes"/>
      <point x="530" y="444" type="line" smooth="yes"/>
      <point x="531" y="459"/>
      <point x="533" y="470"/>
      <point x="533" y="479" type="curve" smooth="yes"/>
      <point x="532" y="541"/>
      <point x="492" y="565"/>
      <point x="418" y="565" type="curve" smooth="yes"/>
      <point x="294" y="565" type="line" smooth="yes"/>
      <point x="218" y="565"/>
      <point x="148" y="541"/>
      <point x="133" y="449" type="curve" smooth="yes"/>
      <point x="123" y="384" type="line" smooth="yes"/>
      <point x="121" y="371"/>
      <point x="119" y="357"/>
      <point x="119" y="345" type="curve" smooth="yes"/>
      <point x="120" y="322"/>
      <point x="129" y="302"/>
      <point x="157" y="286" type="curve"/>
      <point x="113" y="277"/>
      <point x="87" y="236"/>
      <point x="82" y="198" type="curve" smooth="yes"/>
    </contour>
  </outline>
</glyph>
<glyph name="eight.tosf" format="1">
  <advance width="609"/>
  <outline>
    <contour>
      <point x="303" y="509" type="curve" smooth="yes"/>
      <point x="309" y="556" type="line" smooth="yes"/>
      <point x="318" y="607"/>
      <point x="341" y="620"/>
      <point x="383" y="620" type="curve" smooth="yes"/>
      <point x="440" y="620" type="line" smooth="yes"/>
      <point x="469" y="620"/>
      <point x="491" y="612"/>
      <point x="491" y="577" type="curve" smooth="yes"/>
      <point x="491" y="570"/>
      <point x="490" y="564"/>
      <point x="489" y="556" type="curve" smooth="yes"/>
      <point x="482" y="509" type="line" smooth="yes"/>
      <point x="476" y="470"/>
      <point x="458" y="441"/>
      <point x="409" y="441" type="curve" smooth="yes"/>
      <point x="354" y="441" type="line" smooth="yes"/>
      <point x="318" y="441"/>
      <point x="300" y="455"/>
      <point x="300" y="487" type="curve" smooth="yes"/>
      <point x="300" y="493"/>
      <point x="301" y="500"/>
    </contour>
    <contour>
      <point x="240" y="184" type="curve" smooth="yes"/>
      <point x="251" y="250" type="line" smooth="yes"/>
      <point x="257" y="294"/>
      <point x="298" y="315"/>
      <point x="334" y="315" type="curve" smooth="yes"/>
      <point x="391" y="315" type="line" smooth="yes"/>
      <point x="433" y="315"/>
      <point x="453" y="297"/>
      <point x="453" y="265" type="curve" smooth="yes"/>
      <point x="453" y="260"/>
      <point x="452" y="255"/>
      <point x="452" y="250" type="curve" smooth="yes"/>
      <point x="441" y="184" type="line" smooth="yes"/>
      <point x="435" y="144"/>
      <point x="415" y="121"/>
      <point x="361" y="121" type="curve" smooth="yes"/>
      <point x="304" y="121" type="line" smooth="yes"/>
      <point x="263" y="121"/>
      <point x="239" y="134"/>
      <point x="239" y="169" type="curve" smooth="yes"/>
      <point x="239" y="173"/>
      <point x="239" y="179"/>
    </contour>
    <contour>
      <point x="87" y="157" type="line" smooth="yes"/>
      <point x="85" y="144"/>
      <point x="84" y="131"/>
      <point x="84" y="120" type="curve" smooth="yes"/>
      <point x="84" y="20"/>
      <point x="164" y="-4"/>
      <point x="257" y="-4" type="curve" smooth="yes"/>
      <point x="377" y="-4" type="line" smooth="yes"/>
      <point x="478" y="-4"/>
      <point x="564" y="27"/>
      <point x="585" y="157" type="curve" smooth="yes"/>
      <point x="602" y="261" type="line" smooth="yes"/>
      <point x="603" y="271"/>
      <point x="605" y="283"/>
      <point x="605" y="296" type="curve" smooth="yes"/>
      <point x="605" y="337"/>
      <point x="590" y="378"/>
      <point x="541" y="389" type="curve"/>
      <point x="596" y="399"/>
      <point x="620" y="473"/>
      <point x="626" y="507" type="curve" smooth="yes"/>
      <point x="639" y="591" type="line" smooth="yes"/>
      <point x="641" y="604"/>
      <point x="642" y="615"/>
      <point x="642" y="626" type="curve" smooth="yes"/>
      <point x="642" y="713"/>
      <point x="577" y="746"/>
      <point x="495" y="746" type="curve" smooth="yes"/>
      <point x="369" y="746" type="line" smooth="yes"/>
      <point x="275" y="746"/>
      <point x="189" y="704"/>
      <point x="171" y="591" type="curve" smooth="yes"/>
      <point x="158" y="507" type="line" smooth="yes"/>
      <point x="155" y="491"/>
      <point x="153" y="476"/>
      <point x="153" y="461" type="curve" smooth="yes"/>
      <point x="153" y="427"/>
      <point x="165" y="398"/>
      <point x="204" y="377" type="curve"/>
      <point x="152" y="365"/>
      <point x="112" y="315"/>
      <point x="103" y="258" type="curve" smooth="yes"/>
    </contour>
  </outline>
</glyph>
<glyph name="euro.smcp" format="1">
  <advance width="511"/>
  <note>
    GF Latin Plus glyph
  </note>
  <outline>
    <contour>
      <point x="72" y="296" type="line"/>
      <point x="131" y="290" type="line"/>
      <point x="243" y="290" type="line"/>
      <point x="459" y="295" type="line"/>
      <point x="467" y="355" type="line"/>
      <point x="255" y="361" type="line"/>
      <point x="150" y="361" type="line"/>
      <point x="82" y="354" type="line"/>
    </contour>
    <contour>
      <point x="55" y="187" type="line"/>
      <point x="122" y="181" type="line"/>
      <point x="226" y="181" type="line"/>
      <point x="441" y="187" type="line"/>
      <point x="450" y="247" type="line"/>
      <point x="238" y="253" type="line"/>
      <point x="125" y="253" type="line"/>
      <point x="65" y="247" type="line"/>
    </contour>
    <component base="C.smcp" xOffset="22"/>
  </outline>
</glyph>
<glyph name="five.oldstyle" format="1">
  <advance width="604"/>
  <outline>
    <contour>
      <point x="45" y="-192" type="line"/>
      <point x="116" y="-200"/>
      <point x="202" y="-209"/>
      <point x="277" y="-209" type="curve" smooth="yes"/>
      <point x="438" y="-209"/>
      <point x="534" y="-153"/>
      <point x="555" y="-23" type="curve" smooth="yes"/>
      <point x="572" y="86" type="line" smooth="yes"/>
      <point x="575" y="99"/>
      <point x="576" y="112"/>
      <point x="576" y="124" type="curve" smooth="yes"/>
      <point x="576" y="204"/>
      <point x="529" y="261"/>
      <point x="428" y="261" type="curve" smooth="yes"/>
      <point x="367" y="261" type="line" smooth="yes"/>
      <point x="323" y="261"/>
      <point x="285" y="249"/>
      <point x="261" y="228" type="curve"/>
      <point x="297" y="404" type="line"/>
      <point x="595" y="404" type="line"/>
      <point x="615" y="537" type="line"/>
      <point x="190" y="537" type="line"/>
      <point x="98" y="81" type="line"/>
      <point x="238" y="81" type="line"/>
      <point x="250" y="118"/>
      <point x="274" y="135"/>
      <point x="317" y="135" type="curve" smooth="yes"/>
      <point x="355" y="135" type="line" smooth="yes"/>
      <point x="401" y="135"/>
      <point x="421" y="115"/>
      <point x="421" y="79" type="curve" smooth="yes"/>
      <point x="421" y="73"/>
      <point x="421" y="67"/>
      <point x="420" y="60" type="curve" smooth="yes"/>
      <point x="412" y="9" type="line" smooth="yes"/>
      <point x="405" y="-34"/>
      <point x="376" y="-76"/>
      <point x="304" y="-76" type="curve" smooth="yes"/>
      <point x="63" y="-76" type="line"/>
    </contour>
  </outline>
</glyph>
<glyph name="five.smcp" format="1">
  <advance width="503"/>
  <note>
    GF Latin Plus glyph
  </note>
  <outline>
    <contour>
      <point x="55" y="9" type="line"/>
      <point x="120" y="3"/>
      <point x="194" y="-4"/>
      <point x="254" y="-4" type="curve" smooth="yes"/>
      <point x="391" y="-4"/>
      <point x="466" y="38"/>
      <point x="482" y="139" type="curve" smooth="yes"/>
      <point x="492" y="202" type="line" smooth="yes"/>
      <point x="496" y="227"/>
      <point x="498" y="242"/>
      <point x="498" y="252" type="curve" smooth="yes"/>
      <point x="498" y="312"/>
      <point x="462" y="356"/>
      <point x="381" y="356" type="curve" smooth="yes"/>
      <point x="320" y="356" type="line" smooth="yes"/>
      <point x="296" y="356"/>
      <point x="274" y="350"/>
      <point x="257" y="338" type="curve"/>
      <point x="277" y="440" type="line"/>
      <point x="507" y="440" type="line"/>
      <point x="526" y="560" type="line"/>
      <point x="161" y="560" type="line"/>
      <point x="89" y="212" type="line"/>
      <point x="224" y="212" type="line"/>
      <point x="231" y="234"/>
      <point x="243" y="244"/>
      <point x="272" y="244" type="curve" smooth="yes"/>
      <point x="310" y="244" type="line" smooth="yes"/>
      <point x="339" y="244"/>
      <point x="352" y="232"/>
      <point x="353" y="211" type="curve" smooth="yes"/>
      <point x="353" y="206"/>
      <point x="351" y="194"/>
      <point x="346" y="164" type="curve" smooth="yes"/>
      <point x="341" y="137"/>
      <point x="316" y="115"/>
      <point x="273" y="115" type="curve" smooth="yes"/>
      <point x="72" y="115" type="line"/>
    </contour>
  </outline>
</glyph>
<glyph name="five.tosf" format="1">
  <advance width="609"/>
  <outline>
    <contour>
      <point x="47" y="-192" type="line"/>
      <point x="119" y="-200"/>
      <point x="205" y="-209"/>
      <point x="280" y="-209" type="curve" smooth="yes"/>
      <point x="441" y="-209"/>
      <point x="537" y="-153"/>
      <point x="558" y="-23" type="curve" smooth="yes"/>
      <point x="575" y="86" type="line" smooth="yes"/>
      <point x="577" y="99"/>
      <point x="578" y="112"/>
      <point x="578" y="124" type="curve" smooth="yes"/>
      <point x="578" y="204"/>
      <point x="532" y="261"/>
      <point x="431" y="261" type="curve" smooth="yes"/>
      <point x="370" y="261" type="line" smooth="yes"/>
      <point x="326" y="261"/>
      <point x="287" y="249"/>
      <point x="264" y="228" type="curve"/>
      <point x="300" y="404" type="line"/>
      <point x="597" y="404" type="line"/>
      <point x="618" y="537" type="line"/>
      <point x="193" y="537" type="line"/>
      <point x="100" y="81" type="line"/>
      <point x="241" y="81" type="line"/>
      <point x="252" y="118"/>
      <point x="276" y="135"/>
      <point x="320" y="135" type="curve" smooth="yes"/>
      <point x="358" y="135" type="line" smooth="yes"/>
      <point x="404" y="135"/>
      <point x="424" y="115"/>
      <point x="424" y="79" type="curve" smooth="yes"/>
      <point x="424" y="73"/>
      <point x="424" y="67"/>
      <point x="423" y="60" type="curve" smooth="yes"/>
      <point x="415" y="9" type="line" smooth="yes"/>
      <point x="407" y="-34"/>
      <point x="379" y="-76"/>
      <point x="306" y="-76" type="curve" smooth="yes"/>
      <point x="66" y="-76" type="line"/>
    </contour>
  </outline>
</glyph>
<glyph name="florin.smcp" format="1">
  <advance width="511"/>
  <note>
    GF Latin Plus glyph
  </note>
  <outline>
    <contour>
      <point x="13" y="-137" type="line"/>
      <point x="26" y="-146"/>
      <point x="57" y="-155"/>
      <point x="97" y="-155" type="curve" smooth="yes"/>
      <point x="188" y="-155"/>
      <point x="271" y="-109"/>
      <point x="306" y="17" type="curve" smooth="yes"/>
      <point x="376" y="275" type="line"/>
      <point x="451" y="275" type="line"/>
      <point x="476" y="367" type="line"/>
      <point x="398" y="367" type="line"/>
      <point x="409" y="404" type="line" smooth="yes"/>
      <point x="429" y="474"/>
      <point x="451" y="504"/>
      <point x="507" y="504" type="curve" smooth="yes"/>
      <point x="540" y="504" type="line"/>
      <point x="566" y="587" type="line"/>
      <point x="554" y="593"/>
      <point x="529" y="605"/>
      <point x="476" y="605" type="curve" smooth="yes"/>
      <point x="361" y="605"/>
      <point x="306" y="536"/>
      <point x="274" y="425" type="curve" smooth="yes"/>
      <point x="258" y="367" type="line"/>
      <point x="193" y="367" type="line"/>
      <point x="168" y="275" type="line"/>
      <point x="235" y="275" type="line"/>
      <point x="174" y="51" type="line" smooth="yes"/>
      <point x="151" y="-29"/>
      <point x="124" y="-55"/>
      <point x="75" y="-55" type="curve" smooth="yes"/>
      <point x="40" y="-55" type="line"/>
    </contour>
  </outline>
</glyph>
<glyph name="four.oldstyle" format="1">
  <advance width="601"/>
  <outline>
    <contour>
      <point x="50" y="78" type="line"/>
      <point x="67" y="8" type="line"/>
      <point x="375" y="8" type="line"/>
      <point x="346" y="-173" type="line"/>
      <point x="494" y="-173" type="line"/>
      <point x="523" y="8" type="line"/>
      <point x="595" y="33" type="line"/>
      <point x="611" y="134" type="line"/>
      <point x="543" y="134" type="line"/>
      <point x="577" y="350" type="line"/>
      <point x="458" y="350" type="line"/>
      <point x="412" y="245" type="line"/>
      <point x="395" y="134" type="line"/>
      <point x="235" y="134" type="line"/>
      <point x="452" y="541" type="line"/>
      <point x="301" y="541" type="line"/>
    </contour>
  </outline>
</glyph>
<glyph name="franc.smcp" format="1">
  <advance width="511"/>
  <note>
    GF Latin Plus glyph
  </note>
  <outline>
    <contour>
      <point x="115" y="0" type="line"/>
      <point x="256" y="0" type="line"/>
      <point x="293" y="235" type="line"/>
      <point x="455" y="242" type="line"/>
      <point x="471" y="347" type="line"/>
      <point x="312" y="355" type="line"/>
      <point x="319" y="400" type="line" smooth="yes"/>
      <point x="323" y="420"/>
      <point x="337" y="437"/>
      <point x="367" y="437" type="curve" smooth="yes"/>
      <point x="524" y="437" type="line"/>
      <point x="542" y="548" type="line"/>
      <point x="480" y="556"/>
      <point x="380" y="560"/>
      <point x="347" y="560" type="curve" smooth="yes"/>
      <point x="281" y="560"/>
      <point x="199" y="533"/>
      <point x="183" y="432" type="curve" smooth="yes"/>
    </contour>
    <contour>
      <point x="69" y="83" type="line"/>
      <point x="127" y="76" type="line"/>
      <point x="268" y="76" type="line"/>
      <point x="408" y="83" type="line"/>
      <point x="423" y="175" type="line"/>
      <point x="285" y="182" type="line"/>
      <point x="144" y="182" type="line"/>
      <point x="85" y="175" type="line"/>
    </contour>
  </outline>
</glyph>
<glyph name="guarani.smcp" format="1">
  <advance width="511"/>
  <note>
    GF Latin Plus glyph
  </note>
  <outline>
    <contour>
      <point x="293" y="-63" type="line"/>
      <point x="397" y="599" type="line"/>
      <point x="336" y="599" type="line"/>
      <point x="231" y="-63" type="line"/>
    </contour>
    <contour>
      <point x="61" y="173" type="curve" smooth="yes"/>
      <point x="62" y="60"/>
      <point x="106" y="-4"/>
      <point x="214" y="-4" type="curve" smooth="yes"/>
      <point x="284" y="-4"/>
      <point x="350" y="20"/>
      <point x="383" y="37" type="curve"/>
      <point x="396" y="0" type="line"/>
      <point x="487" y="0" type="line"/>
      <point x="538" y="327" type="line"/>
      <point x="412" y="327" type="line"/>
      <point x="381" y="133" type="line"/>
      <point x="357" y="125"/>
      <point x="320" y="119"/>
      <point x="275" y="119" type="curve" smooth="yes"/>
      <point x="217" y="119"/>
      <point x="191" y="133"/>
      <point x="190" y="214" type="curve" smooth="yes"/>
      <point x="189" y="298"/>
      <point x="236" y="444"/>
      <point x="347" y="444" type="curve" smooth="yes"/>
      <point x="429" y="444"/>
      <point x="495" y="439"/>
      <point x="530" y="434" type="curve"/>
      <point x="546" y="537" type="line"/>
      <point x="487" y="552"/>
      <point x="430" y="564"/>
      <point x="354" y="564" type="curve" smooth="yes"/>
      <point x="140" y="564"/>
      <point x="59" y="341"/>
    </contour>
  </outline>
</glyph>
<glyph name="h.superior" format="1">
  <advance width="441"/>
  <note>
    GF Latin Plus glyph
  </note>
  <outline>
    <contour>
      <point x="81" y="280" type="line"/>
      <point x="204" y="280" type="line"/>
      <point x="245" y="533" type="line"/>
      <point x="267" y="551"/>
      <point x="292" y="562"/>
      <point x="324" y="562" type="curve" smooth="yes"/>
      <point x="347" y="562"/>
      <point x="364" y="554"/>
      <point x="364" y="529" type="curve" smooth="yes"/>
      <point x="364" y="522"/>
      <point x="363" y="509"/>
      <point x="360" y="487" type="curve" smooth="yes"/>
      <point x="327" y="280" type="line"/>
      <point x="449" y="280" type="line"/>
      <point x="484" y="493" type="line" smooth="yes"/>
      <point x="489" y="526"/>
      <point x="493" y="560"/>
      <point x="493" y="578" type="curve" smooth="yes"/>
      <point x="493" y="648"/>
      <point x="457" y="677"/>
      <point x="394" y="677" type="curve" smooth="yes"/>
      <point x="336" y="677"/>
      <point x="289" y="655"/>
      <point x="260" y="633" type="curve"/>
      <point x="293" y="836" type="line"/>
      <point x="170" y="836" type="line"/>
    </contour>
    <contour>
      <point x="305" y="899" type="move" name="top"/>
    </contour>
    <contour>
      <point x="241" y="170" type="move" name="bottom"/>
    </contour>
  </outline>
</glyph>
<glyph name="hookabovecomb" format="1">
  <note>
    GF Latin Plus glyph
  </note>
  <outline>
    <contour>
      <point x="-279" y="721" type="line"/>
      <point x="-268" y="724"/>
      <point x="-256" y="727"/>
      <point x="-246" y="727" type="curve" smooth="yes"/>
      <point x="-224" y="727"/>
      <point x="-216" y="719"/>
      <point x="-216" y="706" type="curve" smooth="yes"/>
      <point x="-216" y="689"/>
      <point x="-224" y="670"/>
      <point x="-263" y="659" type="curve"/>
      <point x="-273" y="594" type="line"/>
      <point x="-172" y="621"/>
      <point x="-136" y="668"/>
      <point x="-136" y="718" type="curve" smooth="yes"/>
      <point x="-136" y="763"/>
      <point x="-162" y="787"/>
      <point x="-216" y="787" type="curve" smooth="yes"/>
      <point x="-236" y="787"/>
      <point x="-254" y="784"/>
      <point x="-270" y="779" type="curve"/>
    </contour>
    <contour>
      <point x="-236" y="650" type="move" name="_top"/>
    </contour>
  </outline>
</glyph>
<glyph name="horncomb" format="1">
  <note>
    GF Latin Plus glyph
  </note>
  <outline>
    <contour>
      <point x="-230" y="456" type="line"/>
      <point x="-123" y="456" type="line" smooth="yes"/>
      <point x="-35" y="456"/>
      <point x="34" y="520"/>
      <point x="54" y="647" type="curve"/>
      <point x="-49" y="647" type="line"/>
      <point x="-61" y="564"/>
      <point x="-92" y="537"/>
      <point x="-137" y="537" type="curve" smooth="yes"/>
      <point x="-217" y="537" type="line"/>
    </contour>
    <contour>
      <point x="-205" y="650" type="move" name="_top"/>
    </contour>
  </outline>
</glyph>
<glyph name="j.superior" format="1">
  <advance width="196"/>
  <note>
    GF Latin Plus glyph
  </note>
  <outline>
    <contour>
      <point x="153" y="740" type="line" smooth="yes"/>
      <point x="150" y="731"/>
      <point x="156" y="725"/>
      <point x="165" y="725" type="curve" smooth="yes"/>
      <point x="262" y="725" type="line" smooth="yes"/>
      <point x="271" y="725"/>
      <point x="277" y="730"/>
      <point x="279" y="740" type="curve" smooth="yes"/>
      <point x="291" y="817" type="line" smooth="yes"/>
      <point x="292" y="827"/>
      <point x="289" y="834"/>
      <point x="278" y="834" type="curve" smooth="yes"/>
      <point x="183" y="834" type="line" smooth="yes"/>
      <point x="173" y="834"/>
      <point x="166" y="828"/>
      <point x="164" y="817" type="curve" smooth="yes"/>
    </contour>
    <contour>
      <point x="266" y="672" type="line"/>
      <point x="143" y="672" type="line"/>
      <point x="56" y="120" type="line"/>
      <point x="141" y="120" type="line"/>
      <point x="172" y="171"/>
      <point x="196" y="227"/>
      <point x="211" y="324" type="curve" smooth="yes"/>
    </contour>
  </outline>
</glyph>
<glyph name="jdotless" format="1">
  <advance width="255"/>
  <note>
    GF Latin Plus glyph
  </note>
  <outline>
    <contour>
      <point x="16" y="-237" type="line"/>
      <point x="126" y="-237" type="line"/>
      <point x="157" y="-169"/>
      <point x="189" y="-86"/>
      <point x="202" y="-4" type="curve" smooth="yes"/>
      <point x="287" y="537" type="line"/>
      <point x="139" y="537" type="line"/>
    </contour>
    <contour>
      <point x="230" y="650" type="move" name="top"/>
    </contour>
  </outline>
</glyph>
<glyph name="l.superior" format="1">
  <advance width="245"/>
  <note>
    GF Latin Plus glyph
  </note>
  <outline>
    <contour>
      <point x="103" y="416" type="line" smooth="yes"/>
      <point x="101" y="403"/>
      <point x="99" y="388"/>
      <point x="99" y="370" type="curve" smooth="yes"/>
      <point x="99" y="317"/>
      <point x="143" y="280"/>
      <point x="226" y="280" type="curve" smooth="yes"/>
      <point x="276" y="280" type="line"/>
      <point x="291" y="373" type="line"/>
      <point x="265" y="376" type="line" smooth="yes"/>
      <point x="240" y="379"/>
      <point x="227" y="385"/>
      <point x="227" y="410" type="curve" smooth="yes"/>
      <point x="227" y="424"/>
      <point x="231" y="449"/>
      <point x="233" y="462" type="curve" smooth="yes"/>
      <point x="293" y="836" type="line"/>
      <point x="170" y="836" type="line"/>
    </contour>
    <contour>
      <point x="239" y="899" type="move" name="top"/>
    </contour>
    <contour>
      <point x="294" y="753" type="move" name="altcaron"/>
    </contour>
    <contour>
      <point x="278" y="539" type="move" name="dot"/>
    </contour>
    <contour>
      <point x="161" y="170" type="move" name="bottom"/>
    </contour>
  </outline>
</glyph>
<glyph name="lira.smcp" format="1">
  <advance width="511"/>
  <note>
    GF Latin Plus glyph
  </note>
  <outline>
    <contour>
      <point x="57" y="0" type="line"/>
      <point x="464" y="0" type="line"/>
      <point x="484" y="120" type="line"/>
      <point x="285" y="120" type="line"/>
      <point x="295" y="182" type="line"/>
      <point x="430" y="184" type="line"/>
      <point x="439" y="243" type="line"/>
      <point x="306" y="248" type="line"/>
      <point x="311" y="282" type="line"/>
      <point x="447" y="285" type="line"/>
      <point x="456" y="344" type="line"/>
      <point x="321" y="349" type="line"/>
      <point x="327" y="383" type="line" smooth="yes"/>
      <point x="335" y="432"/>
      <point x="356" y="446"/>
      <point x="405" y="446" type="curve" smooth="yes"/>
      <point x="533" y="446" type="line"/>
      <point x="551" y="553" type="line"/>
      <point x="522" y="558"/>
      <point x="475" y="564"/>
      <point x="409" y="564" type="curve" smooth="yes"/>
      <point x="274" y="564"/>
      <point x="207" y="522"/>
      <point x="188" y="401" type="curve" smooth="yes"/>
      <point x="180" y="349" type="line"/>
      <point x="111" y="344" type="line"/>
      <point x="102" y="285" type="line"/>
      <point x="170" y="284" type="line"/>
      <point x="165" y="252" type="line"/>
      <point x="98" y="249" type="line"/>
      <point x="88" y="190" type="line"/>
      <point x="155" y="188" type="line"/>
      <point x="144" y="120" type="line"/>
      <point x="73" y="102" type="line"/>
    </contour>
  </outline>
</glyph>
<glyph name="liraTurkish.smcp" format="1">
  <advance width="511"/>
  <note>
    GF Latin Plus glyph
  </note>
  <outline>
    <contour>
      <point x="66" y="292" type="line"/>
      <point x="453" y="466" type="line"/>
      <point x="463" y="531" type="line"/>
      <point x="76" y="358" type="line"/>
    </contour>
    <contour>
      <point x="77" y="0" type="line"/>
      <point x="218" y="0" type="line" smooth="yes"/>
      <point x="369" y="0"/>
      <point x="492" y="53"/>
      <point x="528" y="280" type="curve"/>
      <point x="402" y="280" type="line"/>
      <point x="385" y="171"/>
      <point x="327" y="120"/>
      <point x="237" y="120" type="curve"/>
      <point x="307" y="560" type="line"/>
      <point x="166" y="560" type="line"/>
    </contour>
    <contour>
      <point x="48" y="178" type="line"/>
      <point x="435" y="352" type="line"/>
      <point x="446" y="417" type="line"/>
      <point x="58" y="244" type="line"/>
    </contour>
  </outline>
</glyph>
<glyph name="m.salt" format="1">
  <advance width="901"/>
  <outline>
    <contour>
      <point x="57" y="0" type="line"/>
      <point x="205" y="0" type="line"/>
      <point x="266" y="386" type="line"/>
      <point x="302" y="405"/>
      <point x="336" y="413"/>
      <point x="372" y="413" type="curve" smooth="yes"/>
      <point x="412" y="413"/>
      <point x="437" y="392"/>
      <point x="437" y="352" type="curve" smooth="yes"/>
      <point x="437" y="347"/>
      <point x="437" y="341"/>
      <point x="436" y="335" type="curve" smooth="yes"/>
      <point x="383" y="0" type="line"/>
      <point x="531" y="0" type="line"/>
      <point x="583" y="332" type="line" smooth="yes"/>
      <point x="584" y="339"/>
      <point x="585" y="345"/>
      <point x="586" y="352" type="curve" smooth="yes"/>
      <point x="587" y="362"/>
      <point x="587" y="372"/>
      <point x="586" y="379" type="curve"/>
      <point x="612" y="398"/>
      <point x="657" y="413"/>
      <point x="699" y="413" type="curve" smooth="yes"/>
      <point x="738" y="413"/>
      <point x="763" y="392"/>
      <point x="763" y="352" type="curve" smooth="yes"/>
      <point x="763" y="347"/>
      <point x="763" y="341"/>
      <point x="762" y="335" type="curve" smooth="yes"/>
      <point x="709" y="0" type="line"/>
      <point x="857" y="0" type="line"/>
      <point x="913" y="348" type="line" smooth="yes"/>
      <point x="916" y="371"/>
      <point x="918" y="392"/>
      <point x="918" y="411" type="curve" smooth="yes"/>
      <point x="918" y="493"/>
      <point x="879" y="546"/>
      <point x="766" y="546" type="curve" smooth="yes"/>
      <point x="700" y="546"/>
      <point x="616" y="527"/>
      <point x="560" y="494" type="curve"/>
      <point x="524" y="528"/>
      <point x="484" y="546"/>
      <point x="403" y="546" type="curve" smooth="yes"/>
      <point x="299" y="546"/>
      <point x="224" y="525"/>
      <point x="133" y="484" type="curve"/>
    </contour>
    <contour>
      <point x="575" y="650" type="move" name="top"/>
    </contour>
    <contour>
      <point x="433" y="-150" type="move" name="bottom"/>
    </contour>
  </outline>
</glyph>
<glyph name="naira.smcp" format="1">
  <advance width="511"/>
  <note>
    GF Latin Plus glyph
  </note>
  <outline>
    <contour>
      <point x="75" y="0" type="line"/>
      <point x="187" y="0" type="line"/>
      <point x="238" y="323" type="line"/>
      <point x="346" y="0" type="line"/>
      <point x="436" y="0" type="line"/>
      <point x="525" y="561" type="line"/>
      <point x="414" y="561" type="line"/>
      <point x="363" y="239" type="line"/>
      <point x="254" y="561" type="line"/>
      <point x="164" y="561" type="line"/>
    </contour>
    <contour>
      <point x="94" y="368" type="line"/>
      <point x="185" y="368" type="line"/>
      <point x="195" y="434" type="line"/>
      <point x="105" y="434" type="line"/>
    </contour>
    <contour>
      <point x="276" y="368" type="line"/>
      <point x="533" y="368" type="line"/>
      <point x="544" y="434" type="line"/>
      <point x="249" y="434" type="line"/>
    </contour>
    <contour>
      <point x="57" y="127" type="line"/>
      <point x="372" y="127" type="line"/>
      <point x="339" y="193" type="line"/>
      <point x="67" y="193" type="line"/>
    </contour>
    <contour>
      <point x="426" y="127" type="line"/>
      <point x="496" y="127" type="line"/>
      <point x="506" y="193" type="line"/>
      <point x="437" y="193" type="line"/>
    </contour>
  </outline>
</glyph>
<glyph name="nine.tnum" format="1">
  <advance width="609"/>
  <outline>
    <contour>
      <point x="479" y="421" type="curve"/>
      <point x="354" y="421" type="line" smooth="yes"/>
      <point x="300" y="421"/>
      <point x="273" y="430"/>
      <point x="273" y="470" type="curve" smooth="yes"/>
      <point x="273" y="477"/>
      <point x="273" y="485"/>
      <point x="275" y="493" type="curve" smooth="yes"/>
      <point x="283" y="541" type="line" smooth="yes"/>
      <point x="291" y="593"/>
      <point x="319" y="612"/>
      <point x="362" y="612" type="curve" smooth="yes"/>
      <point x="407" y="612" type="line" smooth="yes"/>
      <point x="460" y="612"/>
      <point x="488" y="590"/>
      <point x="488" y="513" type="curve" smooth="yes"/>
      <point x="488" y="489"/>
      <point x="485" y="458"/>
    </contour>
    <contour>
      <point x="636" y="538" type="curve" smooth="yes"/>
      <point x="636" y="699"/>
      <point x="571" y="745"/>
      <point x="457" y="745" type="curve" smooth="yes"/>
      <point x="350" y="745" type="line" smooth="yes"/>
      <point x="243" y="745"/>
      <point x="159" y="696"/>
      <point x="139" y="571" type="curve" smooth="yes"/>
      <point x="122" y="465" type="line" smooth="yes"/>
      <point x="120" y="449"/>
      <point x="118" y="434"/>
      <point x="118" y="421" type="curve" smooth="yes"/>
      <point x="118" y="340"/>
      <point x="168" y="295"/>
      <point x="292" y="295" type="curve" smooth="yes"/>
      <point x="359" y="295"/>
      <point x="414" y="298"/>
      <point x="462" y="312" type="curve"/>
      <point x="440" y="191"/>
      <point x="383" y="128"/>
      <point x="282" y="128" type="curve" smooth="yes"/>
      <point x="113" y="128" type="line"/>
      <point x="94" y="11" type="line"/>
      <point x="146" y="0"/>
      <point x="215" y="-5"/>
      <point x="280" y="-5" type="curve" smooth="yes"/>
      <point x="509" y="-5"/>
      <point x="636" y="195"/>
    </contour>
  </outline>
</glyph>
